<ttFont>
          <CharString index="0">
            88 71 rmoveto
            -46 41 -25 78 vhcurveto
            1104 hlineto
            26 21 95 102 129 -16 84 -23 45 hvcurveto
            -11 21 -70 -6 -29 -25 rrcurveto
            1 -14 1 -16 -16 vvcurveto
            -199 -48 -55 -298 -10 vhcurveto
            -1 -35 -95 -3 -21 hhcurveto
            -110 -52 17 106 hvcurveto
            451 vlineto
            176 -19 143 -19 168 16 rrcurveto
            12 27 6 26 36 vvcurveto
            49 -17 51 -19 9 vhcurveto
            -154 -32 -145 -9 -170 3 rrcurveto
            426 vlineto
            116 24 24 141 vhcurveto
            223 hlineto
            188 31 -76 -175 15 hvcurveto
            5 -22 91 -16 13 23 rrcurveto
            30 51 14 133 57 vvcurveto
            149 -51 0 -106 vhcurveto
            -991 hlineto
            -19 -25 -1 6 -24 -74 callsubr
            -1013 vlineto
            return
          </CharString>
          <CharString index="1">
            400 75 rmoveto
            -57 46 -18 68 vhcurveto
            510 hlineto
            33 43 59 callgsubr
            22 18 vvcurveto
            53 -36 10 -90 17 vhcurveto
            -53 11 -87 2 97 vvcurveto
            294 vlineto
            18 31 22 39 30 50 69 116 169 274 95 183 rrcurveto
            106 54 37 85 61 hhcurveto
            12 24 -4 -6 23 hvcurveto
            12 13 6 20 22 vvcurveto
            69 -64 5 -63 vhcurveto
            -346 -16 callsubr
            -11 -4 -15 -20 vvcurveto
            -72 61 0 72 -17 vhcurveto
            41 -10 43 -7 -43 vvcurveto
            -13 -4 -20 -12 -26 vhcurveto
            -55 -122 -163 -297 -114 -184 -321 554 rcurveline
            -26 43 -15 43 26 vvcurveto
            47 41 17 42 16 37 -4 -6 23 vhcurveto
            12 13 7 21 22 vvcurveto
            70 -75 3 -62 vhcurveto
            -361 8 callsubr
            -13 -19 vvcurveto
            -65 44 2 44 -21 vhcurveto
            40 -21 20 -35 50 -81 449 -747 rcurveline
            -252 vlineto
            -136 -3 -58 -20 -77 hhcurveto
            -30 27 callsubr
            -22 -18 vvcurveto
            return
          </CharString>
          <CharString index="2">
            rmoveto
            26 33 24 14 27 hvcurveto
            215 119 216 -119 rlineto
            -14 27 33 -24 26 hhcurveto
            29 25 46 20 4 -1 8 -6 7 hvcurveto
            -250 230 rlineto
            24 -24 -34 21 -40 hhcurveto
            -41 -34 -21 -24 -23 hvcurveto
            -250 -230 -19 callgsubr
            -8 -4 vvcurveto
            -20 25 -46 28 vhcurveto
            endchar
          </CharString>
          <CharString index="3">
            -72 callgsubr
            647 vlineto
            75 75 146 81 157 hhcurveto
            92 74 -20 -176 hvcurveto
            -590 vlineto
            -91 1 -16 -27 -56 hhcurveto
            -9 -11 0 8 -24 hvcurveto
            -11 -13 -5 -28 -15 vvcurveto
            -69 callgsubr
            -42 8 -45 15 -2 81 rrcurveto
            678 vlineto
            238 -136 84 -184 -159 -186 -112 -85 -102 vhcurveto
            102 -3 -18 95 -95 -57 callsubr
            43 -41 11 4 rrcurveto
            6 19 15 -37 callsubr
            -654 vlineto
            -91 1 -17 -27 -55 hhcurveto
            -10 -10 -78 callgsubr
            return
          </CharString>
          <CharString index="4">
            219 hintmask 00000000
            hintmask 11101001
            109 314 rmoveto
            -199 141 -134 212 169 112 73 73 72 vhcurveto
            -100 15 68 -46 67 hhcurveto
            81 134 58 65 32 hvcurveto
            6 11 3 11 11 vvcurveto
            22 -27 16 -8 -2 vhcurveto
            -8 -17 -20 -13 -29 hhcurveto
            -77 -12 60 165 hvcurveto
            180 10 156 144 vvcurveto
            177 -87 185 -335 vhcurveto
            hintmask 11100101
            -248 -201 -75 -166 40 callsubr
            69 56 154 hhcurveto
            148 41 -82 -169 -50 0 -49 -1 -50 hvcurveto
            -125 hlineto
            hintmask 11101001
            -90 callsubr
            hintmask 00010010
            return
          </CharString>
          <CharString index="5">
            hintmask 00000000
            hintmask 01101000
            589 -13 rmoveto
            -6 12 15 0 33 hhcurveto
            68 107 63 124 51 hvcurveto
            64 154 113 308 114 284 31 -100 rcurveline
            320 -827 rlineto
            -6 20 21 0 19 hhcurveto
            64 118 61 126 43 hvcurveto
            71 215 156 448 109 373 rrcurveto
            97 29 47 114 60 hhcurveto
            29 16 -3 -7 25 hvcurveto
            11 -45 callgsubr
            54 -46 23 -68 vhcurveto
            -374 -31 callsubr
            52 -11 39 -37 -19 -81 rrcurveto
            hintmask 10101000
            -61 -259 -146 -499 -98 -287 -388 1100 rcurveline
            -73 4 -75 -34 -19 -58 -88 -250 -159 -482 -118 -280 -294 1016 rcurveline
            -7 25 -3 22 21 vvcurveto
            79 58 19 63 30 28 -3 -7 25 vhcurveto
            11 -45 callgsubr
            57 -46 20 -68 vhcurveto
            -418 hlineto
            -33 -42 -14 callgsubr
            -11 -12 callsubr
            50 -3 50 -14 vhcurveto
            46 -14 14 -76 21 -60 rrcurveto
            return
          </CharString>
          <CharString index="6">
            303 rmoveto
            -238 138 -84 183 143 164 91 80 104 vhcurveto
            -118 6 58 -53 69 hhcurveto
            90 146 60 65 35 hvcurveto
            27 39 -44 33 -10 -3 rrcurveto
            -15 callsubr
            -12 52 201 hvcurveto
            592 -17 callgsubr
            -113 -115 -78 -65 -42 vhcurveto
            return
          </CharString>
          <CharString index="7">
            99 553 rmoveto
            -330 193 -242 315 263 301 203 481 360 -240 194 -242 -282 -308 -180 -486 vhcurveto
            567 -409 rmoveto
            -176 -169 168 343 267 127 137 171 234 97 -262 -239 -237 -104 -177 -180 hvcurveto
            return
          </CharString>
          <CharString index="8">
            446 49 rmoveto
            -52 21 72 -16 34 hhcurveto
            65 36 53 64 32 hvcurveto
            38 73 109 324 84 270 248 -716 rcurveline
            -56 20 72 -12 33 hhcurveto
            62 30 51 53 31 hvcurveto
            67 105 299 674 220 vvcurveto
            106 -38 29 -118 -82 -100 -37 -58 -9 3 -9 7 -11 vhcurveto
            64 -8 28 -41 -57 vvcurveto
            -193 -141 -350 -96 -233 vhcurveto
            -266 872 -4 21 -7 21 -6 15 rlinecurve
            17 -8 -13 5 -24 hhcurveto
            -46 -100 -24 -56 -12 hvcurveto
            -65 -309 -127 -376 -63 -179 -257 870 rcurveline
            129 -36 -51 0 -61 hhcurveto
            -83 -99 -57 -64 hvcurveto
            return
          </CharString>
          <CharString index="9">
            1282 vlineto
            108 2 67 0 68 hhcurveto
            19 21 0 -7 24 93 callsubr
            34 19 vvcurveto
            47 -65 10 -69 vhcurveto
            -403 hlineto
            -19 -22 0 5 -23 hvcurveto
            -11 -11 -5 -19 -16 vvcurveto
            -56 76 -2 78 -18 vhcurveto
            58 -14 17 -38 1 -53 rrcurveto
            -933 vlineto
            -806 1021 rlineto
            57 -42 -57 77 -94 hhcurveto
            -195 hlineto
            -19 -22 0 5 -23 hvcurveto
            -10 -13 -5 -24 -19 vvcurveto
            -49 57 -2 53 -15 vhcurveto
            53 -15 17 -22 2 -54 rrcurveto
            -1089 vlineto
            return
          </CharString>
          <CharString index="10">
            rmoveto
            -225 232 -95 253 257 360 127 310 241 -224 54 -203 8 vhcurveto
            1 -24 -31 0 -28 hhcurveto
            hintmask 1111010000010000
            -109 -125 9 83 31 15 25 23 23 hvcurveto
            -3 23 25 -2 25 hhcurveto
            281 249 171 285 60 -14 56 -26 49 hvcurveto
            hintmask 1111000101000000
            66 48 77 83 86 vvcurveto
            75 -68 45 -52 -43 -45 -13 -33 -28 vhcurveto
            20 -26 3 -49 -20 vvcurveto
            -31 -5 -32 -8 -31 vhcurveto
            64 -76 -110 38 -138 hhcurveto
            -233 -277 -142 -293 -173 98 -127 146 -57 hvcurveto
            hintmask 1111001000100000
            -67 -46 -51 -69 -85 vvcurveto
            -54 21 -39 33 -28 vhcurveto
            hintmask 1111000100010000
            -123 -67 -99 -105 -127 vvcurveto
            hintmask 1111010000010000
            526 736 rmoveto
            -136 -119 89 201 169 94 79 142 189 84 -149 -154 -156 -109 -79 -145 hvcurveto
            hintmask 1111001001000000
            -309 -698 rmoveto
            80 57 71 74 51 vhcurveto
            -18 74 83 -2 59 26 33 1 30 hhcurveto
            125 136 -28 -133 -178 -241 -35 -118 -148 -190 48 143 hvcurveto
            endchar
          </CharString>
          <CharString index="11">
            rmoveto
            444 112 87 28 -128 236 -103 -79 rlinecurve
            -347 -213 -19 callgsubr
            -7 -4 vvcurveto
            -21 26 -45 28 vhcurveto
            endchar
          </CharString>
          <CharString index="12">
            -16 73 rmoveto
            -50 45 -23 88 vhcurveto
            378 hlineto
            19 20 1 -6 25 -4 callsubr
            13 20 vvcurveto
            56 -56 9 -68 11 vhcurveto
            -90 21 -21 8 35 89 112 284 rcurveline
            633 hlineto
            94 -233 rlineto
            return
          </CharString>
          <CharString index="13">
            124 70 rmoveto
            -60 65 -10 69 vhcurveto
            339 -52 callsubr
            -52 8 -54 15 -2 81 rrcurveto
            665 vlineto
            71 69 109 61 100 hhcurveto
            82 0 -70 -122 -40 91 6 26 29 hvcurveto
            26 28 35 82 122 vvcurveto
            103 -33 65 -108 -120 -164 -92 -101 -114 vhcurveto
            101 -3 -19 92 -93 17 callsubr
            -654 vlineto
            -91 1 -16 -27 -56 -62 callgsubr
            return
          </CharString>
          <CharString index="14">
            rmoveto
            456 221 84 39 -198 233 -92 -93 rlinecurve
            -320 -319 rlineto
            -5 -7 -1 -8 -4 vvcurveto
            -20 35 -42 41 vhcurveto
            endchar
          </CharString>
          <CharString index="15">
            105 44 41 84 103 -29 97 -27 34 hvcurveto
            5 -4 -13 3 -16 hhcurveto
            -31 -28 -9 -13 -1 hvcurveto
            1 -113 -58 -80 -119 -6 -400 -15 rcurveline
            20 24 20 26 17 25 188 269 243 283 201 277 rrcurveto
            5 7 3 9 10 vvcurveto
            50 -30 89 -44 vhcurveto
            -685 hlineto
            -105 -39 -41 -84 -103 39 -58 27 -34 hvcurveto
            -5 4 14 -3 15 hhcurveto
            31 22 9 12 1 hvcurveto
            -1 114 59 45 118 5 325 11 rcurveline
            -25 -33 -28 -33 -22 -34 -174 -261 -227 -261 -210 -260 rrcurveto
            return
          </CharString>
          <CharString index="16">
            rmoveto
            -25 19 48 -21 40 hhcurveto
            41 40 17 29 17 hvcurveto
            231 305 rlineto
            6 6 1 8 4 vvcurveto
            20 -26 29 -41 -24 -25 -18 -19 -24 vhcurveto
            -200 -161 -200 161 rlineto
            19 -24 -25 18 -23 hhcurveto
            -42 -25 -29 -20 -4 1 -7 5 -7 hvcurveto
            endchar
          </CharString>
          <CharString index="17">
            -337 -244 -102 -258 hvcurveto
            232 19 rmoveto
            130 63 67 410 14 vhcurveto
            -1 -94 -1 -95 -97 vvcurveto
            -51 -62 -89 -47 -111 hhcurveto
            -134 -75 64 109 hvcurveto
            return
          </CharString>
          <CharString index="18">
            226 231 rmoveto
            -214 103 -36 166 132 153 81 84 44 vhcurveto
            5 10 2 10 10 vvcurveto
            36 -36 27 -8 -4 vhcurveto
            -28 -65 -61 -33 -93 hhcurveto
            -99 -18 19 226 hvcurveto
            147 2 214 223 vvcurveto
            11 vlineto
            -5 70 45 -10 75 hhcurveto
            107 64 39 56 17 0 40 -13 23 hvcurveto
            -346 hlineto
            2 95 4 100 1 60 rrcurveto
            57 1 -27 36 -37 hhcurveto
            -17 -37 -4 -4 -15 hvcurveto
            -14 -128 -53 -223 -188 -34 rrcurveto
            -12 -2 -5 -14 -14 vvcurveto
            -36 25 -45 44 vhcurveto
            99 hlineto
            return
          </CharString>
          <CharString index="19">
            218 -250 rmoveto
            -80 15 -50 -68 -63 vvcurveto
            -92 65 -56 119 126 107 80 188 107 vhcurveto
            252 442 295 770 121 vvcurveto
            102 -34 30 -107 -111 -106 -37 -57 -10 0 -10 11 -12 vhcurveto
            78 -8 29 -44 -72 vvcurveto
            -118 -136 -342 -139 -304 vhcurveto
            -305 885 rlineto
            127 -36 -56 2 -54 hhcurveto
            -87 -101 -56 -65 hvcurveto
            return
          </CharString>
          <CharString index="20">
            -85 callgsubr
            -41 8 -45 15 -2 81 rrcurveto
            return
          </CharString>
          <CharString index="21">
            hlineto
            33 43 19 callgsubr
            return
          </CharString>
          <CharString index="22">
            104 545 rmoveto
            -378 216 -187 258 144 115 68 77 82 vhcurveto
            -99 13 59 -45 68 hhcurveto
            88 139 60 65 34 hvcurveto
            27 39 -43 33 -11 -3 rrcurveto
            -8 -18 -21 67 callgsubr
            -11 52 201 hvcurveto
            1161 vlineto
            110 -1 -14 91 -118 hhcurveto
            3 callgsubr
            hvcurveto
            -16 -22 25 -34 22 5 rrcurveto
            4 20 21 3 16 hhcurveto
            71 18 -28 -93 hvcurveto
            -289 vlineto
            21 -58 -64 12 -68 hhcurveto
            -313 -309 -250 -424 hvcurveto
            551 -377 rmoveto
            -193 -131 127 313 293 158 157 199 98 75 -32 -43 55 hvcurveto
            -709 vlineto
            -52 -57 -95 -54 -109 hhcurveto
            return
          </CharString>
          <CharString index="23">
            -130 -48 -27 -37 -63 hhcurveto
            -19 -30 6 4 -15 hvcurveto
            -11 -15 -4 -19 -21 vvcurveto
            558 588 rmoveto
            257 648 262 -648 rlineto
            return
          </CharString>
          <CharString index="24">
            -15 callgsubr
            -42 73 callgsubr
            658 vlineto
            69 79 136 69 145 4 callgsubr
            24 0 -5 21 hvcurveto
            11 13 4 54 callsubr
            668 vlineto
            66 80 130 62 137 22 callgsubr
            -616 vlineto
            -70 -3 -18 -22 -50 hhcurveto
            -9 -11 0 8 -24 hvcurveto
            -11 -13 -5 -28 -15 vvcurveto
            -13 callgsubr
            -42 73 callgsubr
            671 vlineto
            238 -137 84 -183 -152 -179 -104 -84 -104 vhcurveto
            136 -44 -114 52 -143 hhcurveto
            -150 -175 -100 -83 -105 hvcurveto
            97 -4 -21 86 -90 -57 callsubr
            43 -41 11 4 rrcurveto
            6 19 15 -37 callsubr
            -654 vlineto
            -91 1 -17 -27 -55 hhcurveto
            -10 -10 -78 callgsubr
            return
          </CharString>
          <CharString index="25">
            -23 callgsubr
            61 -94 -90 -81 5 callsubr
            -507 hmoveto
            -34 callgsubr
            -61 61 -95 -90 -80 5 callsubr
            endchar
          </CharString>
          <CharString index="26">
            113 70 rmoveto
            -69 callgsubr
            -43 8 -45 16 87 vvcurveto
            641 vlineto
            74 76 145 81 156 4 callgsubr
            23 0 -5 22 -4 callsubr
            54 callsubr
            671 vlineto
            238 -137 84 -183 -159 -186 -110 -86 -101 vhcurveto
            return
          </CharString>
          <CharString index="27">
            108 6 callgsubr
            408 hlineto
            33 42 19 callgsubr
            -41 8 -75 -5 callgsubr
            1021 vlineto
            2 125 39 41 161 -1 rrcurveto
            258 -2 116 -153 -165 vvcurveto
            -207 -130 -134 -303 -9 vhcurveto
            -2 -65 -24 -121 47 hhcurveto
            101 hlineto
            return
          </CharString>
          <CharString index="28">
            -101 -79 -76 -82 -25 7 -25 16 -24 hvcurveto
            77 -5 48 -74 -84 vvcurveto
            -133 -90 -99 -31 -33 vhcurveto
            7 -32 57 -40 26 -1 rrcurveto
            76 35 182 175 271 vvcurveto
            96 -52 156 -143 vhcurveto
            return
          </CharString>
          <CharString index="29">
            81 77 rmoveto
            -63 65 -14 69 vhcurveto
            407 -81 callgsubr
            50 -81 1 -78 15 vhcurveto
            -57 14 -22 41 -2 51 rrcurveto
            957 vlineto
            865 -1088 return
          </CharString>
          <CharString index="30">
            rmoveto
            -147 152 -140 268 323 143 188 271 vhcurveto
            803 vlineto
            132 47 40 53 30 28 -3 -7 25 vhcurveto
            11 -43 callsubr
            19 -68 vhcurveto
            -433 24 callgsubr
            47 -13 89 -16 vhcurveto
            51 -11 38 -18 2 -75 rrcurveto
            -933 vlineto
            -147 -78 -85 -138 -125 -87 55 150 29 4 32 8 32 vhcurveto
            14 -10 -25 14 -45 hhcurveto
            -96 -58 -74 -117 hvcurveto
            return
          </CharString>
          <CharString index="31">
            77 rmoveto
            -59 46 -18 69 vhcurveto
            572 -35 callsubr
            -111 19 80 vvcurveto
            1151 120 vlineto
            289 19 -21 -298 -5 hvcurveto
            -3 12 18 -2 12 hhcurveto
            19 22 5 23 16 hvcurveto
            30 55 16 175 4 63 rrcurveto
            return
          </CharString>
          <CharString index="32">
            -23 callgsubr
            61 -95 -90 -80 -69 -92 -96 -49 callsubr
            return
          </CharString>
          <CharString index="33">
            hvcurveto
            -13 -15 -3 -29 -15 vvcurveto
            -47 55 -12 53 -12 vhcurveto
            62 -18 51 -13 -94 vvcurveto
            return
          </CharString>
          <CharString index="34">
            -10 69 vhcurveto
            319 hlineto
            20 23 -88 callgsubr
            -74 13 vhcurveto
            return
          </CharString>
          <CharString index="35">
            rmoveto
            71 12 153 189 228 vvcurveto
            96 -41 137 -120 -84 -61 -76 -72 -37 5 -22 18 -26 vhcurveto
            53 33 -77 -85 -104 -68 -75 -24 -27 hvcurveto
            5 -32 28 -35 32 6 rrcurveto
            endchar
          </CharString>
          <CharString index="36">
            rmoveto
            42 35 42 20 4 -1 8 -6 7 hvcurveto
            -319 319 -92 93 -198 -233 83 -39 rlinecurve
            endchar
          </CharString>
          <CharString index="37">
            -76 callgsubr
            -14 return
          </CharString>
          <CharString index="38">
            -76 callsubr
            hintmask 10100100
            43 callgsubr
            hintmask 11000100
            -21 callsubr
            hintmask 10100100
            -51 callsubr
            hintmask 11000100
            -45 callsubr
            hintmask 00011000
            return
          </CharString>
          <CharString index="39">
            88 77 rmoveto
            -59 46 -18 69 vhcurveto
            553 hlineto
            33 42 0 -8 24 hvcurveto
            10 14 5 7 callsubr
            55 -44 8 -82 16 vhcurveto
            -64 11 -128 2 97 vvcurveto
            451 vlineto
            176 -20 143 -18 168 15 rrcurveto
            12 28 6 26 36 vvcurveto
            48 -17 52 -19 8 vhcurveto
            -154 -32 -145 -8 -170 2 rrcurveto
            461 vlineto
            102 2 30 22 143 hhcurveto
            192 hlineto
            188 31 -63 -182 14 hvcurveto
            1 -22 93 -31 16 35 rrcurveto
            32 52 12 127 59 vvcurveto
            149 -42 0 -106 vhcurveto
            -979 hlineto
            -19 -26 -1 6 -23 -74 callsubr
            -998 vlineto
            -132 -66 -35 -63 -30 -28 81 callgsubr
            -11 -22 callsubr
            return
          </CharString>
          <CharString index="40">
            166 79 -648 349 hhcurveto
            141 95 83 72 17 -18 27 -17 hvcurveto
            -19 -16 -20 -61 hhcurveto
            -162 -175 411 93 -134 hvcurveto
            268 69 127 209 184 vvcurveto
            274 -217 154 -440 -11 vhcurveto
            return
          </CharString>
          <CharString index="41">
            -10 -30 callsubr
            -46 53 -25 69 vhcurveto
            1115 hlineto
            25 21 95 102 129 -18 85 -21 41 hvcurveto
            -21 14 -61 -8 -24 -16 rrcurveto
            1 -14 1 -16 -16 vvcurveto
            -199 -48 -52 -298 -10 vhcurveto
            -1 -35 -99 -3 -21 hhcurveto
            -110 -52 17 106 hvcurveto
            344 vlineto
            172 -20 175 -21 164 15 rrcurveto
            13 27 6 27 36 vvcurveto
            48 -18 51 -18 9 vhcurveto
            -146 -32 -188 -9 -160 3 rrcurveto
            537 vlineto
            116 24 24 141 vhcurveto
            226 hlineto
            188 31 -63 -182 15 hvcurveto
            1 -22 90 -31 15 35 rrcurveto
            32 52 12 126 60 vvcurveto
            149 -51 0 -106 vhcurveto
            -990 hlineto
            -20 -25 63 callsubr
            return
          </CharString>
          <CharString index="42">
            -10 69 vhcurveto
            367 34 callsubr
            -94 -3 88 vvcurveto
            return
          </CharString>
          <CharString index="43">
            89 0 9 callgsubr
            131 314 23 209 166 566 124 return
          </CharString>
          <CharString index="44">
            -351 -10 rlineto
            -130 -70 callsubr
            -4 -21 -20 vvcurveto
            -55 41 -8 76 -16 vhcurveto
            43 -11 29 -17 3 -71 rrcurveto
            -1023 vlineto
            -132 -46 -35 -63 -29 -30 81 callgsubr
            return
          </CharString>
          <CharString index="45">
            -13 -5 -28 -15 vvcurveto
            return
          </CharString>
          <CharString index="46">
            rmoveto
            371 242 rlineto
            34 65 -98 109 -91 hhcurveto
            -22 -23 -10 -19 -19 hvcurveto
            -257 -278 8 -30 25 -35 41 -13 rlinecurve
            -414 -17 rmoveto
            352 269 60 37 -102 98 -86 -2 rlinecurve
            -26 -1 -24 -9 -19 -24 -235 -298 rcurveline
            11 -30 27 -32 42 -8 rrcurveto
            endchar
          </CharString>
          <CharString index="47">
            738 -446 rlineto
            -7 12 12 -4 10 hhcurveto
            42 25 50 78 25 -18 25 -39 26 hvcurveto
            -565 390 573 381 rlineto
            34 22 14 25 17 vvcurveto
            104 -17 41 -40 -12 -14 -5 -10 -17 vhcurveto
            -738 -434 rlineto
            -40 -24 -29 -62 -60 vvcurveto
            -61 26 -45 43 -26 vhcurveto
            return
          </CharString>
          <CharString index="48">
            70 callsubr
            -44 15 -2 81 rrcurveto
            799 60 callgsubr
            -87 -132 -60 -66 -48 vhcurveto
            -16 -20 11 -53 26 2 rrcurveto
            9 31 16 0 20 hhcurveto
            67 22 -32 -93 hvcurveto
            -670 vlineto
            -91 1 -36 -27 -56 86 callgsubr
            return
          </CharString>
          <CharString index="49">
            -11 -62 callsubr
            return
          </CharString>
          <CharString index="50">
            hhcurveto
            -114 -114 -78 -65 -42 hvcurveto
            -27 -42 return
          </CharString>
          <CharString index="51">
            -86 callsubr
            -44 8 return
          </CharString>
          <CharString index="52">
            rmoveto
            587 hlineto
            77 26 46 52 29 -3 111 -17 25 hvcurveto
            11 -6 -44 4 -14 -6 -9 -2 -7 hhcurveto
            -121 -7 -86 -21 -175 hhcurveto
            -37 -47 -1 1 -45 hvcurveto
            247 158 218 199 194 vvcurveto
            140 -107 128 -236 -211 -125 -115 -119 -78 69 -24 64 18 18 4 9 19 vhcurveto
            140 -7 76 65 64 hhcurveto
            114 35 -66 -92 -172 -192 -163 -273 -213 hvcurveto
            -9 -7 0 -33 3 -23 1 -13 12 -42 15 -11 rrcurveto
            return
          </CharString>
          <CharString index="53">
            214 -69 65 -336 171 -198 rrcurveto
            -60 53 66 -29 90 hhcurveto
            141 95 83 72 17 -19 27 -16 hvcurveto
            -20 -15 -20 -61 hhcurveto
            -188 -10 -65 531 -379 104 474 491 rcurveline
            82 81 42 58 47 hhcurveto
            20 20 0 -8 24 hvcurveto
            11 12 5 29 19 vvcurveto
            61 -84 4 -69 vhcurveto
            -359 hlineto
            -20 -20 63 callsubr
            -11 -13 -5 -21 -20 vvcurveto
            -63 44 10 78 -17 vhcurveto
            42 -9 19 -14 -19 vvcurveto
            -13 -9 -14 -16 -17 vhcurveto
            -507 -562 rlineto
            return
          </CharString>
          <CharString index="54">
            155 27 19 157 478 160 -302 -374 -328 -131 -288 -482 -153 -56 11 104 vhcurveto
            return
          </CharString>
          <CharString index="55">
            -81 callgsubr
            -23 callsubr
            return
          </CharString>
          <CharString index="56">
            -115 -6 -70 -98 -7 hvcurveto
            -4 -63 -2 -175 24 -55 rrcurveto
            -23 13 21 -5 19 hhcurveto
            12 19 2 3 12 hvcurveto
            return
          </CharString>
          <CharString index="57">
            -9 callgsubr
            hintmask 10100000
            518 hmoveto
            -79 callsubr
            endchar
          </CharString>
          <CharString index="58">
            66 -59 89 hvcurveto
            return
          </CharString>
          <CharString index="59">
            113 70 rmoveto
            -60 65 -10 69 vhcurveto
            300 hlineto
            19 24 0 -5 21 hvcurveto
            11 -32 callsubr
            37 -14 15 -67 13 vhcurveto
            -38 8 -40 16 87 vvcurveto
            1342 47 callgsubr
            -114 -60 76 callsubr
            5 1 16 hhcurveto
            71 17 -28 -93 hvcurveto
            -1239 vlineto
            -91 1 -16 -27 -55 hhcurveto
            -10 -70 callgsubr
            427 546 rmoveto
            return
          </CharString>
          <CharString index="60">
            -134 109 -68 114 155 155 138 66 27 -19 12 -24 9 vhcurveto
            -33 -34 -67 -40 -67 hhcurveto
            return
          </CharString>
          <CharString index="61">
            hlineto
            -20 -20 63 callsubr
            -11 -11 -5 -26 -17 -115 return
          </CharString>
          <CharString index="62">
            297 29 33 22 270 hhcurveto
            130 -1112 hlineto
            -125 -6 -111 -32 -61 58 callsubr
            -5 -23 -15 vvcurveto
            return
          </CharString>
          <CharString index="63">
            rmoveto
            -27 -44 89 -60 68 -2 864 1339 rcurveline
            32 51 -105 60 -56 -5 rrcurveto
            return
          </CharString>
          <CharString index="64">
            -45 callgsubr
            58 -46 return
          </CharString>
          <CharString index="65">
            -145 -19 187 416 121 356 158 return
          </CharString>
          <CharString index="66">
            -136 189 116 -499 260 hhcurveto
            135 85 111 56 22 -22 11 -15 -2 hvcurveto
            -1 -13 -11 -21 -71 hhcurveto
            -113 -160 341 149 -162 hvcurveto
            174 107 258 237 132 vvcurveto
            74 -64 22 -92 -88 -116 -39 -56 -9 3 -11 7 -11 vhcurveto
            49 -4 31 -17 -25 vvcurveto
            -127 -238 -149 -141 -102 vhcurveto
            -29 -16 rlineto
            return
          </CharString>
          <CharString index="67">
            45 53 7 14 1 hvcurveto
            20 234 37 350 2 52 rrcurveto
            11 -30 5 -41 -76 -139 -17 -25 1 vhcurveto
            4 -125 41 -349 12 -133 rrcurveto
            -16 1 33 -8 36 hhcurveto
            return
          </CharString>
          <CharString index="68">
            -75 1 -56 -43 -74 hhcurveto
            -19 -21 2 6 -24 hvcurveto
            -11 -9 -5 -28 -12 vvcurveto
            return
          </CharString>
          <CharString index="69">
            rmoveto
            -34 callgsubr
            return
          </CharString>
          <CharString index="70">
            53 callsubr
            11 -51 -75 hvcurveto
            return
          </CharString>
          <CharString index="71">
            9 1 9 9 vvcurveto
            696 15 rlineto
            52 1 21 32 56 vvcurveto
            281 -105 257 -293 -139 -151 -59 -117 -115 vhcurveto
            141 -74 -165 35 -151 hhcurveto
            -239 -201 -71 -170 40 callsubr
            76 56 136 hhcurveto
            144 56 -54 -192 hvcurveto
            return
          </CharString>
          <CharString index="72">
            -56 callsubr
            -83 16 vhcurveto
            -52 11 return
          </CharString>
          <CharString index="73">
            8 -23 hvcurveto
            return
          </CharString>
          <CharString index="74">
            vhcurveto
            -24 callsubr
            return
          </CharString>
          <CharString index="75">
            13 5 -21 callgsubr
            return
          </CharString>
          <CharString index="76">
            -16 callsubr
            -14 -4 -66 callgsubr
            return
          </CharString>
          <CharString index="77">
            9 callsubr
            -22 vvcurveto
            return
          </CharString>
          <CharString index="78">
            vlineto
            124 2 42 34 56 hhcurveto
            -79 callgsubr
            -69 vhcurveto
            -407 -92 callgsubr
            return
          </CharString>
          <CharString index="79">
            -24 15 -22 19 2 vhcurveto
            2 12 5 2 13 hhcurveto
            31 26 -82 -76 25 hvcurveto
            return
          </CharString>
          <CharString index="80">
            -496 -11 callgsubr
            1297 118 return
          </CharString>
          <CharString index="81">
            -166 -138 -187 -68 -48 33 -18 28 -8 hvcurveto
            endchar
          </CharString>
          <CharString index="82">
            -105 -513 167 374 200 166 149 538 138 return
          </CharString>
          <CharString index="83">
            -27 -42 43 -44 callgsubr
            return
          </CharString>
          <CharString index="84">
            37 -15 48 callsubr
            return
          </CharString>
          <CharString index="85">
            9 callsubr
            -15 vvcurveto
            return
          </CharString>
          <CharString index="86">
            -42 -108 -19 -352 hhcurveto
            -169 hlineto
            -345 -100 19 -40 hhcurveto
            return
          </CharString>
          <CharString index="87">
            hstemhm
            -16 374 -374 1691 return
          </CharString>
          <CharString index="88">
            85 52 58 74 98 vvcurveto
            157 -150 72 -177 -197 -116 -66 -81 -57 52 -40 48 25 22 3 9 21 vhcurveto
            55 25 58 95 106 47 -41 -89 -80 -89 -90 -169 -1 vhcurveto
            -21 28 -120 -1 27 hvcurveto
            2 21 20 2 18 hhcurveto
            return
          </CharString>
          <CharString index="89">
            rmoveto
            61 44 56 34 85 96 124 -131 105 hhcurveto
            return
          </CharString>
          <CharString index="90">
            -346 229 -56 135 136 233 78 324 361 -229 50 -136 -133 -235 -67 -344 vhcurveto
            return
          </CharString>
          <CharString index="91">
            -92 callgsubr
            -11 return
          </CharString>
          <CharString index="92">
            -8 -19 -20 67 callgsubr
            return
          </CharString>
          <CharString index="93">
            34 74 rmoveto
            -38 32 -36 88 vhcurveto
            410 hlineto
            19 11 1 -6 24 hvcurveto
            11 13 4 10 19 vvcurveto
            54 -46 11 -68 15 vhcurveto
            -61 14 -41 8 34 vvcurveto
            14 8 39 17 28 vhcurveto
            207 335 rlineto
            504 -319 hlineto
            return
          </CharString>
          <CharString index="94">
            197 838 80 callgsubr
            return
          </CharString>
          <CharString index="95">
            -14 -4 -61 callgsubr
            return
          </CharString>
          <CharString index="96">
            334 1405 rmoveto
            94 76 68 92 95 -61 61 -94 -90 -81 29 callgsubr
            90 hvcurveto
            -215 -1335 35 callsubr
            return
          </CharString>
          <CharString index="97">
            154 150 173 78 39 -28 38 -33 hvcurveto
            -74 -51 -63 -55 -75 -169 -65 143 -160 hhcurveto
            return
          </CharString>
          <CharString index="98">
            -132 -72 -19 -51 -27 -39 4 6 -23 vhcurveto
            return
          </CharString>
          <CharString index="99">
            -151 -514 189 1383 161 0 -20 return
          </CharString>
          <CharString index="100">
            110 -14 91 -118 return
          </CharString>
          <CharString index="101">
            -108 -127 -10 -121 hhcurveto
            -217 -46 callsubr
            221 85 -165 vvcurveto
            -1004 vlineto
            -132 -46 -35 -63 -29 -30 81 callgsubr
            return
          </CharString>
          <CharString index="102">
            29 29 -3 -7 25 hvcurveto
            11 12 return
          </CharString>
          <CharString index="103">
            hvcurveto
            10 13 5 return
          </CharString>
          <CharString index="104">
            66 98 96 71 -66 -211 -194 -71 -76 -96 return
          </CharString>
          <CharString index="105">
            30 callgsubr
            -8 return
          </CharString>
          <CharString index="106">
            -64 25 hvcurveto
            return
          </CharString>
          <CharString index="107">
            179 -160 118 1304 111 -111 121 return
          </CharString>
          <CharString index="108">
            hintmask 0000000000000000
            return
          </CharString>
          <CharString index="109">
            118 904 197 return
          </CharString>
          <CharString index="110">
            223 hintmask 00000000
            return
          </CharString>
          <CharString index="111">
            929 392 rmoveto
            207 26 103 148 178 hhcurveto
            146 81 -91 -227 -7 hvcurveto
            -162 -17 -194 -11 -171 -9 rrcurveto
            -697 -369 rmoveto
            return
          </CharString>
          <CharString index="112">
            -70 -92 -31 callgsubr
            return
          </CharString>
          <CharString index="113">
            0 2 callsubr
            return
          </CharString>
          <CharString index="114">
            21 20 vvcurveto
            return
          </CharString>
          <CharString index="115">
            -76 callgsubr
            -15 -4 return
          </CharString>
          <CharString index="116">
            -13 -5 -23 return
          </CharString>
          <CharString index="117">
            145 53 rmoveto
            -28 19 24 -25 56 hhcurveto
            695 hlineto
            return
          </CharString>
          <CharString index="118">
            441 -11 callgsubr
            -111 -21 1432 115 return
          </CharString>
          <CharString index="119">
            61 38 callgsubr
            -330 307 hlineto
            60 -139 13 -49 -26 vhcurveto
            -354 -290 vlineto
            42 callgsubr
            335 return
          </CharString>
          <CharString index="120">
            134 -11 callgsubr
            1296 119 return
          </CharString>
          <CharString index="121">
            219 -110 213 -188 188 return
          </CharString>
          <CharString index="122">
            -53 callsubr
            endchar
          </CharString>
          <CharString index="123">
            9 callgsubr
            133 1282 118 -36 callgsubr
            return
          </CharString>
          <CharString index="124">
            -57 callsubr
            44 -41 10 4 rrcurveto
            6 19 15 -37 callsubr
            return
          </CharString>
          <CharString index="125">
            hstemhm
            97 217 -175 229 -103 190 return
          </CharString>
          <CharString index="126">
            -434 -369 -300 -540 hvcurveto
            return
          </CharString>
          <CharString index="127">
            103 -21 196 1218 159 return
          </CharString>
          <CharString index="128">
            -220 -19 187 890 161 return
          </CharString>
          <CharString index="129">
            0 9 callgsubr
            131 311 17 108 165 -143 142 678 124 -109 109 return
          </CharString>
          <CharString index="130">
            130 64 62 411 14 vhcurveto
            -10 0 -11 1 -10 vhcurveto
            -87 1 -89 -100 vvcurveto
            -41 -70 -95 -35 -103 hhcurveto
            return
          </CharString>
          <CharString index="131">
            176 -157 118 1101 -20 hstemhm
            244 224 return
          </CharString>
          <CharString index="132">
            290 -21 158 1260 155 return
          </CharString>
          <CharString index="133">
            -166 -138 -186 -68 -49 33 -17 28 -9 hvcurveto
            return
          </CharString>
          <CharString index="134">
            7 callgsubr
            -4 return
          </CharString>
          <CharString index="135">
            -22 callgsubr
            -11 -13 return
          </CharString>
          <CharString index="136">
            hhcurveto
            66 callsubr
            return
          </CharString>
          <CharString index="137">
            128 421 hstemhm
            return
          </CharString>
          <CharString index="138">
            134 hstemhm
            107 199 169 1005 -839 199 289 199 336 198 return
          </CharString>
          <CharString index="139">
            -19 179 -179 187 375 131 -90 121 356 158 -145 145 return
          </CharString>
          <CharString index="140" raw="1">
            8d1da38b 86a01f96 980b 
          </CharString>
          <CharString index="141">
            hlineto
            20 23 -88 callgsubr
            -74 13 vhcurveto
            -43 8 return
          </CharString>
          <CharString index="142">
            rmoveto
            -60 85 45 callsubr
            return
          </CharString>
          <CharString index="143">
            59 0 156 1227 149 return
          </CharString>
          <CharString index="144">
            -181 0 138 924 137 return
          </CharString>
          <CharString index="145">
            326 181 326 return
          </CharString>
          <CharString index="146">
            20 36 47 79 vvcurveto
            108 -71 71 -140 -212 -257 -131 -419 vhcurveto
            return
          </CharString>
          <CharString index="147">
            -35 callgsubr
            hvcurveto
            -2 24 0 39 9 31 rrcurveto
            69 19 return
          </CharString>
          <CharString index="148">
            -11 callgsubr
            881 175 -147 147 return
          </CharString>
          <CharString index="149">
            -76 -126 -20 -75 -12 vhcurveto
            return
          </CharString>
          <CharString index="150">
            -43 -6 12 -80 21 -11 rrcurveto
            return
          </CharString>
          <CharString index="151">
            rmoveto
            -43 callgsubr
            return
          </CharString>
          <CharString index="152">
            -10 69 vhcurveto
            319 -81 callgsubr
            return
          </CharString>
          <CharString index="153">
            24 -20 188 890 161 return
          </CharString>
          <CharString index="154">
            325 192 326 return
          </CharString>
          <CharString index="155">
            15 -75 13 vhcurveto
            return
          </CharString>
          <CharString index="156">
            79 71 rmoveto
            -46 53 -24 69 vhcurveto
            253 hlineto
            79 174 -11 79 hhcurveto
            return
          </CharString>
          <CharString index="157">
            -80 -48 31 78 63 48 85 74 78 hvcurveto
            return
          </CharString>
          <CharString index="158">
            148 421 hstemhm
            return
          </CharString>
          <CharString index="159">
            -16 callgsubr
            30 callsubr
            99 222 return
          </CharString>
          <CharString index="160">
            13 30 hhcurveto
            61 return
          </CharString>
          <CharString index="161">
            -21 callgsubr
            -23 callsubr
            -43 8 -45 16 87 vvcurveto
            return
          </CharString>
          <CharString index="162">
            290 127 -106 -179 -233 -179 -74 -256 hvcurveto
            return
          </CharString>
          <CharString index="163">
            hstemhm
            112 976 -931 153 return
          </CharString>
          <CharString index="164">
            193 825 175 348 -20 return
          </CharString>
          <CharString index="165">
            hhcurveto
            -29 7 callgsubr
            return
          </CharString>
          <CharString index="166">
            -51 124 -19 64 25 vhcurveto
            return
          </CharString>
          <CharString index="167">
            664 185 hstem
            140 return
          </CharString>
          <CharString index="168">
            -9 1 13 -37 10 hhcurveto
            return
          </CharString>
          <CharString index="169">
            75 -3 63 -11 -58 vvcurveto
            return
          </CharString>
          <CharString index="170">
            -1 6 -24 hvcurveto
            return
          </CharString>
          <CharString index="171">
            hlineto
            33 43 0 -6 23 hvcurveto
            11 17 4 16 17 vvcurveto
            65 return
          </CharString>
          <CharString index="172">
            rmoveto
            221 167 100 182 105 -73 84 -107 35 hvcurveto
            return
          </CharString>
          <CharString index="173">
            -29 -29 3 7 return
          </CharString>
          <CharString index="174">
            260 223 return
          </CharString>
          <CharString index="175">
            62 callsubr
            42 callsubr
            return
          </CharString>
          <CharString index="176">
            vlineto
            60 -138 13 -50 -27 vhcurveto
            return
          </CharString>
          <CharString index="177">
            -23 callsubr
            -42 8 return
          </CharString>
          <CharString index="178">
            hhcurveto
            -10 -10 0 8 return
          </CharString>
          <CharString index="179">
            hstemhm
            67 callsubr
            return
          </CharString>
          <CharString index="180" raw="1">
            e6fb0a34 0b  
          </CharString>
          <CharString index="181">
            -11 callgsubr
            1269 146 -146 165 return
          </CharString>
          <CharString index="182">
            -433 -176 2002 hstem
            0 921 vstem
            return
          </CharString>
          <CharString index="183">
            -67 -50 vhcurveto
            -16 -22 25 -34 22 5 rrcurveto
            4 20 return
          </CharString>
          <CharString index="184">
            62 callgsubr
            endchar
          </CharString>
          <CharString index="185">
            0 -8 23 hvcurveto
            12 14 return
          </CharString>
          <CharString index="186">
            61 -94 -90 -80 return
          </CharString>
          <CharString index="187">
            108 216 return
          </CharString>
          <CharString index="188">
            128 294 117 301 119 hstemhm
            return
          </CharString>
          <CharString index="189">
            828 -4 1445 -1339 130 return
          </CharString>
          <CharString index="190">
            -328 -482 99 2242 99 hstemhm
            98 return
          </CharString>
          <CharString index="191">
            185 366 -20 hstem
            486 188 vstem
            return
          </CharString>
          <CharString index="192">
            104 227 585 224 return
          </CharString>
          <CharString index="193">
            rlineto
            60 -90 32 -50 -26 vhcurveto
            return
          </CharString>
          <CharString index="194">
            vvcurveto
            -55 43 -8 83 return
          </CharString>
          <CharString index="195">
            hstemhm
            118 241 return
          </CharString>
          <CharString index="196">
            779 0 119 1299 115 return
          </CharString>
          <CharString index="197">
            -637 -514 173 1560 -20 return
          </CharString>
          <CharString index="198">
            733 hstem
            314 227 vstem
            346 return
          </CharString>
          <CharString index="199">
            hintmask 00000000
            hintmask 01110000
            return
          </CharString>
          <CharString index="200">
            hvcurveto
            10 12 5 return
          </CharString>
        <CharString name=".notdef">
          345 336 75 hstemhm
          -247 2204 -1306 440 hintmask 00000000
          hintmask 11000000
          -247 815 rmoveto
          1102 -1103 1102 1103 -1102 1102 rlineto
          -84 -1477 rmoveto
          -28 45 -26 49 61 vvcurveto
          115 87 48 93 52 vhcurveto
          hintmask 10100000
          94 52 100 58 134 vvcurveto
          117 -90 96 -131 -186 -24 -117 -104 -8 vhcurveto
          -1 -6 0 -6 -5 vvcurveto
          -11 2 -16 4 -16 vhcurveto
          -20 -10 rlineto
          -10 -20 -19 -9 -40 hhcurveto
          -78 -44 72 76 194 249 120 202 238 185 -80 -279 -204 -165 -98 -108 -63 hvcurveto
          -30 -17 -26 -16 -14 -13 rrcurveto
          -39 -36 -10 -51 -71 vvcurveto
          -14 vlineto
          -5 1 -7 -4 vvcurveto
          -3 -12 -41 -34 -39 -4 rrcurveto
          1 hlineto
          hintmask 11000000
          -10 -1 -38 2 -18 28 rrcurveto
          -64 -253 rmoveto
          84 64 65 83 85 65 -65 -84 -86 -65 -62 -85 -83 -64 62 86 vhcurveto
          endchar
        </CharString>
        <CharString name=".null">
          endchar
        </CharString>
        <CharString name="A">
          -49 callgsubr
          -20 callsubr
          hintmask 00000000
          hintmask 10111000
          -95 callsubr
          hintmask 01110100
          -138 66 -83 -37 -72 hhcurveto
          hintmask 10110100
          -19 -21 3 4 -24 hvcurveto
          hintmask 01110100
          -10 -12 -9 -24 -21 vvcurveto
          -47 40 -13 68 vhcurveto
          447 hlineto
          19 20 1 -6 25 -4 callsubr
          13 20 vvcurveto
          56 -59 0 -66 20 vhcurveto
          -45 15 -15 51 -20 53 -178 488 -133 250 -213 544 rrcurveto
          19 -8 -25 14 -49 hhcurveto
          -62 -88 -29 -42 -19 hvcurveto
          -494 -1196 rlineto
          hintmask 10111000
          -84 callsubr
          endchar
        </CharString>
        <CharString name="AE">
          926 22 callsubr
          hstemhm
          1153 236 663 143 1 callsubr
          hintmask 0110110100000000
          -14 callsubr
          hintmask 1010110100000000
          82 callgsubr
          hintmask 0111010110000000
          -66 callsubr
          hintmask 1010101100000000
          15 callgsubr
          hintmask 0110110100000000
          23 callgsubr
          endchar
        </CharString>
        <CharString name="AEacute">
          938 22 callsubr
          25 callgsubr
          1153 236 -68 527 204 143 1 callsubr
          hintmask 0110110010000000
          -14 callsubr
          hintmask 1010110010000000
          82 callgsubr
          hintmask 0111010010100000
          -66 callsubr
          hintmask 1010101010000000
          15 callgsubr
          hintmask 0110110010000000
          23 callgsubr
          hintmask 0000000101000000
          222 922 -96 callsubr
        </CharString>
        <CharString name="Aacute">
          -49 callgsubr
          121 313 -20 callsubr
          -1006 527 -103 callgsubr
          -338 992 -96 callsubr
        </CharString>
        <CharString name="Abreve">
          -49 callgsubr
          96 173 -20 callsubr
          -1201 732 -103 callgsubr
          -230 967 -84 callgsubr
        </CharString>
        <CharString name="Acircumflex">
          -49 callgsubr
          255 -21 -20 callsubr
          -1187 710 -103 callgsubr
          -520 948 -105 callsubr
        </CharString>
        <CharString name="Adieresis">
          -49 callgsubr
          110 316 -20 callsubr
          -1245 47 callsubr
          1 callsubr
          hintmask 1011010000000000
          -95 callsubr
          hintmask 0111001000000000
          -138 66 -83 -37 -72 hhcurveto
          hintmask 1011001000000000
          -19 -21 3 4 -24 hvcurveto
          hintmask 0111001000000000
          -10 -12 -9 -24 -21 vvcurveto
          -47 40 -13 68 vhcurveto
          447 hlineto
          19 20 1 -6 25 -4 callsubr
          13 20 vvcurveto
          56 -59 0 -66 20 vhcurveto
          -45 15 -15 51 -20 53 -178 488 -133 250 -213 544 rrcurveto
          19 -8 -25 14 -49 hhcurveto
          -62 -88 -29 -42 -19 hvcurveto
          -494 -1196 rlineto
          hintmask 1011010000000000
          -84 callsubr
          hintmask 0000100110000000
          41 981 -82 callgsubr
        </CharString>
        <CharString name="Agrave">
          -49 callgsubr
          121 313 -20 callsubr
          -1146 526 -103 callgsubr
          -59 992 -71 callgsubr
        </CharString>
        <CharString name="Amacron">
          -49 callgsubr
          198 159 -20 callsubr
          -1233 812 -103 callgsubr
          -611 1069 rmoveto
          729 hlineto
          60 32 109 50 -55 callgsubr
        </CharString>
        <CharString name="Aogonek">
          304 89 callgsubr
          335 118 -117 110 408 142 891 -20 hstemhm
          -16 374 769 194 hintmask 00000000
          hintmask 11011110
          -95 callsubr
          hintmask 10111110
          -138 66 -83 -37 -72 hhcurveto
          hintmask 11011110
          -19 -21 3 4 -24 hvcurveto
          hintmask 10111110
          -10 -12 -9 -24 -21 vvcurveto
          -47 40 -13 68 vhcurveto
          155 hlineto
          -90 -79 -87 -107 -127 vvcurveto
          -47 callsubr
          -80 -48 31 78 63 48 86 75 78 hvcurveto
          152 hlineto
          19 20 1 -6 25 -4 callsubr
          13 20 vvcurveto
          56 -59 0 -66 20 vhcurveto
          -45 15 -15 51 -20 53 -178 488 -133 250 -213 544 rrcurveto
          19 -8 -25 14 -49 hhcurveto
          -62 -88 -29 -42 -19 hvcurveto
          -494 -1196 rlineto
          hintmask 11011110
          -84 callsubr
          endchar
        </CharString>
        <CharString name="Aring">
          304 -11 callgsubr
          -117 110 408 142 823 113 -45 -20 324 103 -20 callsubr
          -1151 48 callgsubr
          1 callsubr
          hintmask 1010101000000000
          -95 callsubr
          hintmask 0110100100000000
          -138 66 -83 -37 -72 hhcurveto
          hintmask 1010100100000000
          -19 -21 3 4 -24 hvcurveto
          hintmask 0110100100000000
          -10 -12 -9 -24 -21 vvcurveto
          -47 40 -13 68 vhcurveto
          447 hlineto
          19 20 1 -6 25 -4 callsubr
          13 20 vvcurveto
          56 -59 0 -66 20 vhcurveto
          -45 15 -15 51 -20 53 -178 488 -133 250 -213 544 rrcurveto
          19 -8 -25 14 -49 hhcurveto
          -62 -88 -29 -42 -19 hvcurveto
          -494 -1196 rlineto
          hintmask 1010101000000000
          -84 callsubr
          hintmask 0001010011000000
          -236 823 -50 callgsubr
        </CharString>
        <CharString name="Atilde">
          -49 callgsubr
          114 186 -55 192 -20 callsubr
          -1255 853 1 callsubr
          hintmask 1011001000000000
          -95 callsubr
          hintmask 0111000100000000
          -138 66 -83 -37 -72 hhcurveto
          hintmask 1011000100000000
          -19 -21 3 4 -24 hvcurveto
          hintmask 0111000100000000
          -10 -12 -9 -24 -21 vvcurveto
          -47 40 -13 68 vhcurveto
          447 hlineto
          19 20 1 -6 25 -4 callsubr
          13 20 vvcurveto
          56 -59 0 -66 20 vhcurveto
          -45 15 -15 51 -20 53 -178 488 -133 250 -213 544 rrcurveto
          19 -8 -25 14 -49 hhcurveto
          -62 -88 -29 -42 -19 hvcurveto
          -494 -1196 rlineto
          hintmask 1011001000000000
          -84 callsubr
          1 callsubr
          -569 1021 -18 callsubr
          hintmask 0000010010000000
          -39 callgsubr
          hintmask 0000100010000000
          -46 callgsubr
        </CharString>
        <CharString name="B">
          34 callgsubr
          hstemhm
          316 233 563 242 -147 243 hintmask 00000000
          hintmask 01101101
          49 callsubr
          hintmask 10101101
          45 callgsubr
          hintmask 10101110
          46 callgsubr
          hintmask 01110101
          -3 callgsubr
          hintmask 01101101
          -11 -13 -4 -23 -22 vvcurveto
          hintmask 10101110
          -10 callgsubr
          hintmask 10101101
          55 callsubr
          hintmask 10101110
          -133 -90 12 104 hvcurveto
          endchar
        </CharString>
        <CharString name="C">
          20 callsubr
          hstem
          118 241 783 217 vstem
          -91 callgsubr
          endchar
        </CharString>
        <CharString name="CR">
          endchar
        </CharString>
        <CharString name="Cacute">
          20 callsubr
          101 313 88 callsubr
          322 527 -66 217 hintmask 11010100
          -91 callgsubr
          hintmask 00101000
          617 960 -96 callsubr
        </CharString>
        <CharString name="Ccaron">
          20 callsubr
          57 360 88 callsubr
          153 710 -80 217 hintmask 11010100
          -91 callgsubr
          hintmask 00101000
          749 916 -98 callgsubr
        </CharString>
        <CharString name="Ccedilla">
          103 -501 97 -76 -21 481 195 -169 -21 1408 159 88 callsubr
          254 746 -516 214 hintmask 00000000
          hintmask 01101110
          118 693 rmoveto
          hintmask 10011101
          -392 226 -273 374 -43 vhcurveto
          -37 -163 rlineto
          -9 1 13 -37 10 hhcurveto
          68 callsubr
          hintmask 01101110
          43 callsubr
          hintmask 01101101
          -28 callgsubr
          14 91 rlineto
          322 6 188 184 87 vvcurveto
          43 -35 35 -20 6 vhcurveto
          -94 -84 -118 -72 -229 hhcurveto
          -319 -187 245 351 369 176 253 341 hvcurveto
          hintmask 01101110
          145 121 -40 -187 -28 -1 -19 -3 -19 hvcurveto
          -8 15 37 -6 29 hhcurveto
          98 42 88 74 174 -147 130 -294 -440 -360 -331 -528 hvcurveto
          endchar
        </CharString>
        <CharString name="Ccircumflex">
          20 callsubr
          235 -21 88 callsubr
          141 710 -68 217 hintmask 11010100
          -91 callgsubr
          hintmask 00101000
          435 916 -105 callsubr
        </CharString>
        <CharString name="Cdotaccent">
          20 callsubr
          87 317 88 callsubr
          337 326 120 217 hintmask 11010100
          -91 callgsubr
          hintmask 00101000
          733 946 -77 callgsubr
        </CharString>
        <CharString name="D">
          371 -10 136 -125 118 1291 49 callgsubr
          hintmask 01011100
          74 71 rmoveto
          -46 53 -24 69 vhcurveto
          258 hlineto
          70 141 -11 74 hhcurveto
          hintmask 10011100
          722 163 471 361 319 -163 405 -653 hvcurveto
          hintmask 01101100
          -166 -144 -13 -61 hhcurveto
          -272 -46 callsubr
          231 85 -165 vvcurveto
          -1019 vlineto
          -132 -74 -19 -69 -28 -32 4 6 -24 vhcurveto
          hintmask 01011100
          -10 -30 callsubr
          hintmask 10011100
          478 170 rmoveto
          1003 vlineto
          15 callsubr
        </CharString>
        <CharString name="Dcaron">
          13 callgsubr
          63 360 -36 callgsubr
          -112 710 224 -63 callgsubr
          243 1368 -98 callgsubr
        </CharString>
        <CharString name="Dcroat">
          -74 callgsubr
        </CharString>
        <CharString name="Delta">
          229 0 159 1393 -20 hstem
          59 1433 vstem
          136 hmoveto
          1288 hlineto
          44 40 87 45 -21 hvcurveto
          -173 464 -205 399 -207 524 rrcurveto
          19 -8 -25 14 -48 hhcurveto
          -62 -89 -29 -42 -18 hvcurveto
          -587 -1342 rlineto
          -48 -26 70 -91 27 hhcurveto
          129 159 rmoveto
          487 1146 483 -1146 rlineto
          endchar
        </CharString>
        <CharString name="E">
          -64 callsubr
          -36 callgsubr
          659 147 hintmask 00000000
          hintmask 01111110
          -107 callsubr
          hintmask 10111110
          -40 callgsubr
          hintmask 01111110
          -11 -30 callsubr
          endchar
        </CharString>
        <CharString name="Eacute">
          -64 callsubr
          120 313 -36 callgsubr
          52 527 80 147 1 callsubr
          hintmask 0111101010000000
          -107 callsubr
          hintmask 1011101010000000
          -40 callgsubr
          hintmask 0111101010000000
          -11 -30 callsubr
          hintmask 0000010100000000
          570 1582 -96 callsubr
        </CharString>
        <CharString name="Ebreve">
          -64 callsubr
          95 173 -36 callgsubr
          -143 732 70 147 1 callsubr
          hintmask 0111101010000000
          -107 callsubr
          hintmask 1011101010000000
          -40 callgsubr
          hintmask 0111101010000000
          -11 -30 callsubr
          hintmask 0000010100000000
          678 1557 -84 callgsubr
        </CharString>
        <CharString name="Ecaron">
          -64 callsubr
          76 360 -36 callgsubr
          -116 710 65 147 1 callsubr
          hintmask 0111101010000000
          -107 callsubr
          hintmask 1011101010000000
          -40 callgsubr
          hintmask 0111101010000000
          -11 -30 callsubr
          hintmask 0000010100000000
          703 1538 -98 callgsubr
        </CharString>
        <CharString name="Ecircumflex">
          -64 callsubr
          254 -21 -36 callgsubr
          -129 710 78 147 1 callsubr
          hintmask 0111101010000000
          -107 callsubr
          hintmask 1011101010000000
          -40 callgsubr
          hintmask 0111101010000000
          -11 -30 callsubr
          hintmask 0000010100000000
          388 1538 -105 callsubr
        </CharString>
        <CharString name="Edieresis">
          -64 callsubr
          109 316 -36 callgsubr
          -187 47 callsubr
          3 147 1 callsubr
          hintmask 0111101001000000
          -107 callsubr
          hintmask 1011101001000000
          -40 callgsubr
          hintmask 0111101001000000
          -11 -30 callsubr
          hintmask 0000010110000000
          949 1571 -82 callgsubr
        </CharString>
        <CharString name="Edotaccent">
          -64 callsubr
          106 317 -36 callgsubr
          67 326 266 147 1 callsubr
          hintmask 0111101010000000
          -107 callsubr
          hintmask 1011101010000000
          -40 callgsubr
          hintmask 0111101010000000
          -11 -30 callsubr
          hintmask 0000010100000000
          686 1568 -77 callgsubr
        </CharString>
        <CharString name="Egrave">
          -64 callsubr
          120 313 -36 callgsubr
          -88 526 221 147 1 callsubr
          hintmask 0111101010000000
          -107 callsubr
          hintmask 1011101010000000
          -40 callgsubr
          hintmask 0111101010000000
          -11 -30 callsubr
          hintmask 0000010100000000
          849 1582 -71 callgsubr
        </CharString>
        <CharString name="Emacron">
          -64 callsubr
          197 159 -36 callgsubr
          -175 812 22 147 1 callsubr
          hintmask 0111101010000000
          -107 callsubr
          hintmask 1011101010000000
          -40 callgsubr
          hintmask 0111101010000000
          -11 -30 callsubr
          hintmask 0000010100000000
          297 1659 rmoveto
          729 hlineto
          60 32 109 50 -55 callgsubr
        </CharString>
        <CharString name="Eng">
          461 -514 173 341 118 1300 115 hstem
          290 171 454 252 214 171 vstem
          -78 callsubr
          15 -20 16 -19 17 -16 rlinecurve
          -303 -5 -116 -74 -101 hhcurveto
          -68 -28 38 43 -5 hvcurveto
          61 callgsubr
          75 -77 137 206 195 172 340 15 vhcurveto
          6 6 3 9 15 vvcurveto
          -98 callsubr
          -39 callsubr
          endchar
        </CharString>
        <CharString name="Eogonek">
          86 89 callgsubr
          335 9 callgsubr
          131 314 23 209 166 566 124 -36 callgsubr
          254 521 -116 147 1 callsubr
          hintmask 1011111100000000
          88 71 rmoveto
          -46 41 -25 78 vhcurveto
          775 hlineto
          -90 -79 -86 -107 -126 vvcurveto
          -47 callsubr
          50 callsubr
          hintmask 1011111010000000
          189 hlineto
          26 21 95 102 129 -16 84 -23 45 hvcurveto
          -11 21 -70 -6 -29 -25 rrcurveto
          1 -14 1 -16 -16 vvcurveto
          -199 -48 -55 -298 -10 vhcurveto
          -1 -35 -95 -3 -21 hhcurveto
          -110 -52 17 106 hvcurveto
          451 vlineto
          176 -19 143 -19 168 16 rrcurveto
          12 27 6 26 36 vvcurveto
          49 -17 51 -19 9 vhcurveto
          -154 -32 -145 -9 -170 3 rrcurveto
          426 vlineto
          116 24 24 141 vhcurveto
          223 hlineto
          188 31 -76 -175 15 hvcurveto
          hintmask 1101111100000000
          5 -22 91 -16 13 23 rrcurveto
          30 51 14 133 57 vvcurveto
          149 -51 0 -106 vhcurveto
          -991 hlineto
          -19 -25 -1 6 -24 -74 callsubr
          -1013 vlineto
          -40 callgsubr
          hintmask 1011111100000000
          -11 -30 callsubr
          endchar
        </CharString>
        <CharString name="Eth">
          -74 callgsubr
        </CharString>
        <CharString name="Euro">
          67 -21 196 383 149 174 149 363 159 hstem
          171 252 745 206 vstem
          9 558 rmoveto
          170 hlineto
          -352 47 234 -227 369 hhcurveto
          333 175 199 89 42 -35 35 -21 7 hvcurveto
          -104 -84 -101 -72 -213 hhcurveto
          -238 -144 158 225 -54 hvcurveto
          448 hlineto
          60 32 100 49 -26 hvcurveto
          -536 hlineto
          -2 22 0 23 24 vvcurveto
          36 1 35 3 34 vhcurveto
          497 hlineto
          61 32 100 49 -27 hvcurveto
          -538 hlineto
          224 59 145 139 234 hhcurveto
          151 127 -34 -164 -28 -1 -19 -3 -19 hvcurveto
          -8 14 31 -6 25 hhcurveto
          98 42 74 59 174 -147 130 -295 -320 -276 -194 -328 -112 hvcurveto
          -122 hlineto
          -52 -37 -85 -1 callsubr
          148 hlineto
          -9 -55 -6 -59 -60 vvcurveto
          -98 hlineto
          -52 -37 -85 1 callgsubr
        </CharString>
        <CharString name="F">
          74 callgsubr
          hstem
          316 236 vstem
          -68 callsubr
          endchar
        </CharString>
        <CharString name="G">
          25 callsubr
          88 callgsubr
          834 27 callgsubr
          hintmask 11101000
          -93 callgsubr
          hintmask 11110000
          -58 callgsubr
          hintmask 11101000
          19 callsubr
          endchar
        </CharString>
        <CharString name="Gbreve">
          25 callsubr
          76 173 88 callgsubr
          149 732 -47 27 callgsubr
          hintmask 11010010
          -93 callgsubr
          hintmask 11010100
          -58 callgsubr
          hintmask 11010010
          19 callsubr
          hintmask 00101000
          759 916 -84 callgsubr
        </CharString>
        <CharString name="Gcircumflex">
          25 callsubr
          235 -21 88 callgsubr
          164 710 -40 27 callgsubr
          hintmask 11010010
          -93 callgsubr
          hintmask 11010100
          -58 callgsubr
          hintmask 11010010
          19 callsubr
          hintmask 00101000
          470 897 -105 callsubr
        </CharString>
        <CharString name="Gcommaaccent">
          290 -493 -21 493 158 1260 155 88 callgsubr
          424 215 195 27 callgsubr
          hintmask 01110010
          -93 callgsubr
          hintmask 01110100
          -58 callgsubr
          hintmask 01110010
          19 callsubr
          hintmask 10001000
          572 -895 -99 callgsubr
        </CharString>
        <CharString name="Gdotaccent">
          25 callsubr
          87 317 88 callgsubr
          360 326 148 27 callgsubr
          hintmask 11010010
          -93 callgsubr
          hintmask 11010100
          -58 callgsubr
          hintmask 11010010
          19 callsubr
          hintmask 00101000
          768 927 -77 callgsubr
        </CharString>
        <CharString name="H">
          58 callgsubr
          600 118 hstem
          310 236 800 236 vstem
          -80 callgsubr
          endchar
        </CharString>
        <CharString name="Hbar">
          58 callgsubr
          199 139 262 118 hstem
          310 236 800 236 vstem
          102 -29 callgsubr
          441 800 -402 17 callgsubr
          -4 -23 -15 vvcurveto
          -59 45 -18 69 vhcurveto
          417 -35 callsubr
          -33 19 80 vvcurveto
          778 113 vlineto
          60 32 90 49 -26 hvcurveto
          -179 104 hlineto
          -97 callgsubr
          43 -11 29 -17 3 -71 rrcurveto
          -155 -800 104 -29 callsubr
          -11 -14 -4 16 callgsubr
          -155 -108 vlineto
          -52 -37 -75 -1 callsubr
          172 -729 hlineto
          -132 -46 -35 -63 66 callsubr
          -26 vhcurveto
          -10 -22 callsubr
          444 738 rmoveto
          199 800 -199 vlineto
          endchar
        </CharString>
        <CharString name="Hcircumflex">
          58 callgsubr
          600 118 254 -21 hstemhm
          310 236 34 710 56 236 hintmask 11101010
          -80 callgsubr
          hintmask 00010100
          531 1532 -105 callsubr
        </CharString>
        <CharString name="I">
          -27 callsubr
          hstem
          311 236 vstem
          -106 callgsubr
          endchar
        </CharString>
        <CharString name="IJ">
          667 -19 152 -133 118 1297 118 hstemhm
          311 236 350 222 428 236 hintmask 01110000
          -106 callgsubr
          hintmask 10101100
          794 191 -77 callsubr
          endchar
        </CharString>
        <CharString name="Iacute">
          -27 callsubr
          25 callgsubr
          241 527 -457 236 hintmask 11001000
          -106 callgsubr
          hintmask 00110000
          192 1576 -96 callsubr
        </CharString>
        <CharString name="Ibreve">
          -27 callsubr
          95 173 hstemhm
          46 732 -467 236 hintmask 11001000
          -106 callgsubr
          hintmask 00110000
          300 1551 -84 callgsubr
        </CharString>
        <CharString name="Icircumflex">
          -27 callsubr
          254 -21 hstemhm
          60 710 -459 236 hintmask 11001000
          -106 callgsubr
          hintmask 00110000
          10 1532 -105 callsubr
        </CharString>
        <CharString name="Idieresis">
          -27 callsubr
          109 316 hstemhm
          2 325 -16 236 -28 326 hintmask 11001000
          -106 callgsubr
          hintmask 00110100
          571 1565 -82 callgsubr
        </CharString>
        <CharString name="Idotaccent">
          -27 callsubr
          106 317 hstemhm
          256 326 -271 236 hintmask 11001000
          -106 callgsubr
          hintmask 00110000
          308 1562 -77 callgsubr
        </CharString>
        <CharString name="Igrave">
          -27 callsubr
          25 callgsubr
          101 526 -316 236 hintmask 11001000
          -106 callgsubr
          hintmask 00110000
          471 1576 -71 callgsubr
        </CharString>
        <CharString name="Imacron">
          -27 callsubr
          197 159 hstemhm
          14 812 -515 236 hintmask 11001000
          -106 callgsubr
          hintmask 00110000
          -81 1653 rmoveto
          729 hlineto
          60 32 109 50 -55 callgsubr
        </CharString>
        <CharString name="Iogonek">
          -496 89 callgsubr
          335 118 1297 118 hstemhm
          110 289 -194 541 -435 93 callgsubr
          hintmask 11100100
          103 6 callgsubr
          164 hlineto
          hintmask 11101000
          -90 -79 -86 -107 -126 vvcurveto
          -47 callsubr
          hintmask 11110000
          50 callsubr
          113 hlineto
          33 43 26 callgsubr
          hintmask 11100100
          55 -45 8 -81 -5 callgsubr
          1021 vlineto
          124 2 42 34 56 hhcurveto
          hintmask 11101000
          -79 callgsubr
          -69 vhcurveto
          -407 hlineto
          hintmask 11110000
          -87 callgsubr
          -12 -14 -3 -66 callgsubr
          hintmask 11100100
          46 -11 29 -19 -80 vvcurveto
          -1022 vlineto
          -124 -2 -46 -33 -1 callgsubr
          -26 hvcurveto
          -10 -22 callsubr
          endchar
        </CharString>
        <CharString name="Itilde">
          -27 callsubr
          70 callgsubr
          -8 853 -534 236 hintmask 11000100
          -106 callgsubr
          hintmask 00000000
          -39 1605 -18 callsubr
          hintmask 00011000
          -39 callgsubr
          hintmask 00101000
          -46 callgsubr
        </CharString>
        <CharString name="J">
          -215 -19 152 1282 118 hstem
          15 222 428 236 vstem
          15 268 -77 callsubr
          endchar
        </CharString>
        <CharString name="Jcircumflex">
          -215 -19 152 1282 118 254 -21 hstemhm
          15 222 122 710 -404 236 hintmask 11010100
          15 268 -77 callsubr
          hintmask 00101000
          397 1341 -105 callsubr
        </CharString>
        <CharString name="K">
          263 -19 179 -160 118 1297 118 hstemhm
          316 236 92 callsubr
          -60 callgsubr
          hintmask 10110000
          -54 callsubr
          hintmask 01110000
          -27 -22 27 -69 12 -4 rrcurveto
          endchar
        </CharString>
        <CharString name="Kcommaaccent">
          263 -493 -21 495 179 -160 118 1297 118 -36 callgsubr
          304 215 hintmask 00000000
          hintmask 00111000
          -60 callgsubr
          hintmask 01011000
          -54 callsubr
          hintmask 00111000
          -27 -22 27 -69 12 -4 rrcurveto
          hintmask 10000100
          88 -854 -99 callgsubr
        </CharString>
        <CharString name="L">
          80 0 16 callsubr
          92 callsubr
          88 -94 callgsubr
          hintmask 10110000
          -9 callsubr
          hintmask 01110000
          -11 -30 callsubr
          endchar
        </CharString>
        <CharString name="Lacute">
          70 0 9 callgsubr
          133 1282 118 108 313 hstemhm
          265 527 -486 93 callgsubr
          hintmask 01100100
          78 -94 callgsubr
          hintmask 10100100
          -9 callsubr
          hintmask 01100100
          -11 -30 callsubr
          hintmask 00011000
          241 1570 -96 callsubr
        </CharString>
        <CharString name="Lcaron">
          80 0 9 callgsubr
          133 928 662 -308 118 -36 callgsubr
          430 197 hintmask 00000000
          hintmask 01011000
          88 -94 callgsubr
          hintmask 10011000
          -9 callsubr
          hintmask 01011000
          -11 -30 callsubr
          hintmask 00100100
          867 990 -72 callsubr
        </CharString>
        <CharString name="Lcommaaccent">
          80 -493 -21 514 16 callsubr
          155 215 hintmask 00000000
          hintmask 00111000
          88 -94 callgsubr
          hintmask 01011000
          -9 callsubr
          hintmask 00111000
          -11 -30 callsubr
          hintmask 10000100
          514 -254 -99 callgsubr
        </CharString>
        <CharString name="Ldot">
          80 0 9 callgsubr
          133 603 316 363 118 -36 callgsubr
          560 326 hintmask 00000000
          hintmask 01011000
          88 -94 callgsubr
          hintmask 10011000
          -9 callsubr
          hintmask 01011000
          -11 -30 callsubr
          hintmask 00100100
          1179 665 -75 callsubr
          endchar
        </CharString>
        <CharString name="Lslash">
          80 0 16 callsubr
          414 50 hintmask 00000000
          hintmask 01111000
          88 71 rmoveto
          -46 59 -25 60 vhcurveto
          1091 hlineto
          69 102 4 282 -34 133 -22 14 -66 3 -24 -15 rrcurveto
          -257 -25 -8 -129 -317 -35 -105 -2 -21 hhcurveto
          -108 -52 16 99 -2 hvcurveto
          439 vlineto
          434 221 54 30 -26 92 -48 30 rlinecurve
          -414 -211 rlineto
          410 vlineto
          124 2 45 34 63 hhcurveto
          -5 callsubr
          4 24 15 vvcurveto
          58 -45 19 -69 vhcurveto
          -436 -70 callsubr
          -4 30 callgsubr
          -5 82 -22 vhcurveto
          53 -15 42 -21 -71 vvcurveto
          -570 vlineto
          -162 -82 -44 -24 13 -83 54 -44 rlinecurve
          139 71 rlineto
          -295 vlineto
          hintmask 10111000
          -9 callsubr
          hintmask 01111000
          -11 -30 callsubr
          endchar
        </CharString>
        <CharString name="M">
          89 callsubr
          hstemhm
          61 2039 -502 186 hintmask 00000000
          hintmask 11100000
          -18 callgsubr
          hintmask 11010000
          -68 callgsubr
          hintmask 11100000
          -11 -13 -5 -33 -7 vvcurveto
          endchar
        </CharString>
        <CharString name="N">
          11 callsubr
          hstemhm
          290 171 920 171 hintmask 00000000
          hintmask 10111000
          -78 callsubr
          rlineto
          hintmask 01111000
          -57 44 50 -48 67 hhcurveto
          44 21 4 38 hvcurveto
          -98 callsubr
          hintmask 10111000
          -39 callsubr
          endchar
        </CharString>
        <CharString name="Nacute">
          11 callsubr
          25 callgsubr
          290 171 279 527 114 171 hintmask 00000000
          hintmask 10101010
          -78 callsubr
          rlineto
          hintmask 01101010
          -57 44 50 -48 67 hhcurveto
          44 21 4 38 hvcurveto
          -98 callsubr
          hintmask 10101010
          -39 callsubr
          hintmask 00010100
          713 1576 -96 callsubr
        </CharString>
        <CharString name="Ncaron">
          11 callsubr
          76 360 hstemhm
          290 171 110 710 100 171 hintmask 00000000
          hintmask 10101010
          -78 callsubr
          rlineto
          hintmask 01101010
          -57 44 50 -48 67 hhcurveto
          44 21 4 38 hvcurveto
          -98 callsubr
          hintmask 10101010
          -39 callsubr
          hintmask 00010100
          845 1532 -98 callgsubr
        </CharString>
        <CharString name="Ncommaaccent">
          441 -493 -21 514 118 -111 -21 1432 115 hstemhm
          290 171 447 215 258 171 hintmask 00000000
          hintmask 01011010
          -78 callsubr
          rlineto
          hintmask 00111010
          -57 44 50 -48 67 hhcurveto
          44 21 4 38 hvcurveto
          -98 callsubr
          hintmask 01011010
          -39 callsubr
          hintmask 10000100
          722 -260 -99 callgsubr
        </CharString>
        <CharString name="Ntilde">
          11 callsubr
          70 callgsubr
          290 171 30 853 37 171 hintmask 00000000
          hintmask 10100101
          -78 callsubr
          rlineto
          hintmask 01100101
          -57 44 50 -48 67 hhcurveto
          44 21 4 38 hvcurveto
          -98 callsubr
          hintmask 10100101
          -39 callsubr
          hintmask 00000000
          482 1605 -18 callsubr
          hintmask 00001010
          -39 callgsubr
          hintmask 00010010
          -46 callgsubr
        </CharString>
        <CharString name="O">
          -27 callgsubr
          90 callgsubr
          -100 callgsubr
          endchar
        </CharString>
        <CharString name="OE">
          913 -19 167 -148 131 -131 148 297 23 209 166 559 150 -143 124 hstemhm
          108 252 780 236 659 147 1 callsubr
          hintmask 1001110110000000
          108 713 rmoveto
          -449 308 -283 396 61 66 7 13 66 vhcurveto
          hintmask 0101101111000000
          -1 8 9 0 9 hhcurveto
          1104 hlineto
          26 21 95 102 129 -16 84 -23 45 hvcurveto
          -11 21 -70 -6 -29 -25 rrcurveto
          1 -14 1 -16 -16 vvcurveto
          -199 -48 -55 -298 -10 vhcurveto
          -1 -35 -95 -3 -21 hhcurveto
          -110 -52 17 106 hvcurveto
          451 vlineto
          176 -19 143 -19 168 16 rrcurveto
          12 27 6 26 36 vvcurveto
          49 -17 51 -19 9 vhcurveto
          -154 -32 -145 -9 -170 3 rrcurveto
          426 vlineto
          116 24 24 141 vhcurveto
          223 hlineto
          188 31 -76 -175 15 hvcurveto
          5 -22 91 -16 13 23 rrcurveto
          30 51 14 133 57 vvcurveto
          149 -51 0 -106 vhcurveto
          -929 hlineto
          hintmask 0101110110000000
          12 -56 -60 7 -61 hhcurveto
          hintmask 1001110110000000
          -396 -384 -300 -539 hvcurveto
          hintmask 0011110110000000
          252 52 rmoveto
          382 155 255 365 88 82 -14 -28 69 vhcurveto
          13 -17 8 -24 -36 vvcurveto
          -1013 vlineto
          -22 -2 -19 -4 -16 vhcurveto
          -70 -81 -103 5 -105 hhcurveto
          -345 -140 282 335 hvcurveto
          endchar
        </CharString>
        <CharString name="Oacute">
          -27 callgsubr
          101 313 63 callgsubr
          318 527 127 253 hintmask 11010100
          -100 callgsubr
          hintmask 00101000
          372 893 -96 callsubr
        </CharString>
        <CharString name="Obreve">
          -27 callgsubr
          76 173 63 callgsubr
          123 732 117 253 hintmask 11010100
          -100 callgsubr
          hintmask 00101000
          480 868 -84 callgsubr
        </CharString>
        <CharString name="Ocircumflex">
          -27 callgsubr
          235 -21 63 callgsubr
          138 710 124 253 hintmask 11010100
          -100 callgsubr
          hintmask 00101000
          191 849 -105 callsubr
        </CharString>
        <CharString name="Odieresis">
          -27 callgsubr
          90 316 63 callgsubr
          80 47 callsubr
          49 253 hintmask 11010010
          -100 callgsubr
          hintmask 00101100
          752 882 -82 callgsubr
        </CharString>
        <CharString name="Ograve">
          -27 callgsubr
          101 313 63 callgsubr
          179 526 267 253 hintmask 11010100
          -100 callgsubr
          hintmask 00101000
          652 893 -71 callgsubr
        </CharString>
        <CharString name="Ohungarumlaut">
          -27 callgsubr
          14 402 63 callgsubr
          168 886 -82 253 hintmask 11010100
          -100 callgsubr
          hintmask 00101000
          662 823 -61 callsubr
        </CharString>
        <CharString name="Omacron">
          -27 callgsubr
          178 159 63 callgsubr
          92 812 68 253 hintmask 11010100
          -100 callgsubr
          hintmask 00101000
          100 970 rmoveto
          729 hlineto
          60 32 109 50 -55 callgsubr
        </CharString>
        <CharString name="Omega">
          497 0 120 -120 164 1248 140 hstemhm
          203 253 939 253 hintmask 00000000
          hintmask 01111000
          62 186 rmoveto
          -98 48 -88 124 vhcurveto
          543 hlineto
          14 12 27 52 -2 56 rrcurveto
          -2 hlineto
          -142 126 -216 283 375 vvcurveto
          277 162 231 269 322 186 -221 -287 vhcurveto
          hintmask 10111000
          -395 -211 -253 -160 -136 vhcurveto
          -2 hlineto
          hintmask 01111000
          -1 -56 27 -52 14 -12 rrcurveto
          546 hlineto
          100 46 88 98 8 hvcurveto
          1 41 1 81 -8 36 rrcurveto
          23 -13 -21 5 -19 hhcurveto
          -11 -23 -2 -3 -12 hvcurveto
          -31 -189 -153 -12 -258 -2 rrcurveto
          227 173 206 282 314 vvcurveto
          359 -300 260 -404 -405 -336 -279 -359 -308 170 -291 237 -151 vhcurveto
          -243 3 -161 15 -9 185 rrcurveto
          3 -12 -22 2 -12 hhcurveto
          -18 -22 -5 -23 -15 hvcurveto
          -27 -36 -7 -81 -41 vvcurveto
          endchar
        </CharString>
        <CharString name="Oslash">
          343 -114 44 51 158 1258 155 42 44 90 callgsubr
          281 -70 rmoveto
          28 -48 83 -14 33 44 80 133 rcurveline
          -42 93 106 -22 113 hhcurveto
          392 380 313 525 260 -100 203 -161 125 hvcurveto
          113 187 -40 55 -74 2 -28 -38 rlinecurve
          -82 -136 rlineto
          49 -99 -112 26 -122 hhcurveto
          -396 -379 -305 -539 -265 108 -207 173 -125 hvcurveto
          108 179 rmoveto
          -94 115 -40 170 185 vvcurveto
          388 147 249 334 112 90 -31 -52 71 vhcurveto
          -518 -1113 rmoveto
          613 1015 rlineto
          86 -121 37 -169 -179 vvcurveto
          -379 -162 -229 -333 -97 -79 22 40 -65 vhcurveto
          endchar
        </CharString>
        <CharString name="Otilde">
          -27 callgsubr
          94 78 callgsubr
          109 255 70 853 49 253 hintmask 11001010
          -100 callgsubr
          hintmask 00000000
          142 922 -18 callsubr
          hintmask 00010100
          -39 callgsubr
          hintmask 00100100
          -46 callgsubr
        </CharString>
        <CharString name="P">
          53 callgsubr
          -36 callgsubr
          586 247 hintmask 00000000
          hintmask 11011100
          -41 callgsubr
          hintmask 11101100
          -6 callsubr
          hintmask 11011100
          -10 -22 callsubr
          endchar
        </CharString>
        <CharString name="Q">
          357 -423 215 1604 156 hstem
          111 257 978 254 vstem
          356 -220 rmoveto
          -63 40 -23 48 vhcurveto
          40 37 37 40 115 152 253 -197 231 hhcurveto
          215 152 114 138 37 -23 41 -45 -3 hvcurveto
          -103 -82 -135 -9 -101 hhcurveto
          -108 -142 58 50 -123 hvcurveto
          385 115 338 261 538 vvcurveto
          462 -311 276 -387 -376 -415 -261 -591 -322 198 -274 312 -10 vhcurveto
          44 -1 42 10 15 14 17 18 -25 60 -28 7 rrcurveto
          -268 40 -50 300 212 vvcurveto
          443 190 199 295 379 114 -327 -330 -464 -268 -206 -559 -154 vhcurveto
          -132 -37 -31 -56 -42 vvcurveto
          endchar
        </CharString>
        <CharString name="R">
          231 -19 0 callsubr
          -36 callgsubr
          576 249 hintmask 00000000
          hintmask 01011100
          -80 callsubr
          hintmask 10011100
          -67 callsubr
          hintmask 01101100
          -63 callsubr
          hintmask 01011100
          -10 -22 callsubr
          endchar
        </CharString>
        <CharString name="Racute">
          231 -19 0 callsubr
          110 313 -36 callgsubr
          23 527 26 -75 callgsubr
          521 1576 -96 callsubr
        </CharString>
        <CharString name="Rcaron">
          231 -19 0 callsubr
          66 360 -36 callgsubr
          -146 710 12 -75 callgsubr
          653 1532 -98 callgsubr
        </CharString>
        <CharString name="Rcommaaccent">
          231 -493 -21 495 0 callsubr
          -36 callgsubr
          253 215 108 249 hintmask 00000000
          hintmask 00101101
          -80 callsubr
          hintmask 01001101
          -67 callsubr
          hintmask 00110101
          -63 callsubr
          hintmask 00101101
          -10 -22 callsubr
          hintmask 10000010
          592 -260 -99 callgsubr
        </CharString>
        <CharString name="S">
          20 callgsubr
          51 callgsubr
          573 236 -223 169 hintmask 00000000
          hintmask 11110000
          126 249 rmoveto
          -202 294 -66 212 301 261 154 267 269 -226 106 -242 112 vhcurveto
          -170 77 -171 74 159 vvcurveto
          124 99 95 189 vhcurveto
          hintmask 11101000
          212 86 -109 -198 -37 106 7 19 27 hvcurveto
          22 27 22 74 108 vvcurveto
          174 -190 61 -240 -309 -238 -148 -251 -262 193 -121 220 -93 vhcurveto
          hintmask 11110000
          198 -83 184 -92 -153 vvcurveto
          -165 -133 -67 -149 -224 -127 100 231 -17 vhcurveto
          -11 53 -90 -9 -25 -29 rrcurveto
          -34 -60 -22 -73 -81 vvcurveto
          endchar
        </CharString>
        <CharString name="Sacute">
          20 callgsubr
          101 313 51 callgsubr
          112 527 -66 -95 callgsubr
          425 1404 -96 callsubr
        </CharString>
        <CharString name="Scaron">
          20 callgsubr
          57 360 51 callgsubr
          -56 710 -81 -95 callgsubr
          558 1360 -98 callgsubr
        </CharString>
        <CharString name="Scedilla">
          -32 -501 97 -76 -21 484 134 1301 134 51 callgsubr
          82 673 -443 214 47 93 callgsubr
          hintmask 01111100
          126 249 rmoveto
          -184 242 -71 203 -11 vhcurveto
          -36 -161 rlineto
          61 callsubr
          hintmask 10111010
          68 callsubr
          hintmask 01111100
          43 callsubr
          hintmask 01111011
          -28 callgsubr
          15 95 rlineto
          273 20 225 150 248 vvcurveto
          269 -226 106 -242 112 vhcurveto
          -170 77 -171 74 159 vvcurveto
          124 99 95 189 vhcurveto
          hintmask 01111100
          212 86 -109 -198 -37 106 7 19 27 hvcurveto
          22 27 22 74 108 vvcurveto
          174 -190 61 -240 -309 -238 -148 -251 -262 193 -121 220 -93 vhcurveto
          hintmask 01111001
          198 -83 184 -92 -153 vvcurveto
          -165 -133 -67 -149 -224 -127 100 231 -17 vhcurveto
          -11 53 -90 -9 -25 -29 rrcurveto
          hintmask 01111100
          -34 -60 -22 -73 -81 vvcurveto
          endchar
        </CharString>
        <CharString name="Scircumflex">
          20 callgsubr
          235 -21 51 callgsubr
          -69 710 -68 -95 callgsubr
          243 1360 -105 callsubr
        </CharString>
        <CharString name="Scommaaccent">
          -32 -493 -21 495 136 1301 134 51 callgsubr
          247 215 111 236 -223 169 hintmask 00000000
          hintmask 01110100
          126 249 rmoveto
          -202 294 -66 212 301 261 154 267 269 -226 106 -242 112 vhcurveto
          -170 77 -171 74 159 vvcurveto
          124 99 95 189 vhcurveto
          hintmask 01110010
          212 86 -109 -198 -37 106 7 19 27 hvcurveto
          22 27 22 74 108 vvcurveto
          174 -190 61 -240 -309 -238 -148 -251 -262 193 -121 220 -93 vhcurveto
          hintmask 01110100
          198 -83 184 -92 -153 vvcurveto
          -165 -133 -67 -149 -224 -127 100 231 -17 vhcurveto
          -11 53 -90 -9 -25 -29 rrcurveto
          -34 -60 -22 -73 -81 vvcurveto
          hintmask 10001000
          401 -432 -99 callgsubr
        </CharString>
        <CharString name="T">
          170 74 callsubr
          hstemhm
          654 235 hintmask 00000000
          hintmask 11010000
          -30 callgsubr
          hintmask 10110000
          43 callgsubr
          hintmask 11010000
          -21 callsubr
          hintmask 10110000
          -51 callsubr
          hintmask 11010000
          -45 callsubr
          endchar
        </CharString>
        <CharString name="Tbar">
          170 -11 callgsubr
          624 140 505 41 callgsubr
          hintmask 00000000
          hintmask 11101000
          377 77 rmoveto
          -59 46 -18 69 vhcurveto
          572 -35 callsubr
          -111 19 80 vvcurveto
          506 234 vlineto
          60 32 90 50 -26 hvcurveto
          -300 505 120 hlineto
          289 19 -21 -298 -5 hvcurveto
          -3 12 18 -2 12 hhcurveto
          19 22 5 23 16 hvcurveto
          30 55 16 175 4 63 rrcurveto
          hintmask 11011000
          43 callgsubr
          hintmask 11101000
          -21 callsubr
          hintmask 11011000
          -51 callsubr
          hintmask 11101000
          297 29 33 22 270 hhcurveto
          130 -505 -253 hlineto
          -52 -38 -76 -64 26 hvcurveto
          317 -467 hlineto
          -125 -6 -111 -32 -61 58 callsubr
          -5 -23 -15 vvcurveto
          endchar
        </CharString>
        <CharString name="Tcaron">
          170 74 callsubr
          57 360 hstemhm
          406 710 -462 235 hintmask 00000000
          hintmask 11000100
          377 -69 callsubr
          384 1532 -98 callgsubr
        </CharString>
        <CharString name="Tcommaaccent">
          170 -493 -21 514 118 1269 41 callgsubr
          -209 215 hintmask 00000000
          hintmask 01101000
          -30 callgsubr
          hintmask 01011000
          43 callgsubr
          hintmask 01101000
          -21 callsubr
          hintmask 01011000
          -51 callsubr
          hintmask 01101000
          -45 callsubr
          hintmask 10000100
          198 -260 -99 callgsubr
        </CharString>
        <CharString name="Thorn">
          75 -11 callgsubr
          207 129 656 124 181 118 hstem
          319 236 580 245 vstem
          111 6 callgsubr
          407 -56 callsubr
          -82 16 vhcurveto
          -53 11 -13 19 80 vvcurveto
          89 91 vlineto
          554 180 244 224 158 -57 284 -541 -1 hvcurveto
          -227 -1 rlineto
          33 vlineto
          117 2 28 32 60 hhcurveto
          -79 callgsubr
          -68 vhcurveto
          -420 hlineto
          -33 -43 -3 -34 callsubr
          -12 -14 -4 -18 -20 vvcurveto
          -55 47 -6 82 -16 vhcurveto
          52 -11 43 -21 -80 vvcurveto
          -1012 vlineto
          -132 -46 -35 -63 -30 -29 81 callgsubr
          -11 -13 -4 -23 -15 vvcurveto
          444 377 rmoveto
          656 180 vlineto
          316 84 -205 -143 -186 -143 -122 -338 hvcurveto
          endchar
        </CharString>
        <CharString name="U">
          -33 callgsubr
          hstem
          200 236 820 181 vstem
          -107 callgsubr
          endchar
        </CharString>
        <CharString name="Uacute">
          -33 callgsubr
          120 313 39 callgsubr
          234 527 59 181 hintmask 11010100
          -107 callgsubr
          hintmask 00101000
          524 329 -96 callsubr
        </CharString>
        <CharString name="Ubreve">
          -33 callgsubr
          95 173 39 callgsubr
          39 732 49 181 hintmask 11010100
          -107 callgsubr
          hintmask 00101000
          632 304 -84 callgsubr
        </CharString>
        <CharString name="Ucircumflex">
          -33 callgsubr
          254 -21 39 callgsubr
          53 710 57 181 hintmask 11010100
          -107 callgsubr
          hintmask 00101000
          342 285 -105 callsubr
        </CharString>
        <CharString name="Udieresis">
          -33 callgsubr
          109 316 39 callgsubr
          -5 47 callsubr
          -18 181 hintmask 11010010
          -107 callgsubr
          hintmask 00101100
          903 318 -82 callgsubr
        </CharString>
        <CharString name="Ugrave">
          -33 callgsubr
          120 313 39 callgsubr
          94 526 200 181 hintmask 11010100
          -107 callgsubr
          hintmask 00101000
          803 329 -71 callgsubr
        </CharString>
        <CharString name="Uhungarumlaut">
          -33 callgsubr
          33 402 39 callgsubr
          83 886 -149 181 hintmask 11010100
          -107 callgsubr
          hintmask 00101000
          813 259 -61 callsubr
        </CharString>
        <CharString name="Umacron">
          -33 callgsubr
          197 159 39 callgsubr
          7 812 1 181 hintmask 11010100
          -107 callgsubr
          hintmask 00101000
          251 406 rmoveto
          729 hlineto
          60 32 109 50 -55 callgsubr
        </CharString>
        <CharString name="Uogonek">
          279 89 callgsubr
          316 178 1256 118 39 callgsubr
          259 375 -16 174 28 181 hintmask 00000000
          hintmask 11111010
          200 636 rmoveto
          -537 338 -118 279 18 18 1 1 18 vhcurveto
          -91 -72 -85 -102 -121 vvcurveto
          -134 109 -68 115 vhcurveto
          hintmask 11110110
          77 callgsubr
          hvcurveto
          -33 -34 -67 -40 -66 hhcurveto
          hintmask 11111010
          -81 -48 31 78 67 56 97 114 79 hvcurveto
          243 82 135 217 342 vvcurveto
          600 vlineto
          129 2 41 29 36 hhcurveto
          29 29 -3 -7 26 hvcurveto
          10 -43 callsubr
          18 -68 vhcurveto
          -332 -92 callgsubr
          hintmask 11110110
          -13 -14 -3 -32 callgsubr
          hintmask 11111010
          47 -11 29 -19 -80 vvcurveto
          -602 vlineto
          -391 -163 -145 -267 -189 -201 93 454 vhcurveto
          542 vlineto
          132 60 35 49 30 28 -3 -7 26 vhcurveto
          10 -43 callsubr
          19 -68 vhcurveto
          -388 -70 callsubr
          -4 -32 callgsubr
          39 -8 7 -17 1 -58 rrcurveto
          endchar
        </CharString>
        <CharString name="Uring">
          -33 callgsubr
          -49 113 259 103 39 callgsubr
          111 48 callgsubr
          108 181 hintmask 11001001
          -107 callgsubr
          hintmask 00110110
          648 160 -50 callgsubr
        </CharString>
        <CharString name="Utilde">
          -33 callgsubr
          70 callgsubr
          200 236 -15 853 -18 181 hintmask 11001010
          -107 callgsubr
          hintmask 00000000
          293 358 -18 callsubr
          hintmask 00010100
          -39 callgsubr
          hintmask 00100100
          -46 callgsubr
        </CharString>
        <CharString name="V">
          199 2 -21 1434 118 hstem
          -7 1568 vstem
          670 9 rmoveto
          -27 11 25 -1 24 hhcurveto
          108 76 76 111 39 hvcurveto
          381 1036 rlineto
          123 45 32 88 63 hhcurveto
          15 33 0 -10 23 hvcurveto
          11 -45 callgsubr
          52 -41 25 -93 vhcurveto
          -347 -92 callgsubr
          -9 -17 -1 -21 -9 vvcurveto
          2 -61 44 -9 82 -17 rrcurveto
          36 -7 48 -14 -51 vvcurveto
          -11 -2 -12 -4 -15 vhcurveto
          -371 -1061 -359 988 rlineto
          -10 27 -18 47 19 vvcurveto
          81 62 17 56 28 35 0 -10 24 vhcurveto
          10 -45 callgsubr
          74 -68 3 -69 vhcurveto
          -414 hlineto
          -33 -23 -64 callgsubr
          -12 -19 -4 -16 -12 vvcurveto
          -54 30 -3 62 -21 vhcurveto
          60 -19 10 -79 22 -54 rrcurveto
          endchar
        </CharString>
        <CharString name="W">
          -7 callgsubr
          hstemhm
          1 2359 92 callsubr
          589 -13 rmoveto
          -6 12 15 0 33 hhcurveto
          68 107 63 124 51 hvcurveto
          64 154 113 308 114 284 31 -100 rcurveline
          320 -827 rlineto
          -6 20 21 0 19 hhcurveto
          64 118 61 126 43 hvcurveto
          71 215 156 448 109 373 rrcurveto
          97 29 47 114 60 hhcurveto
          29 16 -3 -7 25 hvcurveto
          11 -45 callgsubr
          54 -46 23 -68 vhcurveto
          -374 -31 callsubr
          52 -11 39 -37 -19 -81 rrcurveto
          hintmask 10110000
          -61 -259 -146 -499 -98 -287 -388 1100 rcurveline
          -73 4 -75 -34 -19 -58 -88 -250 -159 -482 -118 -280 -294 1016 rcurveline
          -7 25 -3 22 21 vvcurveto
          79 58 19 63 30 28 -3 -7 25 vhcurveto
          11 -45 callgsubr
          57 -46 20 -68 vhcurveto
          -418 hlineto
          -33 -42 -14 callgsubr
          -11 -12 callsubr
          50 -3 50 -14 vhcurveto
          46 -14 14 -76 21 -60 rrcurveto
          endchar
        </CharString>
        <CharString name="Wacute">
          -7 callgsubr
          25 callgsubr
          1 2359 -1347 527 -102 callsubr
          hintmask 00010100
          885 389 -96 callsubr
        </CharString>
        <CharString name="Wcircumflex">
          -7 callgsubr
          254 -21 hstemhm
          1 2359 -1527 710 -102 callsubr
          hintmask 00010100
          704 345 -105 callsubr
        </CharString>
        <CharString name="Wdieresis">
          -7 callgsubr
          109 316 hstemhm
          1 2359 -1586 47 callsubr
          -102 callsubr
          hintmask 00010110
          1264 378 -82 callgsubr
        </CharString>
        <CharString name="Wgrave">
          -7 callgsubr
          25 callgsubr
          1 2359 -1487 526 -102 callsubr
          hintmask 00010100
          1164 389 -71 callgsubr
        </CharString>
        <CharString name="X">
          229 -11 callgsubr
          -118 121 1295 117 hstemhm
          0 1600 hintmask 00000000
          hintmask 10110000
          83 vmoveto
          -69 56 -14 69 vhcurveto
          425 64 callsubr
          -56 -1 -67 17 vhcurveto
          -37 6 -38 11 32 vvcurveto
          14 7 18 19 23 vhcurveto
          279 384 284 -380 rlineto
          25 -34 18 -35 -15 vvcurveto
          -29 -23 -1 -36 -1 vhcurveto
          -27 -47 6 6 -23 hvcurveto
          -11 -12 -5 -24 -13 vvcurveto
          -70 55 -11 69 vhcurveto
          436 64 callsubr
          -52 0 -75 21 vhcurveto
          -44 13 -56 64 -39 45 -415 515 rcurveline
          341 454 rlineto
          90 68 97 103 66 hhcurveto
          14 33 0 -9 24 hvcurveto
          9 11 4 27 14 vvcurveto
          70 -68 6 -68 vhcurveto
          -388 hlineto
          -33 -42 0 6 -23 hvcurveto
          -13 -17 -3 -16 -17 vvcurveto
          -58 35 -7 68 -14 vhcurveto
          40 -11 50 -4 -52 vvcurveto
          -18 -11 -20 -19 -28 vhcurveto
          -273 -391 -299 415 rlineto
          -26 35 -12 23 15 vvcurveto
          29 38 13 40 28 46 -5 -6 23 vhcurveto
          11 11 5 27 14 vvcurveto
          70 -66 6 -69 vhcurveto
          -431 hlineto
          -33 -42 0 7 -24 hvcurveto
          -12 -17 -3 -16 -17 vvcurveto
          -65 47 -2 75 -21 vhcurveto
          45 -14 45 -62 40 -44 428 -547 rcurveline
          -368 -459 rlineto
          hintmask 01110000
          -113 -86 -62 -42 -79 hhcurveto
          -14 -33 0 9 -23 hvcurveto
          hintmask 10110000
          -11 -11 -5 -22 -14 vvcurveto
          endchar
        </CharString>
        <CharString name="Y">
          13 callsubr
          hstem
          637 236 vstem
          -106 callsubr
          endchar
        </CharString>
        <CharString name="Yacute">
          13 callsubr
          25 callgsubr
          585 527 -475 236 hintmask 11001000
          -106 callsubr
          hintmask 00110000
          239 1578 -96 callsubr
        </CharString>
        <CharString name="Ycircumflex">
          13 callsubr
          254 -21 hstemhm
          405 710 -478 236 hintmask 11001000
          -106 callsubr
          hintmask 00110000
          58 1534 -105 callsubr
        </CharString>
        <CharString name="Ydieresis">
          13 callsubr
          109 316 hstemhm
          347 325 -35 236 -9 326 hintmask 11001000
          -106 callsubr
          hintmask 00110100
          619 1567 -82 callgsubr
        </CharString>
        <CharString name="Ygrave">
          13 callsubr
          25 callgsubr
          446 526 -335 236 hintmask 11001000
          -106 callsubr
          hintmask 00110000
          519 1578 -71 callgsubr
        </CharString>
        <CharString name="Z">
          36 callsubr
          hstem
          88 1218 vstem
          -89 callgsubr
          endchar
        </CharString>
        <CharString name="Zacute">
          36 callsubr
          121 313 hstemhm
          88 1218 -704 527 hintmask 11010000
          -89 callgsubr
          hintmask 00101000
          564 1520 -96 callsubr
        </CharString>
        <CharString name="Zcaron">
          36 callsubr
          77 360 hstemhm
          88 1218 -872 710 hintmask 11010000
          -89 callgsubr
          hintmask 00101000
          697 1476 -98 callgsubr
        </CharString>
        <CharString name="Zdotaccent">
          36 callsubr
          107 317 hstemhm
          88 1218 -689 326 hintmask 11010000
          -89 callgsubr
          hintmask 00101000
          680 1506 -77 callgsubr
        </CharString>
        <CharString name="a">
          -38 callgsubr
          -26 callgsubr
          434 219 hintmask 00000000
          hintmask 11110100
          109 314 rmoveto
          -199 141 -134 212 169 112 73 73 72 vhcurveto
          -100 15 68 -46 67 hhcurveto
          81 134 58 65 32 hvcurveto
          6 11 3 11 11 vvcurveto
          22 -27 16 -8 -2 vhcurveto
          -8 -17 -20 -13 -29 hhcurveto
          -77 -12 60 165 hvcurveto
          180 10 156 144 vvcurveto
          177 -87 185 -335 vhcurveto
          hintmask 11101100
          -248 -201 -75 -166 40 callsubr
          69 56 154 hhcurveto
          148 41 -82 -169 -50 0 -49 -1 -50 hvcurveto
          -125 hlineto
          hintmask 11110100
          -90 callsubr
          endchar
        </CharString>
        <CharString name="aacute">
          -38 callgsubr
          128 421 -26 callgsubr
          113 552 -231 -103 callsubr
          226 1014 -93 callsubr
        </CharString>
        <CharString name="abreve">
          -38 callgsubr
          139 175 -26 callgsubr
          -149 759 -176 -103 callsubr
          263 1025 -86 callgsubr
          endchar
        </CharString>
        <CharString name="acircumflex">
          -38 callgsubr
          132 418 -26 callgsubr
          -103 679 -142 -103 callsubr
          1 1018 -104 callgsubr
          endchar
        </CharString>
        <CharString name="acute">
          -772 1347 421 hstem
          143 552 vstem
          219 1347 -93 callsubr
        </CharString>
        <CharString name="acute.cap">
          -772 1653 313 hstem
          212 527 vstem
          266 1653 -96 callsubr
        </CharString>
        <CharString name="adieresis">
          -38 callgsubr
          182 316 -26 callgsubr
          -191 38 callsubr
          -208 219 1 callsubr
          hintmask 1110100010000000
          109 314 rmoveto
          -199 141 -134 212 169 112 73 73 72 vhcurveto
          -100 15 68 -46 67 hhcurveto
          81 134 58 65 32 hvcurveto
          6 11 3 11 11 vvcurveto
          22 -27 16 -8 -2 vhcurveto
          -8 -17 -20 -13 -29 hhcurveto
          -77 -12 60 165 hvcurveto
          180 10 156 144 vvcurveto
          177 -87 185 -335 vhcurveto
          hintmask 1110010010000000
          -248 -201 -75 -166 40 callsubr
          69 56 154 hhcurveto
          148 41 -82 -169 -50 0 -49 -1 -50 hvcurveto
          -125 hlineto
          hintmask 1110100010000000
          -90 callsubr
          hintmask 0001001100000000
          508 1068 -82 callsubr
        </CharString>
        <CharString name="ae">
          566 32 callsubr
          hstemhm
          109 91 callgsubr
          532 238 1 callsubr
          hintmask 0110011011000000
          109 314 rmoveto
          -199 141 -134 212 233 146 118 80 74 vhcurveto
          -127 87 141 -71 185 hhcurveto
          270 172 160 49 33 -37 33 -10 1 hvcurveto
          -31 -49 -120 -58 -177 hhcurveto
          -163 -164 91 291 -17 hvcurveto
          hintmask 0101010111000000
          -36 callsubr
          hintmask 0110011011000000
          69 callgsubr
          hintmask 1001101011000000
          4 callsubr
          hintmask 1010011011000000
          23 callsubr
          hintmask 1001101011000000
          -134 -75 68 109 hvcurveto
          endchar
        </CharString>
        <CharString name="aeacute">
          572 32 callsubr
          30 callsubr
          116 91 callgsubr
          -135 552 115 238 1 callsubr
          hintmask 0110010101010000
          116 314 rmoveto
          -199 141 -134 212 233 146 118 80 74 vhcurveto
          -127 87 141 -71 185 hhcurveto
          270 172 160 49 33 -37 33 -10 1 hvcurveto
          -31 -49 -120 -58 -177 hhcurveto
          -163 -164 91 291 -17 hvcurveto
          hintmask 0101010011010000
          -36 callsubr
          hintmask 0110010101010000
          69 callgsubr
          hintmask 1001100101010000
          4 callsubr
          hintmask 1010010101010000
          23 callsubr
          hintmask 1001100101010000
          -134 -75 68 109 hvcurveto
          hintmask 0000001000100000
          633 1010 -93 callsubr
        </CharString>
        <CharString name="agrave">
          -38 callgsubr
          128 421 -26 callgsubr
          -207 553 88 -103 callsubr
          306 1014 -71 callsubr
        </CharString>
        <CharString name="amacron">
          -38 callgsubr
          237 159 -26 callgsubr
          -170 812 -208 -103 callsubr
          -125 1123 rmoveto
          729 hlineto
          60 32 110 49 -55 callgsubr
        </CharString>
        <CharString name="ampersand">
          358 -21 199 -197 168 1231 161 hstemhm
          117 235 -68 195 387 195 hintmask 00000000
          hintmask 01110100
          117 404 rmoveto
          -289 273 -134 234 219 184 79 110 144 vhcurveto
          106 -76 rlineto
          -58 82 74 -57 89 hhcurveto
          114 111 121 81 hvcurveto
          hintmask 10101100
          18 -34 23 -16 -5 vhcurveto
          -6 -19 -29 -33 -53 hhcurveto
          -42 -62 21 57 -80 hvcurveto
          -26 19 -28 21 -30 21 rrcurveto
          141 162 74 182 103 vvcurveto
          114 -71 32 -83 -22 -24 -2 -4 -22 vhcurveto
          -18 -180 -51 -161 -81 -127 rrcurveto
          -318 244 -374 320 213 vvcurveto
          131 99 36 84 120 72 -63 -98 12 vhcurveto
          -23 vlineto
          -24 -2 -25 -5 -23 vhcurveto
          -11 13 16 -6 14 hhcurveto
          14 14 4 4 12 hvcurveto
          61 26 58 53 103 vvcurveto
          169 -172 75 -182 -210 -213 -150 -248 -97 48 -103 76 -104 vhcurveto
          hintmask 01110100
          -147 -80 -144 -143 -212 vvcurveto
          235 68 rmoveto
          109 60 87 86 62 vhcurveto
          146 -161 200 -159 184 -137 rrcurveto
          -79 -98 -120 -45 -139 hhcurveto
          -169 -150 107 216 hvcurveto
          endchar
        </CharString>
        <CharString name="aogonek">
          -107 89 callgsubr
          316 179 -151 -21 556 130 400 145 -26 callgsubr
          323 194 -83 219 1 callsubr
          hintmask 1101110010000000
          109 314 rmoveto
          -199 141 -134 212 169 112 73 73 72 vhcurveto
          hintmask 1011110010000000
          11 -78 44 -45 50 -16 rrcurveto
          hintmask 1101110100000000
          -107 -65 -112 -98 -137 vvcurveto
          -134 104 -68 110 77 callgsubr
          vhcurveto
          -33 -33 -67 -40 -67 hhcurveto
          -75 -44 31 72 94 129 103 126 75 hvcurveto
          -2 1 29 18 24 22 11 23 rlinecurve
          6 11 3 11 11 vvcurveto
          22 -27 16 -8 -2 vhcurveto
          hintmask 1101101010000000
          -8 -17 -20 -13 -29 hhcurveto
          -77 -12 60 165 hvcurveto
          180 10 156 144 vvcurveto
          177 -87 185 -335 -248 -201 -75 -166 -35 callgsubr
          vhcurveto
          -2 24 0 39 9 31 rrcurveto
          69 19 69 56 154 hhcurveto
          148 41 -82 -169 -50 0 -49 -1 -50 hvcurveto
          -125 hlineto
          hintmask 1101110010000000
          -90 callsubr
          endchar
        </CharString>
        <CharString name="approxequal">
          -162 277 199 -59 202 -14 -20 103 64 callgsubr
          hintmask 00001010
          183 701 66 callgsubr
          hintmask 00010110
          -10 callsubr
          hintmask 00001010
          26 callsubr
          hintmask 00000000
          -411 vmoveto
          68 44 63 59 88 160 67 -140 161 hhcurveto
          hintmask 01000010
          -10 callsubr
          hintmask 10100010
          26 callsubr
          endchar
        </CharString>
        <CharString name="aring">
          -38 callgsubr
          122 111 298 104 -26 callgsubr
          -71 48 callgsubr
          -96 219 1 callsubr
          hintmask 1110010001000000
          109 314 rmoveto
          -199 141 -134 212 169 112 73 73 72 vhcurveto
          -100 15 68 -46 67 hhcurveto
          81 134 58 65 32 hvcurveto
          6 11 3 11 11 vvcurveto
          22 -27 16 -8 -2 vhcurveto
          -8 -17 -20 -13 -29 hhcurveto
          -77 -12 60 165 hvcurveto
          180 10 156 144 vvcurveto
          177 -87 185 -335 vhcurveto
          hintmask 1110001001000000
          -248 -201 -75 -166 40 callsubr
          69 56 154 hhcurveto
          148 41 -82 -169 -50 0 -49 -1 -50 hvcurveto
          -125 hlineto
          hintmask 1110010001000000
          -90 callsubr
          hintmask 0001100110000000
          267 1008 -51 callgsubr
        </CharString>
        <CharString name="asciicircum">
          302 1534 -20 hstem
          268 1125 vstem
          268 447 rmoveto
          -42 49 -25 79 24 18 17 40 24 vhcurveto
          375 872 357 -879 rlineto
          -35 19 18 -14 17 hhcurveto
          104 41 18 39 13 -7 13 -8 18 hvcurveto
          -415 983 rlineto
          43 -18 -57 26 -61 hhcurveto
          -61 -40 -23 -46 -21 hvcurveto
          -427 -983 rlineto
          -5 -13 -5 -11 -11 vvcurveto
          endchar
        </CharString>
        <CharString name="asciitilde">
          -162 889 64 callgsubr
          hintmask 01010000
          183 902 66 callgsubr
          hintmask 10110000
          -10 callsubr
          hintmask 01010000
          26 callsubr
          endchar
        </CharString>
        <CharString name="asterisk">
          -64 1528 -20 22 -20 hstemhm
          151 988 -617 259 hintmask 00000000
          hintmask 01100000
          330 1046 rmoveto
          66 -53 72 15 30 41 9 12 5 8 7 14 41 97 38 95 48 83 49 -83 35 -95 41 -97 7 -14 5 -8 9 -12 31 -41 71 -15 66 53 53 41 20 75 -39 50 rrcurveto
          -4 5 -17 14 -6 5 -92 72 -68 46 -73 72 92 21 103 2 106 8 rrcurveto
          15 11 4 6 14 hvcurveto
          46 15 37 65 -30 78 -21 63 -64 43 -59 -21 -8 -4 -18 -10 -6 -4 rrcurveto
          hintmask 10010000
          -96 -67 -67 -50 -91 -47 15 96 34 96 28 103 rrcurveto
          5 13 1 12 14 vvcurveto
          50 -47 57 -83 -68 -61 -45 -63 -7 2 -21 3 -8 vhcurveto
          hintmask 01010000
          29 -113 22 -80 13 -102 -90 45 -66 50 -96 67 -32 18 rcurveline
          -60 21 -64 -43 -21 -63 -30 -78 37 -65 46 -15 rrcurveto
          -6 14 12 -4 14 hhcurveto
          106 -8 103 -2 92 -21 -73 -72 -68 -46 -92 -72 -6 -5 -17 -14 -4 -5 rrcurveto
          hintmask 01100000
          -39 -50 20 -75 53 -41 rrcurveto
          endchar
        </CharString>
        <CharString name="at">
          1079 -498 146 342 192 -191 163 903 162 307 142 hstemhm
          160 186 350 219 438 229 529 179 1 callsubr
          hintmask 1011111110000000
          160 430 rmoveto
          -601 383 -327 587 427 148 125 45 25 vhcurveto
          44 30 -28 62 -24 -1 -2 -1 -1 hhcurveto
          -43 -81 -114 -86 -327 hhcurveto
          -552 -284 307 504 617 469 450 570 440 286 -235 -447 -304 -174 -386 -326 -19 -18 21 106 8 hvcurveto
          10 135 52 271 20 156 18 156 26 105 70 29 -6 47 -25 36 -63 2 rrcurveto
          -42 -40 -18 -32 -38 hvcurveto
          27 -48 -69 24 -85 hhcurveto
          -356 -310 -354 -401 hvcurveto
          hintmask 1101111110000000
          -337 172 -137 150 142 119 112 90 74 vhcurveto
          hintmask 1011111110000000
          -112 1 51 -89 113 hhcurveto
          196 576 142 724 381 -192 430 -673 -554 -711 -403 -835 hvcurveto
          hintmask 1101111110000000
          755 58 rmoveto
          245 117 324 288 79 49 -31 -38 29 vhcurveto
          -100 -616 rlineto
          -87 -59 -98 -103 -100 hhcurveto
          -143 -62 115 191 hvcurveto
          endchar
        </CharString>
        <CharString name="atilde">
          -38 callgsubr
          168 79 callgsubr
          109 232 -196 909 -884 208 434 219 1 callsubr
          hintmask 1110010010000000
          109 314 rmoveto
          -199 141 -134 212 169 112 73 73 72 vhcurveto
          -100 15 68 -46 67 hhcurveto
          81 134 58 65 32 hvcurveto
          6 11 3 11 11 vvcurveto
          22 -27 16 -8 -2 vhcurveto
          -8 -17 -20 -13 -29 hhcurveto
          -77 -12 60 165 hvcurveto
          180 10 156 144 vvcurveto
          177 -87 185 -335 vhcurveto
          hintmask 1110000110000000
          -248 -201 -75 -166 40 callsubr
          69 56 154 hhcurveto
          148 41 -82 -169 -50 0 -49 -1 -50 hvcurveto
          -125 hlineto
          hintmask 1110010010000000
          -90 callsubr
          1 callsubr
          -135 1068 -24 callgsubr
          hintmask 0000101000000000
          -56 callgsubr
          hintmask 0001001000000000
          -26 callsubr
        </CharString>
        <CharString name="b">
          -26 -19 160 890 188 hstem
          192 223 580 227 vstem
          -54 callgsubr
          endchar
        </CharString>
        <CharString name="backslash">
          75 callsubr
          189 1814 rmoveto
          -56 26 -145 -13 13 -60 732 -1932 rcurveline
          69 -25 130 18 -12 52 rrcurveto
          endchar
        </CharString>
        <CharString name="bar">
          55 callgsubr
          -165 rmoveto
          59 callsubr
          2024 69 callsubr
          endchar
        </CharString>
        <CharString name="braceleft">
          83 callsubr
          215 7 608 -562 239 hintmask 00000000
          hintmask 11010000
          320 -15 rmoveto
          -330 343 -137 181 71 18 71 28 -5 vhcurveto
          -209 -163 131 249 hvcurveto
          hintmask 11101000
          142 49 189 90 vvcurveto
          188 -170 91 -122 38 vhcurveto
          6 vlineto
          122 38 170 91 188 90 -49 190 141 vvcurveto
          hintmask 11010000
          250 163 130 209 vhcurveto
          29 5 -18 70 -71 hhcurveto
          -181 -343 -136 -331 hvcurveto
          -161 46 -151 -138 vvcurveto
          hintmask 11101000
          -174 -180 -63 -81 -16 vhcurveto
          -10 -16 0 -67 10 -16 rrcurveto
          81 -17 180 -63 -173 vvcurveto
          hintmask 11010000
          -138 -46 -152 -161 vvcurveto
          endchar
        </CharString>
        <CharString name="braceright">
          83 callsubr
          608 -285 239 53 215 hintmask 00000000
          hintmask 11100000
          706 -15 rmoveto
          161 -46 152 138 vvcurveto
          173 180 63 81 17 vhcurveto
          hintmask 11011000
          10 16 0 67 -10 16 rrcurveto
          -81 16 -180 63 174 138 46 151 161 vvcurveto
          331 -343 136 -181 vhcurveto
          hintmask 11100000
          -71 -18 -70 -29 5 hvcurveto
          209 163 -130 -250 hvcurveto
          -141 -49 -190 -90 vvcurveto
          -188 170 -91 122 -38 vhcurveto
          -6 vlineto
          hintmask 11011000
          -122 -38 -170 -91 -188 -90 49 -189 -142 vvcurveto
          -249 -163 -131 -209 vhcurveto
          -28 -5 18 -71 71 hhcurveto
          hintmask 11100000
          181 343 137 330 hvcurveto
          endchar
        </CharString>
        <CharString name="bracketleft">
          75 callgsubr
          145 208 vstem
          145 -360 rmoveto
          -16 13 -32 32 vhcurveto
          475 hlineto
          52 18 85 64 -25 hvcurveto
          -357 2041 357 hlineto
          64 25 -18 85 -52 hhcurveto
          -475 hlineto
          -32 -13 -32 -16 hvcurveto
          endchar
        </CharString>
        <CharString name="bracketright">
          75 callgsubr
          514 208 vstem
          722 1883 rmoveto
          16 -13 32 -32 vhcurveto
          -475 hlineto
          -52 -18 -85 -1 callsubr
          357 -2041 -357 hlineto
          -64 -25 18 -85 52 hhcurveto
          475 hlineto
          32 13 32 16 hvcurveto
          endchar
        </CharString>
        <CharString name="breve">
          302 1358 175 hstem
          350 759 vstem
          725 1358 -86 callgsubr
          endchar
        </CharString>
        <CharString name="breve.cap">
          302 1628 173 hstem
          629 732 vstem
          986 1628 -84 callgsubr
        </CharString>
        <CharString name="brokenbar">
          55 callgsubr
          997 rmoveto
          -51 124 -19 64 26 vhcurveto
          861 69 callsubr
          -2025 vmoveto
          59 callsubr
          859 69 callsubr
          endchar
        </CharString>
        <CharString name="bullet">
          -526 265 527 hstem
          151 526 vstem
          413 265 rmoveto
          151 113 114 148 149 -113 116 -151 -146 -116 -116 -149 -148 116 -114 146 hvcurveto
          endchar
        </CharString>
        <CharString name="c">
          21 callsubr
          hstem
          114 230 476 225 vstem
          -90 callgsubr
          endchar
        </CharString>
        <CharString name="cacute">
          21 callsubr
          30 callsubr
          114 230 211 552 -287 225 hintmask 11010100
          -90 callgsubr
          hintmask 00101000
          517 792 -93 callsubr
        </CharString>
        <CharString name="caron">
          302 1345 418 hstem
          304 679 vstem
          540 1391 -91 callsubr
        </CharString>
        <CharString name="caron.cap">
          302 1609 360 hstem
          291 710 vstem
          646 1609 -98 callgsubr
        </CharString>
        <CharString name="caronvertical">
          -731 1147 662 hstem
          278 197 vstem
          251 1147 -72 callsubr
        </CharString>
        <CharString name="ccaron">
          21 callsubr
          128 418 hstemhm
          114 230 -10 679 -193 225 hintmask 11010100
          -90 callgsubr
          hintmask 00101000
          456 838 -91 callsubr
        </CharString>
        <CharString name="ccedilla">
          -220 -500 97 -76 -21 483 185 -164 -21 25 -21 1071 161 hstemhm
          114 230 327 214 -65 225 1 callsubr
          hintmask 0100111100000000
          509 -177 rmoveto
          76 callgsubr
          hintmask 1001011100000000
          42 callsubr
          43 callsubr
          -28 callgsubr
          14 93 rlineto
          220 16 159 161 51 vvcurveto
          33 -37 33 -11 1 vhcurveto
          hintmask 0110011010000000
          -37 -46 -128 -73 -142 hhcurveto
          -209 -131 182 249 243 82 216 220 87 73 -41 -68 14 hvcurveto
          11 -60 -6 -7 1 -28 rrcurveto
          -14 31 38 0 22 hhcurveto
          76 52 64 78 149 -159 88 -189 -274 -309 -229 -435 hvcurveto
          hintmask 0100111100000000
          -333 179 -199 253 -36 vhcurveto
          endchar
        </CharString>
        <CharString name="ccircumflex">
          21 callsubr
          132 418 hstemhm
          114 230 -5 679 -198 225 hintmask 11010100
          -90 callgsubr
          hintmask 00101000
          292 796 -104 callgsubr
          endchar
        </CharString>
        <CharString name="cdotaccent">
          21 callsubr
          72 callgsubr
          114 230 173 326 -23 225 hintmask 11010100
          -90 callgsubr
          hintmask 00101000
          558 826 -75 callsubr
          endchar
        </CharString>
        <CharString name="cedilla">
          -772 -501 97 -76 -21 277 239 hstemhm
          345 214 92 callsubr
          227 15 rmoveto
          -44 -193 rlineto
          76 callgsubr
          hintmask 10110000
          42 callsubr
          43 callsubr
          -28 callgsubr
          20 126 rlineto
          endchar
        </CharString>
        <CharString name="cent">
          -190 -18 186 -154 -21 1212 -20 34 -20 hstemhm
          114 230 179 143 -71 144 126 199 hintmask 00000000
          hintmask 01011101
          527 -7 rmoveto
          -4 -88 rlineto
          -51 75 -38 65 25 vhcurveto
          hintmask 10011101
          7 141 rlineto
          229 8 168 167 53 vvcurveto
          32 -37 33 -11 1 vhcurveto
          -37 -45 -128 -71 -143 hhcurveto
          -8 -7 0 1 -8 hvcurveto
          47 883 68 -14 51 -36 12 -53 rlinecurve
          12 -60 -5 -7 -28 vvcurveto
          -14 24 30 0 17 hhcurveto
          77 51 64 78 144 -149 87 -180 6 hvcurveto
          hintmask 01101011
          5 83 86 callsubr
          -9 -163 rlineto
          -249 -56 -228 -221 -373 vvcurveto
          hintmask 01011101
          -318 168 -195 245 -49 vhcurveto
          12 215 rmoveto
          -123 67 -72 144 180 vvcurveto
          212 67 191 172 45 vhcurveto
          endchar
        </CharString>
        <CharString name="circumflex">
          -516 1351 418 hstem
          93 679 vstem
          160 1351 -104 callgsubr
          endchar
        </CharString>
        <CharString name="circumflex.cap">
          -516 1787 -21 hstem
          74 710 vstem
          127 1609 -105 callsubr
        </CharString>
        <CharString name="colon">
          -690 2 -21 870 -21 hstemhm
          165 335 hintmask 10100000
          31 callgsubr
          hintmask 01100000
          849 vmoveto
          10 callgsubr
        </CharString>
        <CharString name="comma">
          -690 -376 695 hstem
          286 215 vstem
          165 81 -6 callgsubr
        </CharString>
        <CharString name="commaaccent">
          -694 -493 -21 hstem
          280 215 vstem
          175 -183 -99 callgsubr
        </CharString>
        <CharString name="copyright">
          1260 -493 135 370 187 890 161 347 136 hstem
          194 162 423 230 550 218 480 163 vstem
          194 619 rmoveto
          -617 498 -495 615 614 499 495 617 615 -499 499 -614 -615 -498 -499 -615 vhcurveto
          162 -3 rmoveto
          537 416 444 535 535 415 -444 -537 -535 -415 -439 -535 -535 -416 439 535 vhcurveto
          423 -30 rmoveto
          -370 239 -204 329 250 183 175 54 33 -37 33 -11 vhcurveto
          -37 -47 -136 -71 -152 hhcurveto
          -238 -150 182 249 243 96 216 254 97 80 -41 -68 16 hvcurveto
          12 -59 -5 -8 -28 vvcurveto
          -14 30 39 0 21 hhcurveto
          77 51 64 78 149 -169 88 -198 -307 -324 -229 -435 hvcurveto
          endchar
        </CharString>
        <CharString name="currency">
          -34 225 170 608 171 hstem
          187 177 595 177 vstem
          174 82 rmoveto
          218 226 rlineto
          -52 77 92 -31 100 hhcurveto
          98 92 30 51 76 hvcurveto
          221 -231 54 35 43 40 30 53 rlinecurve
          -227 221 rlineto
          55 77 33 95 103 vvcurveto
          102 -32 95 -55 77 vhcurveto
          228 222 -19 45 -52 62 -58 21 rlinecurve
          -221 -231 rlineto
          51 -76 -92 31 -98 hhcurveto
          -98 -91 -30 -52 -76 hvcurveto
          -220 231 -50 -32 -45 -42 -32 -54 rlinecurve
          225 -221 rlineto
          -55 -78 -32 -95 -102 vvcurveto
          -101 31 -93 54 -77 vhcurveto
          -226 -216 29 -65 41 -42 58 -23 rlinecurve
          487 313 rmoveto
          -164 -133 138 166 166 133 138 164 164 134 -138 -166 -166 -134 -138 -164 hvcurveto
          endchar
        </CharString>
        <CharString name="d">
          46 callsubr
          hstem
          85 callsubr
          vstem
          -85 callsubr
          endchar
        </CharString>
        <CharString name="dagger">
          -199 2 -21 1266 -20 22 -20 hstemhm
          457 255 hintmask 00000000
          hintmask 10110000
          457 74 rmoveto
          -63 59 -30 68 83 45 43 50 134 -73 788 -8 145 vhcurveto
          95 -4 119 -28 103 -26 13 -2 12 -1 15 3 rrcurveto
          hintmask 11010000
          45 7 40 42 74 vvcurveto
          63 -35 83 -72 -10 vhcurveto
          -9 -1 -20 -5 -8 -3 -111 -41 -87 -23 -100 -22 15 114 30 118 32 102 35 callgsubr
          hintmask 10110000
          29 -112 22 -110 13 -112 -100 22 -92 26 -116 38 -7 3 -21 4 -9 1 rrcurveto
          -74 11 -23 -89 -57 vvcurveto
          -74 30 -44 45 -6 vhcurveto
          16 -1 11 0 14 2 103 26 129 24 94 4 rrcurveto
          -6 -143 -61 -792 -130 vvcurveto
          endchar
        </CharString>
        <CharString name="daggerdbl">
          -199 -47 1775 hstemhm
          455 259 -190 107 hintmask 00000000
          hintmask 10100000
          179 299 rmoveto
          9 21 8 7 hhcurveto
          hintmask 11000000
          116 38 92 27 100 21 -13 -100 -22 -94 -29 -101 rrcurveto
          -3 -9 -2 -40 -7 vvcurveto
          -63 61 -26 68 83 47 38 50 14 -2 31 -4 14 vhcurveto
          -32 90 -30 103 -15 102 100 -22 87 -23 111 -41 8 -2 20 -5 9 -1 rrcurveto
          72 -11 35 83 63 vvcurveto
          74 -40 42 -45 8 vhcurveto
          -15 3 -12 -1 -13 -3 rrcurveto
          hintmask 10100000
          -103 -26 -119 -28 -95 -4 3 52 54 227 22 60 -22 60 -54 228 -3 52 95 -4 119 -28 103 -26 13 -3 12 -1 15 3 rrcurveto
          45 8 40 42 74 vvcurveto
          63 -35 83 -72 -11 vhcurveto
          -9 -1 -20 -5 -8 -2 rrcurveto
          hintmask 11000000
          -111 -41 -87 -23 -100 -22 15 102 30 103 32 90 35 callgsubr
          29 -101 22 -94 13 -100 -100 21 -92 27 -116 38 rrcurveto
          -7 -21 8 -9 hhcurveto
          -74 11 -23 -89 -58 vvcurveto
          -73 30 -44 45 -6 vhcurveto
          16 -2 11 0 14 3 rrcurveto
          hintmask 10100000
          103 25 129 25 94 4 -2 -51 -43 -227 -20 -60 20 -60 43 -226 2 -51 -94 4 -129 25 -103 25 -14 3 -11 0 -16 -2 rrcurveto
          -45 -6 -30 -44 -73 vvcurveto
          -58 23 -89 74 11 vhcurveto
          endchar
        </CharString>
        <CharString name="dcaron">
          46 callsubr
          -73 662 hstemhm
          85 callsubr
          249 197 hintmask 11011000
          -85 callsubr
          hintmask 00100100
          707 978 -72 callsubr
        </CharString>
        <CharString name="dcroat">
          46 callsubr
          81 139 hstem
          85 callsubr
          vstem
          104 545 rmoveto
          -378 216 -187 258 144 115 68 77 82 vhcurveto
          -99 13 59 -45 68 hhcurveto
          88 139 60 65 34 hvcurveto
          27 39 -43 33 -11 -3 rrcurveto
          -8 -18 -21 67 callgsubr
          -11 52 201 hvcurveto
          893 83 vlineto
          60 32 90 49 -26 hvcurveto
          -149 129 hlineto
          110 -1 -14 91 -118 hhcurveto
          3 callgsubr
          hvcurveto
          -16 -22 25 -34 22 5 rrcurveto
          4 20 21 3 16 hhcurveto
          71 18 -28 -93 hvcurveto
          -36 -148 vlineto
          -51 -38 -75 -1 callsubr
          212 -114 hlineto
          21 -58 -64 12 -68 hhcurveto
          -313 -309 -250 -424 hvcurveto
          551 -377 rmoveto
          -193 -131 127 313 293 158 157 199 98 75 -32 -43 55 hvcurveto
          -709 vlineto
          -52 -57 -95 -54 -109 hhcurveto
          endchar
        </CharString>
        <CharString name="degree">
          -205 1002 139 449 137 hstem
          189 189 393 189 vstem
          555 1002 rmoveto
          191 214 119 281 215 -170 110 -177 -205 -219 -102 -290 -192 137 -141 229 hvcurveto
          38 139 rmoveto
          -111 -104 83 166 137 78 63 109 149 57 -127 -121 -115 -63 -86 -115 hvcurveto
          endchar
        </CharString>
        <CharString name="dieresis">
          -302 1401 316 hstem
          106 38 callsubr
          vstem
          768 1401 -82 callsubr
        </CharString>
        <CharString name="dieresis.cap">
          -302 1642 316 hstem
          111 47 callsubr
          vstem
          783 1642 -82 callgsubr
        </CharString>
        <CharString name="divide">
          -177 181 317 167 185 180 316 hstem
          429 317 vstem
          585 1030 rmoveto
          92 69 68 90 90 -69 68 -92 -88 -68 -68 -90 -90 68 -68 88 hvcurveto
          -434 -365 rmoveto
          826 hlineto
          60 13 135 50 -27 hvcurveto
          -827 71 callgsubr
          278 -326 rmoveto
          -90 68 -68 88 92 69 68 90 91 -69 68 -92 -88 -68 -68 -91 vhcurveto
          endchar
        </CharString>
        <CharString name="dollar">
          -32 3 -21 25 -21 1562 -20 22 -20 51 callgsubr
          195 198 -183 141 -116 141 197 236 -223 169 1 callsubr
          hintmask 0101110010000000
          126 249 rmoveto
          hintmask 1001110010000000
          -187 251 -70 205 -10 vhcurveto
          -2 -77 rlineto
          -51 76 -38 64 25 vhcurveto
          hintmask 0101110010000000
          4 145 rlineto
          260 28 210 149 239 vvcurveto
          259 -209 108 -232 107 vhcurveto
          hintmask 0101100101000000
          17 532 rlineto
          142 -30 59 -103 -164 vvcurveto
          -37 106 7 19 27 vhcurveto
          22 27 22 74 108 vvcurveto
          158 -157 65 -208 10 vhcurveto
          hintmask 0110110010000000
          3 94 86 callsubr
          -5 -162 rlineto
          -271 -22 -199 -144 -229 vvcurveto
          -262 193 -121 220 -93 vhcurveto
          hintmask 0101101010000000
          28 -12 -17 -542 -169 25 -96 101 -14 199 rlinecurve
          -11 53 -90 -9 -25 -29 rrcurveto
          hintmask 0101110010000000
          -34 -60 -22 -73 -81 vvcurveto
          hintmask 0101100110000000
          487 692 rmoveto
          -125 62 -103 72 124 vvcurveto
          114 83 89 160 14 vhcurveto
          hintmask 0101101010000000
          101 -1296 rmoveto
          15 479 rlineto
          123 -65 91 -78 -107 vvcurveto
          -145 -103 -70 -126 -14 vhcurveto
          endchar
        </CharString>
        <CharString name="dotaccent">
          -482 1381 316 hstem
          299 326 vstem
          454 1381 -75 callsubr
          endchar
        </CharString>
        <CharString name="dotaccent.cap">
          -503 1639 317 hstem
          299 326 vstem
          454 1639 -77 callgsubr
        </CharString>
        <CharString name="dotlessi">
          -12 callgsubr
          hstem
          270 223 vstem
          -101 callgsubr
          endchar
        </CharString>
        <CharString name="dotlessj">
          90 callsubr
          hstem
          270 223 vstem
          -260 vmoveto
          61 callgsubr
          76 -77 137 213 203 184 367 vhcurveto
          -47 callgsubr
          -1010 vlineto
          -194 -65 -43 -103 -68 -28 38 43 -6 vhcurveto
          endchar
        </CharString>
        <CharString name="e">
          -42 callsubr
          hstem
          80 callsubr
          533 238 vstem
          -105 callgsubr
          endchar
        </CharString>
        <CharString name="eacute">
          32 callgsubr
          210 552 -229 238 hintmask 11101010
          -105 callgsubr
          hintmask 00010100
          280 641 -93 callsubr
        </CharString>
        <CharString name="ebreve">
          -42 callsubr
          139 175 87 callgsubr
          -38 759 -188 238 hintmask 11101010
          -105 callgsubr
          hintmask 00010100
          331 652 -86 callgsubr
          endchar
        </CharString>
        <CharString name="ecaron">
          -42 callsubr
          128 418 87 callgsubr
          3 679 -149 238 hintmask 11101010
          -105 callgsubr
          hintmask 00010100
          233 687 -91 callsubr
        </CharString>
        <CharString name="ecircumflex">
          -42 callsubr
          132 418 87 callgsubr
          -6 679 -140 238 hintmask 11101010
          -105 callgsubr
          hintmask 00010100
          55 645 -104 callgsubr
          endchar
        </CharString>
        <CharString name="edieresis">
          -42 callsubr
          182 316 87 callgsubr
          -95 38 callsubr
          -205 238 hintmask 11101001
          -105 callgsubr
          hintmask 00010110
          561 695 -82 callsubr
        </CharString>
        <CharString name="edotaccent">
          -42 callsubr
          162 316 87 callgsubr
          186 326 21 238 hintmask 11101010
          -105 callgsubr
          hintmask 00010100
          335 675 -75 callsubr
          endchar
        </CharString>
        <CharString name="egrave">
          32 callgsubr
          -111 553 91 238 hintmask 11101010
          -105 callgsubr
          hintmask 00010100
          359 641 -71 callsubr
        </CharString>
        <CharString name="eight">
          129 -19 157 1241 163 hstemhm
          184 229 -158 215 555 219 -168 222 hintmask 00000000
          hintmask 11101000
          184 412 rmoveto
          -302 276 -129 287 vhcurveto
          hintmask 11100100
          389 162 232 189 203 -92 77 -214 116 hvcurveto
          hintmask 11011000
          127 74 125 119 183 vvcurveto
          206 -198 162 -291 -236 -264 -113 -277 -166 96 -100 123 -78 vhcurveto
          hintmask 11101000
          -140 -79 -150 -150 -167 vvcurveto
          682 452 rmoveto
          hintmask 11011000
          -185 91 -211 74 159 vvcurveto
          112 88 79 184 179 104 -77 -158 vhcurveto
          hintmask 11101000
          -129 -68 -87 -91 -64 vhcurveto
          -453 -416 rmoveto
          103 84 120 93 70 vhcurveto
          119 -61 rlineto
          hintmask 11100100
          262 -138 105 -60 -122 vvcurveto
          -122 -105 -100 -202 vhcurveto
          hintmask 11101000
          -158 -198 54 256 hvcurveto
          endchar
        </CharString>
        <CharString name="ellipsis">
          639 -19 333 hstemhm
          165 335 329 335 330 334 hintmask 00000000
          hintmask 11110000
          1494 147 rmoveto
          -95 72 -71 93 97 72 71 95 95 -72 72 -97 -93 -72 -72 -95 vhcurveto
          -665 hmoveto
          -43 callgsubr
          -664 hmoveto
          10 callgsubr
        </CharString>
        <CharString name="emacron">
          -42 callsubr
          237 159 87 callgsubr
          -59 812 -220 238 hintmask 11101010
          -105 callgsubr
          hintmask 00010100
          -57 750 rmoveto
          729 hlineto
          60 32 110 49 -55 callgsubr
        </CharString>
        <CharString name="emdash">
          637 60 callsubr
          1711 vstem
          151 664 rmoveto
          1641 hlineto
          60 38 callgsubr
          -1642 33 callgsubr
        </CharString>
        <CharString name="endash">
          26 60 callsubr
          1100 vstem
          151 664 rmoveto
          1029 hlineto
          61 38 callgsubr
          -1031 33 callgsubr
        </CharString>
        <CharString name="eng">
          118 -514 173 341 2 callsubr
          hstem
          67 callsubr
          544 223 vstem
          129 -15 callgsubr
          -42 73 callgsubr
          640 vlineto
          75 75 146 81 157 hhcurveto
          92 74 -20 -176 hvcurveto
          -930 vlineto
          -194 -65 -43 -103 -67 -29 38 43 -5 vhcurveto
          61 callgsubr
          75 -77 137 214 202 184 367 vhcurveto
          860 vlineto
          238 -136 84 -184 -159 -186 -112 -85 -102 vhcurveto
          102 -3 -18 95 -95 -57 callsubr
          43 -41 11 4 rrcurveto
          6 19 15 -37 callsubr
          -654 vlineto
          -91 1 -17 -27 -55 hhcurveto
          -10 -10 -78 callgsubr
          endchar
        </CharString>
        <CharString name="eogonek">
          -145 89 callgsubr
          316 187 416 121 356 158 hstem
          80 callsubr
          219 194 120 238 vstem
          108 547 rmoveto
          -349 190 -217 322 32 31 3 4 30 vhcurveto
          -88 -75 -82 -102 -123 vvcurveto
          -134 104 -68 110 77 callgsubr
          vhcurveto
          -33 -34 -67 -40 -66 hhcurveto
          -75 -44 31 78 88 99 121 125 96 hvcurveto
          65 43 36 45 23 vvcurveto
          33 -37 33 -10 1 vhcurveto
          -31 -49 -120 -58 -177 hhcurveto
          -168 -169 97 312 -8 hvcurveto
          698 15 rlineto
          52 1 21 32 56 vvcurveto
          281 -105 257 -294 -270 -318 -222 -450 vhcurveto
          222 159 rmoveto
          207 26 103 148 178 hhcurveto
          146 81 -91 -227 -7 hvcurveto
          -162 -17 -194 -11 -171 -9 rrcurveto
          endchar
        </CharString>
        <CharString name="equal">
          -236 468 184 211 185 hstem
          140 838 vstem
          151 863 rmoveto
          768 hlineto
          60 38 callgsubr
          -769 71 callgsubr
          -395 vmoveto
          768 hlineto
          60 12 134 50 -26 hvcurveto
          -769 92 callgsubr
        </CharString>
        <CharString name="eth">
          -66 -19 163 908 160 hstem
          89 242 622 236 vstem
          89 571 rmoveto
          -305 153 -285 364 334 249 229 526 444 -194 303 -224 172 vhcurveto
          146 146 -26 64 -84 38 -47 -42 rlinecurve
          -120 -123 rlineto
          60 -113 -113 30 -94 hhcurveto
          -79 -22 -102 -7 26 hvcurveto
          64 -17 80 -22 72 -27 64 -33 rlinecurve
          -156 -148 13 -53 87 -56 56 51 rlinecurve
          129 123 130 -105 85 -144 44 -194 rlinecurve
          66 -61 -91 52 -137 hhcurveto
          -231 -304 -187 -454 hvcurveto
          525 -427 rmoveto
          -164 -119 177 256 302 146 173 178 145 88 -60 -84 55 hvcurveto
          7 -67 3 -71 -76 vvcurveto
          -364 -89 -186 -250 vhcurveto
          endchar
        </CharString>
        <CharString name="exclam">
          -690 2 -21 hstemhm
          165 335 -242 147 hintmask 00000000
          hintmask 10100000
          258 529 rmoveto
          -16 27 -8 47 43 29 7 14 1 vhcurveto
          17 227 70 907 2 52 rrcurveto
          6 -11 3 -18 -78 -200 -48 -31 -121 69 -863 2 -129 vhcurveto
          hintmask 11000000
          -93 -382 rmoveto
          10 callgsubr
        </CharString>
        <CharString name="exclamdown">
          -690 1627 21 hstemhm
          165 335 -242 147 hintmask 00000000
          258 1100 rmoveto
          -2 -129 -69 -863 -121 vvcurveto
          -31 200 -48 78 18 11 3 6 vhcurveto
          -2 52 -70 907 -17 227 rrcurveto
          14 -1 -29 7 -43 hhcurveto
          hintmask 10100000
          -47 -27 -8 -16 hvcurveto
          -93 382 rmoveto
          -95 72 84 callgsubr
          hintmask 11000000
          -93 -72 -71 -95 hvcurveto
          endchar
        </CharString>
        <CharString name="f">
          -493 41 callsubr
          428 167 hstemhm
          261 223 286 159 hintmask 00000000
          hintmask 11011100
          -48 callgsubr
          hintmask 10111100
          -36 -83 vlineto
          -52 callgsubr
          hintmask 11011100
          77 callsubr
        </CharString>
        <CharString name="ff">
          252 -11 callgsubr
          881 175 -159 158 -146 147 428 167 hstemhm
          261 223 311 146 73 223 311 146 1 callsubr
          hintmask 1010110100000000
          111 70 rmoveto
          -60 84 -65 callsubr
          815 vlineto
          530 -15 rlineto
          -785 vlineto
          -81 -3 -35 -24 -53 -62 callgsubr
          -60 85 -65 callsubr
          hintmask 1100110110000000
          794 vlineto
          -2 75 55 -1 20 hhcurveto
          149 33 54 41 23 -1 36 -11 21 hvcurveto
          -320 213 hlineto
          186 106 29 81 85 39 -67 -85 -21 56 -8 29 23 vhcurveto
          25 39 callsubr
          hintmask 1010111100000000
          -45 -530 213 vlineto
          186 107 29 80 86 38 -67 -85 -21 57 -8 29 23 vhcurveto
          24 39 callsubr
          hintmask 1001110100000000
          -45 -83 vlineto
          -52 callgsubr
          hintmask 1010110100000000
          77 callsubr
        </CharString>
        <CharString name="fi">
          87 -11 callgsubr
          904 152 45 -20 403 167 hstemhm
          261 223 507 154 -151 3 callsubr
          hintmask 11111010
          111 70 rmoveto
          -60 84 -65 callsubr
          817 vlineto
          -1 146 147 -2 60 hhcurveto
          69 hlineto
          67 21 -23 -93 hvcurveto
          -683 vlineto
          -81 -3 -35 -24 -52 71 callsubr
          -25 hvcurveto
          -10 -62 callsubr
          -60 84 -73 callsubr
          -43 73 callgsubr
          792 vlineto
          110 -3 91 -118 vhcurveto
          -87 -76 -45 -233 hhcurveto
          -216 45 hlineto
          318 200 65 101 vhcurveto
          hintmask 11111100
          140 66 -71 -85 -21 56 -4 37 23 hvcurveto
          25 20 36 47 79 vvcurveto
          108 -75 71 -238 -213 -331 -131 -464 -26 vhcurveto
          -84 hlineto
          -52 callgsubr
          hintmask 11111010
          77 callsubr
        </CharString>
        <CharString name="five">
          124 -19 164 670 158 341 210 -153 153 27 -20 hstemhm
          1054 248 hintmask 00000000
          hintmask 11100100
          173 280 rmoveto
          -174 206 -125 288 365 270 229 310 281 -197 172 -327 -99 -110 -14 -35 -102 vhcurveto
          hintmask 11010100
          44 447 rlineto
          hintmask 11100100
          -22 131 210 -35 148 hhcurveto
          79 63 8 20 31 hvcurveto
          hintmask 11001100
          35 25 10 55 39 vvcurveto
          38 -11 36 -16 16 vhcurveto
          hintmask 11100100
          -303 -23 -156 -16 -286 24 -69 6 -56 -62 -1 -41 -60 -627 rcurveline
          -7 -50 54 -38 34 -8 rrcurveto
          20 36 134 79 189 hhcurveto
          188 166 -127 -221 -215 -184 -107 -169 -267 -62 178 125 -2 hvcurveto
          -11 11 -36 6 -32 -6 rrcurveto
          -78 -15 -40 -77 -87 vvcurveto
          endchar
        </CharString>
        <CharString name="fl">
          107 41 callsubr
          440 155 hstemhm
          261 223 522 3 callsubr
          hintmask 11011100
          111 70 rmoveto
          -60 84 -65 callsubr
          803 vlineto
          -6 56 47 -6 44 hhcurveto
          149 34 54 41 23 -1 36 -12 21 hvcurveto
          -317 80 hlineto
          354 173 6 126 138 85 -60 -228 vhcurveto
          -1103 vlineto
          -81 -3 -35 -24 -52 5 callgsubr
          -4 -28 -15 vvcurveto
          -60 83 -10 70 vhcurveto
          319 hlineto
          19 24 0 -5 21 hvcurveto
          11 13 4 -21 callgsubr
          70 callsubr
          -46 16 87 vvcurveto
          1178 vlineto
          297 -184 68 -206 -243 -335 -140 -410 vhcurveto
          hintmask 10111100
          -45 -83 vlineto
          -52 callgsubr
          hintmask 11011100
          77 callsubr
        </CharString>
        <CharString name="florin">
          -173 -498 167 1173 146 566 167 hstemhm
          -81 171 931 172 hintmask 00000000
          hintmask 11111000
          -15 -202 rmoveto
          -26 -16 -37 -36 -3 -64 rrcurveto
          -109 -6 86 -71 140 hhcurveto
          211 218 155 419 38 hvcurveto
          73 752 rlineto
          -7 65 53 -7 49 hhcurveto
          148 34 54 41 23 -1 36 -11 20 hvcurveto
          -322 hlineto
          32 327 rlineto
          194 8 81 45 100 hhcurveto
          85 25 -68 -84 -4 hvcurveto
          -2 -31 83 -4 24 29 26 19 37 48 4 78 rrcurveto
          109 6 -68 71 -140 hhcurveto
          -212 -257 -154 -419 -37 hvcurveto
          -15 -160 rlineto
          -195 hlineto
          -73 -46 -54 -95 43 hvcurveto
          3 28 154 0 76 hhcurveto
          -83 -934 rlineto
          -194 -17 -61 -45 -99 hhcurveto
          -86 -26 56 67 5 hvcurveto
          1 31 -81 4 -25 -29 rrcurveto
          endchar
        </CharString>
        <CharString name="four">
          130 -11 -21 35 -21 367 171 hstemhm
          861 231 92 callsubr
          175 349 rmoveto
          686 -367 hlineto
          hintmask 10110000
          55 -34 176 33 40 vvcurveto
          328 207 vlineto
          55 48 171 -47 hhcurveto
          -263 420 hlineto
          73 -231 -74 -84 vvcurveto
          -335 -574 vlineto
          213 238 417 600 -39 140 -20 71 -136 17 -70 -1 -77 -291 -321 -528 -181 -255 rrcurveto
          hintmask 01110000
          -34 -24 64 -128 62 hhcurveto
          endchar
        </CharString>
        <CharString name="fraction">
          126 3 1445 hstem
          262 1005 vstem
          267 109 -44 callsubr
          endchar
        </CharString>
        <CharString name="g">
          -25 callsubr
          18 callsubr
          422 14 callsubr
          1 callsubr
          hintmask 1111100001000000
          97 -193 rmoveto
          -225 232 -95 253 257 360 127 310 241 -224 54 -203 8 vhcurveto
          1 -24 -31 0 -28 hhcurveto
          hintmask 1111001100000000
          -109 -125 9 83 31 15 25 23 23 hvcurveto
          -3 23 25 -2 25 hhcurveto
          281 249 171 285 60 -14 56 -26 49 hvcurveto
          hintmask 1111010010000000
          66 48 77 83 86 vvcurveto
          75 -68 45 -52 -43 -45 -13 -33 -28 vhcurveto
          20 -26 3 -49 -20 vvcurveto
          -31 -5 -32 -8 -31 vhcurveto
          64 -76 -110 38 -138 hhcurveto
          -233 -277 -142 -293 -173 98 -127 146 -57 hvcurveto
          hintmask 1111001001000000
          -67 -46 -51 -69 -85 vvcurveto
          -54 21 -39 33 -28 vhcurveto
          hintmask 1111100001000000
          -123 -67 -99 -105 -127 vvcurveto
          hintmask 1111010100000000
          526 736 rmoveto
          -136 -119 89 201 169 94 79 142 189 84 -149 -154 -156 -109 -79 -145 hvcurveto
          hintmask 1111100001000000
          -309 -698 rmoveto
          80 57 71 74 51 vhcurveto
          -18 74 83 -2 59 26 33 1 30 hhcurveto
          125 136 -28 -133 -178 -241 -35 -118 -148 -190 48 143 hvcurveto
          endchar
        </CharString>
        <CharString name="gbreve">
          -25 callsubr
          139 175 hstemhm
          97 217 -175 229 -130 759 -732 190 422 14 callsubr
          hintmask 0000100100000000
          613 1358 -86 callgsubr
          1 callsubr
          -516 -1551 rmoveto
          -225 232 -95 253 257 360 127 310 241 -224 54 -203 8 vhcurveto
          1 -24 -31 0 -28 hhcurveto
          hintmask 1111010000010000
          -109 -125 9 83 31 15 25 23 23 hvcurveto
          -3 23 25 -2 25 hhcurveto
          281 249 171 285 60 -14 56 -26 49 hvcurveto
          hintmask 1111000011000000
          66 48 77 83 86 vvcurveto
          75 -68 45 -52 -43 -45 -13 -33 -28 vhcurveto
          20 -26 3 -49 -20 vvcurveto
          -31 -5 -32 -8 -31 vhcurveto
          64 -76 -110 38 -138 hhcurveto
          -233 -277 -142 -293 -173 98 -127 146 -57 hvcurveto
          hintmask 1111001000100000
          -67 -46 -51 -69 -85 vvcurveto
          -54 21 -39 33 -28 vhcurveto
          hintmask 1111000010010000
          -123 -67 -99 -105 -127 vvcurveto
          hintmask 1111010000010000
          526 736 rmoveto
          -136 -119 89 201 169 94 79 142 189 84 -149 -154 -156 -109 -79 -145 hvcurveto
          hintmask 1111001001000000
          -309 -698 rmoveto
          80 57 71 74 51 vhcurveto
          -18 74 83 -2 59 26 33 1 30 hhcurveto
          125 136 -28 -133 -178 -241 -35 -118 -148 -190 48 143 hvcurveto
          endchar
        </CharString>
        <CharString name="gcircumflex">
          -25 callsubr
          132 418 18 callsubr
          -170 679 -87 14 callsubr
          hintmask 0000100010000000
          352 1351 -104 callgsubr
          1 callsubr
          -255 -1544 -97 callsubr
        </CharString>
        <CharString name="gcommaaccent">
          -25 callsubr
          600 21 18 callsubr
          15 215 192 14 callsubr
          hintmask 0000100010000000
          790 1509 rmoveto
          19 -3 40 -20 18 vhcurveto
          -67 -2 -15 35 55 vvcurveto
          62 28 48 22 20 vhcurveto
          27 -10 -34 9 -23 hhcurveto
          -92 -106 -143 -148 -74 42 -89 119 107 52 63 60 hvcurveto
          1 callsubr
          -693 -1702 -97 callsubr
        </CharString>
        <CharString name="gdotaccent">
          -25 callsubr
          162 316 18 callsubr
          8 326 88 14 callsubr
          hintmask 0000100010000000
          618 1381 -75 callsubr
          1 callsubr
          -521 -1574 -97 callsubr
        </CharString>
        <CharString name="germandbls">
          -26 -19 151 1466 163 hstemhm
          155 233 216 214 122 240 -108 217 hintmask 00000000
          hintmask 11111000
          155 172 rmoveto
          -132 40 -59 103 47 72 19 45 47 vhcurveto
          -26 41 -50 142 204 vvcurveto
          677 vlineto
          300 122 189 199 142 89 -63 -141 vhcurveto
          -237 -336 -44 -270 vvcurveto
          -107 46 -106 201 -122 vhcurveto
          hintmask 11110100
          148 -91 73 -51 -83 vvcurveto
          -88 -87 -63 -104 -104 -78 72 54 -50 vhcurveto
          -33 -19 -49 -67 -53 vvcurveto
          -128 188 -10 80 217 237 128 233 145 -77 79 -211 130 vhcurveto
          -142 83 -41 47 75 vvcurveto
          hintmask 11111000
          140 362 56 307 vvcurveto
          236 -191 121 -256 -272 -306 -176 -497 vhcurveto
          endchar
        </CharString>
        <CharString name="grave">
          -772 1347 421 hstem
          0 553 vstem
          476 1347 -71 callsubr
        </CharString>
        <CharString name="grave.cap">
          -772 1653 313 hstem
          -19 526 vstem
          454 1653 -71 callgsubr
        </CharString>
        <CharString name="greater">
          44 122 1184 hstem
          211 976 vstem
          1118 579 rmoveto
          43 25 26 46 61 vvcurveto
          60 -29 62 -40 24 vhcurveto
          -805 434 rlineto
          10 -18 -13 5 -13 hhcurveto
          -40 -17 -41 -104 -17 13 -27 35 -20 hvcurveto
          697 -377 -689 -394 rlineto
          -41 -23 -16 -28 -25 vvcurveto
          -78 25 -50 42 10 13 4 7 12 vhcurveto
          805 446 rlineto
          endchar
        </CharString>
        <CharString name="greaterequal">
          -128 0 184 hstem
          139 976 vstem
          1047 690 rmoveto
          43 25 25 45 62 vvcurveto
          60 -28 62 -40 23 vhcurveto
          -805 338 rlineto
          8 -18 -14 6 -12 hhcurveto
          -40 -17 -41 -103 -18 13 -27 35 -19 hvcurveto
          682 -281 -674 -297 rlineto
          -41 -23 -16 -28 -24 vvcurveto
          -79 25 -49 42 10 13 4 6 12 vhcurveto
          840 -340 rmoveto
          64 25 -19 120 -51 hhcurveto
          -886 hlineto
          -49 -26 13 -135 60 hhcurveto
          endchar
        </CharString>
        <CharString name="guillemotleft">
          873 6 -21 hstemhm
          179 908 -3 908 hintmask 11000000
          248 442 rmoveto
          -60 callsubr
          hintmask 10100000
          905 hmoveto
          -60 callsubr
          endchar
        </CharString>
        <CharString name="guillemotright">
          873 1156 21 hstemhm
          235 908 -3 908 hintmask 10100000
          1979 720 rmoveto
          -59 callgsubr
          hintmask 11000000
          -905 hmoveto
          -59 callgsubr
          endchar
        </CharString>
        <CharString name="guilsinglleft">
          -32 6 -21 hstem
          179 908 vstem
          248 442 rmoveto
          -60 callsubr
          endchar
        </CharString>
        <CharString name="guilsinglright">
          -32 1156 21 hstem
          235 908 vstem
          1074 720 rmoveto
          -59 callgsubr
          endchar
        </CharString>
        <CharString name="h">
          107 6 callsubr
          377 173 hstem
          244 224 543 223 vstem
          -81 callsubr
          545 47 callgsubr
          -117 -58 -67 -50 vhcurveto
          -16 28 callgsubr
          8 -1 16 hhcurveto
          71 17 -28 -93 hvcurveto
          -1239 vlineto
          -91 1 -16 -27 -55 hhcurveto
          -10 -70 callgsubr
          endchar
        </CharString>
        <CharString name="hbar">
          107 6 callsubr
          63 140 174 173 hstem
          244 224 543 223 vstem
          -81 callsubr
          259 119 vlineto
          60 32 91 49 -26 hvcurveto
          -185 146 hlineto
          -7 callsubr
          -88 -117 -58 -67 -50 vhcurveto
          -16 28 callgsubr
          8 -1 16 hhcurveto
          71 17 -28 -93 hvcurveto
          -53 -131 vlineto
          -52 -38 -76 -1 callsubr
          196 -1046 hlineto
          -91 1 -16 -27 -55 hhcurveto
          -10 -70 callgsubr
          endchar
        </CharString>
        <CharString name="hcircumflex">
          107 6 callsubr
          100 418 -141 173 hstemhm
          244 224 75 679 -211 223 hintmask 11011010
          -81 callsubr
          545 47 callgsubr
          -117 -58 -67 -50 vhcurveto
          -16 28 callgsubr
          8 -1 16 hhcurveto
          71 17 -28 -93 hvcurveto
          -1239 vlineto
          -91 1 -16 -27 -55 hhcurveto
          -10 -70 callgsubr
          hintmask 00100100
          497 1249 -104 callgsubr
          endchar
        </CharString>
        <CharString name="hungarumlaut">
          -190 1347 429 hstem
          247 846 vstem
          699 1347 -53 callgsubr
        </CharString>
        <CharString name="hungarumlaut.cap">
          -190 1566 402 hstem
          212 886 vstem
          706 1583 -61 callsubr
        </CharString>
        <CharString name="hyphen">
          -352 60 callsubr
          721 vstem
          151 664 rmoveto
          651 hlineto
          60 13 135 50 -26 hvcurveto
          -653 33 callgsubr
        </CharString>
        <CharString name="i">
          -12 callgsubr
          206 316 hstemhm
          178 326 -234 3 callsubr
          hintmask 11110000
          -11 callsubr
          hintmask 11001000
          -59 callsubr
          hintmask 11110000
          -58 callsubr
          endchar
        </CharString>
        <CharString name="iacute">
          -12 callgsubr
          51 callsubr
          226 552 -508 223 hintmask 11001000
          -101 callgsubr
          hintmask 00110000
          183 1277 -93 callsubr
        </CharString>
        <CharString name="ibreve">
          -12 callgsubr
          159 175 hstemhm
          -36 759 -453 223 hintmask 11001000
          -101 callgsubr
          hintmask 00110000
          220 1288 -86 callgsubr
          endchar
        </CharString>
        <CharString name="icircumflex">
          -12 callgsubr
          152 418 hstemhm
          11 679 -420 223 hintmask 11001000
          -101 callgsubr
          hintmask 00110000
          -41 1281 -104 callgsubr
          endchar
        </CharString>
        <CharString name="idieresis">
          -12 callgsubr
          202 316 hstemhm
          -78 326 22 223 -64 326 hintmask 11001000
          -101 callgsubr
          hintmask 00110100
          465 1331 -82 callsubr
        </CharString>
        <CharString name="igrave">
          -12 callgsubr
          51 callsubr
          -94 553 -189 223 hintmask 11001000
          -101 callgsubr
          hintmask 00110000
          263 1277 -71 callsubr
        </CharString>
        <CharString name="ij">
          80 -514 182 332 118 1101 -20 206 316 hstemhm
          178 326 -234 223 88 639 -233 3 callsubr
          hintmask 01111000
          -11 callsubr
          hintmask 01100100
          -59 callsubr
          hintmask 01111000
          -58 callsubr
          hintmask 00000000
          931 1335 8 callgsubr
          hintmask 10110010
          209 198 184 367 hvcurveto
          -47 callgsubr
          -1014 vlineto
          -186 -61 -38 -97 vhcurveto
          hintmask 10100001
          -68 -28 39 43 -6 hvcurveto
          endchar
        </CharString>
        <CharString name="imacron">
          -12 callgsubr
          257 159 hstemhm
          -57 812 -485 223 hintmask 11001000
          -101 callgsubr
          hintmask 00110000
          -168 1386 rmoveto
          729 hlineto
          60 32 110 49 -55 callgsubr
        </CharString>
        <CharString name="infinity">
          457 120 191 595 203 -196 196 hstemhm
          71 137 1395 136 hintmask 00000000
          hintmask 11011000
          485 120 rmoveto
          201 146 132 125 82 hvcurveto
          -142 88 110 -115 185 hhcurveto
          303 139 293 215 289 -180 192 -237 -218 -121 -142 -141 -71 hvcurveto
          hintmask 10111000
          195 -119 -90 88 -192 hhcurveto
          -205 -235 -159 -359 hvcurveto
          hintmask 11011000
          -253 158 -218 256 vhcurveto
          26 191 rmoveto
          -227 -76 182 138 hvcurveto
          hintmask 10111000
          181 106 101 135 135 102 -102 -249 128 vhcurveto
          12 -25 13 -24 13 -25 rrcurveto
          hintmask 11011000
          -89 -67 -110 -88 -164 hhcurveto
          476 384 rmoveto
          121 81 111 90 139 hhcurveto
          150 135 -114 -181 -199 -135 -101 -103 -192 -89 203 181 -97 hvcurveto
          endchar
        </CharString>
        <CharString name="integral">
          -266 -498 167 1933 167 hstem
          -126 731 292 165 vstem
          39 -178 rmoveto
          31 -83 3 -22 -29 vhcurveto
          -25 -19 -35 -48 -78 vvcurveto
          -109 100 -71 139 184 240 155 419 17 vhcurveto
          51 1288 rlineto
          194 78 44 100 85 29 -67 -85 -31 83 -4 22 29 vhcurveto
          25 20 35 47 79 vvcurveto
          108 -71 71 -139 -213 -240 -154 -419 -17 vhcurveto
          -51 -1288 rlineto
          -194 -8 -70 -45 -100 hhcurveto
          -86 -28 68 85 hvcurveto
          endchar
        </CharString>
        <CharString name="iogonek">
          -637 89 callgsubr
          335 118 -102 -21 1224 -20 206 316 hstemhm
          129 375 -326 145 -53 3 callsubr
          hintmask 10111010
          334 1405 rmoveto
          hintmask 10111100
          94 76 68 92 95 -61 61 -94 hvcurveto
          hintmask 10111010
          -90 -81 29 callgsubr
          90 hvcurveto
          hintmask 11011100
          -215 -1335 rmoveto
          -60 85 -10 69 vhcurveto
          32 hlineto
          -90 -79 -86 -107 -126 vvcurveto
          -47 callsubr
          hintmask 11011010
          50 callsubr
          147 -81 callgsubr
          hintmask 11011001
          -59 callsubr
          hintmask 11011100
          -58 callsubr
          endchar
        </CharString>
        <CharString name="itilde">
          -12 callgsubr
          188 79 callgsubr
          -120 909 -519 223 hintmask 11000100
          -101 callgsubr
          hintmask 00000000
          -178 1331 -24 callgsubr
          hintmask 00011000
          -56 callgsubr
          hintmask 00101000
          -26 callsubr
        </CharString>
        <CharString name="j">
          -637 -514 182 1551 -20 206 316 hstemhm
          -136 639 -233 3 callsubr
          hintmask 11110000
          333 1405 8 callgsubr
          hintmask 11001000
          209 198 184 367 hvcurveto
          -47 callgsubr
          -1014 vlineto
          -186 -61 -38 -97 vhcurveto
          hintmask 11110000
          -68 -28 39 43 -6 hvcurveto
          endchar
        </CharString>
        <CharString name="jcircumflex">
          90 callsubr
          152 418 hstemhm
          16 679 -425 223 hintmask 11001000
          -260 vmoveto
          61 callgsubr
          76 -77 137 213 203 184 367 vhcurveto
          -47 callgsubr
          -1010 vlineto
          -194 -65 -43 -103 -68 -28 38 43 -6 vhcurveto
          hintmask 00110000
          83 1611 -104 callgsubr
          endchar
        </CharString>
        <CharString name="k">
          -29 -19 24 callsubr
          452 270 92 callsubr
          -48 callsubr
          hintmask 10111000
          -41 callsubr
          hintmask 01110000
          -9 -5 3 -8 34 -24 rrcurveto
          endchar
        </CharString>
        <CharString name="kcommaaccent">
          -29 -492 -21 494 24 callsubr
          235 215 2 270 hintmask 00000000
          hintmask 00111000
          -48 callsubr
          hintmask 01011010
          -41 callsubr
          hintmask 00111000
          -9 -5 3 -8 34 -24 rrcurveto
          hintmask 10000100
          58 -798 -99 callgsubr
        </CharString>
        <CharString name="kgreenlandic">
          -29 -19 24 callsubr
          452 270 92 callsubr
          540 597 rmoveto
          hintmask 10111000
          -136 189 116 -480 260 hhcurveto
          135 85 111 56 22 -22 11 -15 -2 hvcurveto
          -1 -13 -11 -21 -71 hhcurveto
          -113 -158 325 145 -161 hvcurveto
          174 129 255 235 132 vvcurveto
          74 -64 22 -92 -88 -116 -39 -56 -9 3 -11 7 -11 vhcurveto
          49 -4 31 -17 -25 vvcurveto
          -128 -241 -168 -141 -103 vhcurveto
          -26 -15 rlineto
          hintmask 01110000
          -9 -4 3 -8 34 -24 rrcurveto
          -427 -527 rmoveto
          -60 65 -10 69 vhcurveto
          300 hlineto
          19 24 0 -5 21 hvcurveto
          11 -32 callsubr
          37 -14 15 -67 13 vhcurveto
          -37 8 -39 15 -2 81 rrcurveto
          799 47 callgsubr
          -131 -62 -67 -49 vhcurveto
          -17 -22 26 -34 22 5 rrcurveto
          4 19 22 3 16 hhcurveto
          71 17 -28 -93 hvcurveto
          -689 vlineto
          -91 1 -16 -27 -55 hhcurveto
          -10 -70 callgsubr
          endchar
        </CharString>
        <CharString name="l">
          -639 -11 callgsubr
          hstem
          67 callsubr
          vstem
          -83 callgsubr
          endchar
        </CharString>
        <CharString name="lacute">
          -639 -11 callgsubr
          1530 313 hstemhm
          112 527 -379 223 hintmask 10010000
          -72 callgsubr
          1175 vlineto
          109 -14 92 -118 3 callgsubr
          vhcurveto
          -16 -23 25 -34 22 5 rrcurveto
          4 20 21 3 17 hhcurveto
          70 18 -27 -93 hvcurveto
          -1065 vlineto
          -91 1 -17 -27 -55 hhcurveto
          -10 -10 -78 callgsubr
          hintmask 01100000
          37 1578 -96 callsubr
        </CharString>
        <CharString name="lcaron">
          -438 -11 callgsubr
          1029 662 72 callsubr
          245 197 hintmask 10100000
          -83 callgsubr
          hintmask 01010000
          591 1077 -72 callsubr
        </CharString>
        <CharString name="lcommaaccent">
          -639 -492 -21 513 118 72 callsubr
          -159 215 hintmask 01100000
          -83 callgsubr
          hintmask 10010000
          109 -252 -99 callgsubr
        </CharString>
        <CharString name="ldot">
          -274 -11 callgsubr
          538 333 72 callsubr
          248 335 hintmask 10100000
          -83 callgsubr
          hintmask 01010000
          786 586 40 callgsubr
        </CharString>
        <CharString name="less">
          44 151 1184 hstem
          210 976 vstem
          279 608 rmoveto
          805 -446 rlineto
          -7 12 13 -4 10 hhcurveto
          42 25 50 78 25 -16 28 -41 23 hvcurveto
          -689 394 697 377 rlineto
          35 20 13 27 17 vvcurveto
          104 -17 41 -40 -13 -13 -5 -10 -18 vhcurveto
          -805 -434 rlineto
          -40 -24 -29 -62 -60 vvcurveto
          -61 26 -46 43 -25 vhcurveto
          endchar
        </CharString>
        <CharString name="lessequal">
          -126 0 184 hstem
          113 976 vstem
          181 690 rmoveto
          805 -350 rlineto
          -6 12 13 -4 10 hhcurveto
          42 25 49 79 24 -16 28 -41 23 hvcurveto
          -674 297 682 281 rlineto
          35 19 13 27 18 vvcurveto
          103 -17 41 -40 -12 -14 -6 -8 -18 vhcurveto
          -805 -338 rlineto
          -40 -23 -28 -62 -60 vvcurveto
          -62 25 -45 43 -25 vhcurveto
          -35 -690 rmoveto
          884 hlineto
          60 13 135 49 -26 hvcurveto
          -886 92 callgsubr
        </CharString>
        <CharString name="logicalnot">
          39 661 188 hstem
          1065 188 vstem
          151 661 rmoveto
          914 -305 hlineto
          59 callsubr
          476 vlineto
          60 -66 2 -122 vhcurveto
          -869 hlineto
          -51 -19 -124 1 callgsubr
        </CharString>
        <CharString name="lozenge">
          -36 -6 -21 hstem
          120 1077 vstem
          598 -18 rmoveto
          28 -14 63 3 22 11 486 816 rcurveline
          -485 819 -24 10 -46 -1 -24 -9 rlinecurve
          -498 -819 rlineto
          544 -608 rmoveto
          -348 608 346 595 344 -593 rlineto
          endchar
        </CharString>
        <CharString name="lslash">
          -639 -11 callgsubr
          hstem
          67 callsubr
          vstem
          -65 callgsubr
          633 vlineto
          253 178 -21 65 -69 43 -48 -40 rlinecurve
          -115 -81 rlineto
          551 -2 callgsubr
          -87 -131 -62 76 callsubr
          21 3 17 hhcurveto
          70 18 -28 -93 hvcurveto
          -615 vlineto
          -216 -151 10 -54 69 -60 59 47 rlinecurve
          78 54 rlineto
          -473 vlineto
          -81 -3 -35 -24 -52 5 callgsubr
          -4 -28 -15 vvcurveto
          endchar
        </CharString>
        <CharString name="m">
          836 6 callsubr
          hstem
          67 callsubr
          526 223 513 223 vstem
          129 -83 callsubr
          endchar
        </CharString>
        <CharString name="macron">
          -310 1456 159 hstem
          86 812 vstem
          94 1456 rmoveto
          729 hlineto
          60 32 110 49 -55 callgsubr
        </CharString>
        <CharString name="macron.cap">
          -310 1730 159 hstem
          86 812 vstem
          94 1730 rmoveto
          729 hlineto
          60 32 109 50 -55 callgsubr
        </CharString>
        <CharString name="minus">
          -236 60 callsubr
          838 vstem
          151 664 rmoveto
          768 hlineto
          60 38 callgsubr
          -769 33 callgsubr
        </CharString>
        <CharString name="mu">
          44 -446 26 401 -13 callsubr
          hstemhm
          215 223 514 3 callsubr
          hintmask 11011100
          215 301 rmoveto
          -12 -240 -12 -238 -13 -243 53 -47 155 15 36 89 -13 108 -12 129 -7 130 rrcurveto
          -16 43 49 -7 53 hhcurveto
          144 167 91 80 105 hvcurveto
          -118 6 63 -53 74 hhcurveto
          87 140 60 65 34 hvcurveto
          27 39 -43 33 -11 -3 rrcurveto
          -15 callsubr
          -11 52 201 hvcurveto
          592 vlineto
          111 -1 -14 109 -102 hhcurveto
          -113 -115 -78 -65 -41 hvcurveto
          hintmask 11101100
          -28 -42 44 -44 callgsubr
          18 16 -37 callsubr
          -1 -582 rlineto
          -66 -81 -129 -64 -137 hhcurveto
          -91 -75 20 175 hvcurveto
          626 -17 callgsubr
          -113 -96 -78 -65 -41 -33 callsubr
          18 16 13 30 hhcurveto
          42 10 -51 -75 hvcurveto
          endchar
        </CharString>
        <CharString name="multiply">
          -253 336 829 hstem
          156 789 vstem
          267 336 rmoveto
          283 285 284 -285 63 25 75 98 -36 37 rlinecurve
          -255 256 250 252 41 43 -88 102 -54 16 rlinecurve
          -280 -281 -279 281 -54 -16 -88 -102 41 -43 rlinecurve
          250 -252 -255 -256 -36 -37 75 -98 63 -25 rlinecurve
          endchar
        </CharString>
        <CharString name="n">
          57 callgsubr
          hstem
          67 callsubr
          544 223 vstem
          -104 callsubr
          endchar
        </CharString>
        <CharString name="nacute">
          57 callgsubr
          128 421 72 callsubr
          133 552 -141 223 hintmask 11010100
          -104 callsubr
          hintmask 00101000
          563 1277 -93 callsubr
        </CharString>
        <CharString name="nbspace">
          -674 endchar
        </CharString>
        <CharString name="ncaron">
          57 callgsubr
          128 418 72 callsubr
          -88 679 -47 223 hintmask 11010100
          -104 callsubr
          hintmask 00101000
          502 1323 -91 callsubr
        </CharString>
        <CharString name="ncommaaccent">
          118 -492 -21 513 2 callsubr
          72 callsubr
          233 215 96 223 hintmask 01110100
          -104 callsubr
          hintmask 10001000
          482 -252 -99 callgsubr
        </CharString>
        <CharString name="nine">
          129 2 -21 573 171 651 166 hstemhm
          188 221 -138 204 605 242 hintmask 00000000
          hintmask 11101100
          271 223 rmoveto
          -157 162 -85 269 210 397 133 693 13 vhcurveto
          538 10 -279 197 -283 hhcurveto
          hintmask 11110100
          -356 -226 -230 -300 -287 204 -171 296 190 128 69 69 74 hvcurveto
          -17 -435 -158 -99 -172 -17 rrcurveto
          hintmask 11101100
          -184 -20 -74 94 141 vvcurveto
          11 -18 -27 0 -18 hhcurveto
          -87 -54 -60 -84 hvcurveto
          hintmask 11110100
          454 502 rmoveto
          -180 -136 138 195 219 148 99 191 184 135 -110 -423 14 hvcurveto
          -62 -78 -94 -56 -184 hhcurveto
          endchar
        </CharString>
        <CharString name="notequal">
          -98 468 184 211 185 hstem
          156 838 vstem
          276 207 rmoveto
          -52 76 -38 64 26 vhcurveto
          132 325 rlineto
          387 hlineto
          60 12 134 50 -26 hvcurveto
          -358 hlineto
          87 211 rlineto
          225 hlineto
          60 38 callgsubr
          -196 hlineto
          88 214 86 callsubr
          -114 -280 rlineto
          -407 71 callgsubr
          376 hlineto
          -86 -211 rlineto
          -245 hlineto
          -51 -19 -120 -1 callsubr
          215 hlineto
          endchar
        </CharString>
        <CharString name="ntilde">
          57 callgsubr
          168 79 callgsubr
          260 223 -213 909 -152 223 hintmask 11001010
          -104 callsubr
          hintmask 00000000
          202 1331 -24 callgsubr
          hintmask 00010100
          -56 callgsubr
          hintmask 00100100
          -26 callsubr
        </CharString>
        <CharString name="numbersign">
          297 10 -21 339 188 449 188 hstem
          110 1430 vstem
          294 45 rmoveto
          -12 -52 121 -18 68 25 75 328 rcurveline
          354 hlineto
          -65 -283 -11 -52 120 -18 69 25 rlinecurve
          75 328 rlineto
          286 hlineto
          61 12 139 49 -26 hvcurveto
          -290 hlineto
          103 449 rlineto
          247 hlineto
          60 13 139 49 -26 hvcurveto
          -251 hlineto
          65 65 callgsubr
          -354 hlineto
          66 65 callgsubr
          -275 hlineto
          -52 -18 -124 -1 callsubr
          277 hlineto
          -103 -449 rlineto
          -236 hlineto
          -52 -18 -124 -1 callsubr
          238 hlineto
          230 188 rmoveto
          103 449 rlineto
          354 hlineto
          -103 -449 rlineto
          endchar
        </CharString>
        <CharString name="o">
          -16 callgsubr
          hstem
          99 222 629 221 vstem
          -100 callsubr
          endchar
        </CharString>
        <CharString name="oacute">
          52 callsubr
          193 552 -116 221 hintmask 11010100
          -100 callsubr
          hintmask 00101000
          -76 1203 -93 callsubr
        </CharString>
        <CharString name="obreve">
          -16 callgsubr
          139 175 hstemhm
          99 222 -70 759 -60 221 hintmask 11010100
          -100 callsubr
          hintmask 00101000
          -40 1214 -86 callgsubr
          endchar
        </CharString>
        <CharString name="ocircumflex">
          -16 callgsubr
          132 418 hstemhm
          99 222 -23 679 -27 221 hintmask 11010100
          -100 callsubr
          hintmask 00101000
          -301 1207 -104 callgsubr
          endchar
        </CharString>
        <CharString name="odieresis">
          -16 callgsubr
          182 316 hstemhm
          99 222 -112 38 callsubr
          -92 221 hintmask 11010010
          -100 callsubr
          hintmask 00101100
          205 1257 -82 callsubr
        </CharString>
        <CharString name="oe">
          700 -19 163 -163 187 416 121 354 160 hstemhm
          99 222 629 220 533 238 hintmask 00000000
          hintmask 10011110
          99 553 rmoveto
          -330 193 -242 315 153 166 69 152 112 vhcurveto
          -141 85 147 -80 196 hhcurveto
          269 173 160 49 hvcurveto
          hintmask 01111110
          33 -37 33 -10 1 vhcurveto
          -31 -49 -120 -58 -177 hhcurveto
          -168 -169 97 312 -8 hvcurveto
          698 15 rlineto
          52 1 21 32 56 vvcurveto
          281 -105 257 -294 -159 -176 -77 -156 -118 vhcurveto
          153 -90 -155 80 -155 hhcurveto
          hintmask 10011110
          -282 -308 -180 -486 hvcurveto
          hintmask 10111110
          1077 153 rmoveto
          207 26 103 148 178 hhcurveto
          146 81 -91 -227 -7 hvcurveto
          -162 -17 -194 -11 -171 -9 rrcurveto
          -510 -562 rmoveto
          -176 -169 168 343 267 127 137 171 234 97 -262 -239 -237 -104 -177 -180 hvcurveto
          endchar
        </CharString>
        <CharString name="ogonek">
          302 89 callgsubr
          hstem
          611 194 vstem
          611 -312 rmoveto
          -47 callsubr
          -80 -48 31 78 88 95 133 131 96 hvcurveto
          -48 45 rlineto
          -59 -35 -313 -173 -240 vvcurveto
          endchar
        </CharString>
        <CharString name="ograve">
          52 callsubr
          -128 553 204 221 hintmask 11010100
          -100 callsubr
          hintmask 00101000
          3 1203 -71 callsubr
        </CharString>
        <CharString name="ohungarumlaut">
          -16 callgsubr
          128 429 hstemhm
          99 222 81 846 -298 221 hintmask 11010100
          -100 callsubr
          hintmask 00101000
          188 1203 -53 callgsubr
        </CharString>
        <CharString name="omacron">
          -16 callgsubr
          237 159 hstemhm
          99 222 -90 812 -93 221 hintmask 11010100
          -100 callsubr
          hintmask 00101000
          -427 1312 rmoveto
          729 hlineto
          60 32 110 49 -55 callgsubr
        </CharString>
        <CharString name="one">
          -332 0 137 1405 -20 hstem
          428 233 vstem
          168 96 rmoveto
          -74 45 -22 69 vhcurveto
          505 hlineto
          33 42 0 -8 24 hvcurveto
          11 14 4 7 callsubr
          68 -82 16 -83 14 vhcurveto
          -52 10 -23 21 79 vvcurveto
          1211 vlineto
          27 -48 49 -34 -5 -5 -1 -3 -3 vhcurveto
          -121 -72 -150 -55 -147 -44 -21 -15 34 -99 26 4 99 16 118 36 25 -148 -1 -856 rcurveline
          -101 -25 -67 -107 -33 -60 6 4 -20 vhcurveto
          -10 -12 -5 -23 -16 vvcurveto
          endchar
        </CharString>
        <CharString name="onehalf">
          828 -166 134 28 1445 -772 118 -24 68 callgsubr
          269 209 hintmask 00011100
          276 763 -73 callgsubr
          hintmask 10100001
          1064 -929 -55 callsubr
          hintmask 01000010
          -826 268 -44 callsubr
          endchar
        </CharString>
        <CharString name="onequarter">
          82 callsubr
          531 68 callgsubr
          100 185 hintmask 01000010
          -37 callgsubr
          hintmask 00111000
          -884 565 -73 callgsubr
          hintmask 10000100
          238 -661 -44 callsubr
          endchar
        </CharString>
        <CharString name="onesuperior">
          -335 865 112 hstem
          251 14 188 195 vstem
          347 865 -73 callgsubr
          endchar
        </CharString>
        <CharString name="ordfeminine">
          -356 813 143 -143 153 225 111 258 134 hstemhm
          111 191 -141 171 295 194 hintmask 00000000
          hintmask 10111010
          394 813 rmoveto
          99 80 50 54 57 hvcurveto
          hintmask 01110110
          -71 16 62 -33 64 hhcurveto
          59 90 40 48 26 hvcurveto
          5 8 2 8 7 vvcurveto
          25 -21 31 -4 -3 vhcurveto
          -6 -14 -8 -5 -21 hhcurveto
          -59 -6 32 119 hvcurveto
          119 5 98 105 vvcurveto
          209 -202 46 -143 -172 -148 -57 -133 -44 41 -37 56 17 44 6 6 13 vhcurveto
          -1 12 0 20 6 16 rrcurveto
          44 12 55 33 75 hhcurveto
          83 68 -34 -128 hvcurveto
          -95 -144 vlineto
          hintmask 10111010
          -211 -164 -58 -194 -142 113 -96 170 hvcurveto
          50 143 rmoveto
          -99 -43 49 81 75 89 19 128 8 hvcurveto
          110 7 rlineto
          -1 -56 -1 -57 -58 vvcurveto
          -36 -45 -61 -32 -77 hhcurveto
          endchar
        </CharString>
        <CharString name="ordmasculine">
          -356 813 134 615 132 hstem
          93 204 402 205 vstem
          469 813 rmoveto
          214 221 119 343 231 -138 188 -238 -214 -221 -120 -342 -232 138 -187 238 hvcurveto
          37 134 rmoveto
          -132 -77 73 275 164 84 103 110 hvcurveto
          132 -3 76 -73 -274 vvcurveto
          -164 -83 -101 -110 vhcurveto
          endchar
        </CharString>
        <CharString name="oslash">
          -16 callgsubr
          hstem
          99 222 629 221 vstem
          145 -59 rmoveto
          28 -49 53 -13 33 43 84 129 rcurveline
          -45 74 88 -25 102 hhcurveto
          263 301 203 481 182 -62 139 -92 94 hvcurveto
          123 187 -41 55 -45 2 -28 -38 rlinecurve
          -91 -139 rlineto
          47 -75 -85 25 -86 hhcurveto
          -282 -308 -180 -486 -180 57 -154 104 -103 hvcurveto
          134 206 rmoveto
          -45 82 -28 111 140 vvcurveto
          267 127 137 171 84 66 -34 -54 50 vhcurveto
          -357 -740 rmoveto
          422 645 rlineto
          45 -92 21 -116 -110 vvcurveto
          -237 -104 -177 -180 -73 -72 29 58 -59 vhcurveto
          endchar
        </CharString>
        <CharString name="otilde">
          -16 callgsubr
          168 79 callgsubr
          99 222 -153 909 -127 221 hintmask 11001010
          -100 callsubr
          hintmask 00000000
          -437 1257 -24 callgsubr
          hintmask 00010100
          -56 callgsubr
          hintmask 00100100
          -26 callsubr
        </CharString>
        <CharString name="p">
          15 18 callgsubr
          hstemhm
          226 223 587 227 hintmask 00000000
          hintmask 01111100
          50 callgsubr
          hintmask 10111100
          -57 callgsubr
          endchar
        </CharString>
        <CharString name="paragraph">
          471 1523 -20 26 -20 25 -20 23 -20 22 -20 hstemhm
          807 208 260 207 hintmask 00000000
          hintmask 00001110
          807 -283 rmoveto
          50 -26 158 15 77 vvcurveto
          hintmask 10000110
          1740 vlineto
          hintmask 00100110
          -8 6 -18 3 -26 2 rrcurveto
          hintmask 00010110
          -459 30 -283 -195 -361 vvcurveto
          -314 235 -160 351 -11 vhcurveto
          468 -806 rmoveto
          49 -26 158 15 77 vvcurveto
          hintmask 01000110
          1746 vlineto
          hintmask 00001110
          -64 26 -143 -28 -62 vvcurveto
          endchar
        </CharString>
        <CharString name="parenleft">
          -394 -451 2415 hstem
          107 244 vstem
          107 752 rmoveto
          -525 291 -460 381 -218 vhcurveto
          33 20 42 53 9 47 rrcurveto
          -352 243 -160 393 447 vvcurveto
          447 141 420 352 242 vhcurveto
          -10 48 -22 35 -33 20 rrcurveto
          -381 -218 -291 -469 -525 vvcurveto
          endchar
        </CharString>
        <CharString name="parenright">
          -394 -451 2415 hstem
          609 244 vstem
          853 752 rmoveto
          525 -291 469 -381 218 vhcurveto
          -33 -20 -22 -35 -10 -48 rrcurveto
          352 -242 141 -420 -447 vvcurveto
          -447 -160 -393 -352 -243 vhcurveto
          9 -47 42 -53 33 -20 rrcurveto
          381 218 291 460 525 vvcurveto
          endchar
        </CharString>
        <CharString name="partialdiff">
          -43 -19 136 700 152 457 145 hstemhm
          126 256 -74 165 464 222 hintmask 00000000
          hintmask 11110100
          126 413 rmoveto
          -245 189 -187 215 367 262 245 672 512 -377 161 -195 vhcurveto
          hintmask 11101100
          -184 -95 -85 -110 -63 35 -47 26 -20 hvcurveto
          22 -29 82 4 31 vvcurveto
          85 57 89 100 129 178 -106 -332 -42 -1 -45 -2 -47 vhcurveto
          66 -65 -131 49 -105 hhcurveto
          hintmask 11110100
          -346 -161 -227 -329 hvcurveto
          256 -1 rmoveto
          210 67 195 229 125 76 -76 -52 42 vhcurveto
          -283 -32 -90 -289 -222 hhcurveto
          -133 -62 128 167 hvcurveto
          endchar
        </CharString>
        <CharString name="percent">
          615 83 callgsubr
          -107 132 547 31 callsubr
          1 callsubr
          hintmask 1001110111000000
          12 callgsubr
          4 132 rmoveto
          -98 -70 76 194 211 70 -3 callsubr
          hvcurveto
          hintmask 1010110111000000
          655 -436 rmoveto
          -17 callsubr
          199 hmoveto
          211 71 -3 callsubr
          -98 -71 76 194 vhcurveto
          hintmask 0100001000000000
          -848 -260 -44 callsubr
          endchar
        </CharString>
        <CharString name="period">
          -690 2 -21 hstem
          165 335 vstem
          31 callgsubr
          endchar
        </CharString>
        <CharString name="periodcentered">
          -690 656 333 hstem
          165 335 vstem
          330 656 40 callgsubr
        </CharString>
        <CharString name="perthousand">
          1455 83 callgsubr
          -134 159 -132 107 572 31 callsubr
          107 199 336 198 1 callsubr
          hintmask 1000111011111000
          12 callgsubr
          hintmask 0001011010000000
          4 132 rmoveto
          -98 -70 76 194 211 70 -3 callsubr
          hvcurveto
          hintmask 1000100000011000
          1495 -436 rmoveto
          -17 callsubr
          hintmask 1010000001110000
          -840 hmoveto
          -17 callsubr
          1039 hmoveto
          hintmask 1001000000011000
          211 71 -3 callsubr
          vhcurveto
          hintmask 1010000001110000
          -98 -71 76 194 hvcurveto
          -840 hmoveto
          211 71 -3 callsubr
          -98 -71 76 194 vhcurveto
          hintmask 0100000100000000
          -848 -260 -44 callsubr
          endchar
        </CharString>
        <CharString name="pi">
          123 -20 8 21 -21 1030 182 hstemhm
          944 223 92 callsubr
          266 -12 rmoveto
          hintmask 10110000
          64 -25 158 38 51 vvcurveto
          44 966 rlineto
          412 -846 hlineto
          -132 64 -59 78 88 139 60 65 34 vhcurveto
          27 39 -43 33 -11 -3 rrcurveto
          -8 -18 -21 -13 -30 hhcurveto
          -72 -12 52 201 hvcurveto
          611 164 vlineto
          60 32 132 50 -26 hvcurveto
          -1277 hlineto
          -51 -38 -118 -1 callsubr
          257 hlineto
          endchar
        </CharString>
        <CharString name="plus">
          -197 664 84 callsubr
          486 356 rmoveto
          59 callsubr
          353 283 vlineto
          12 callsubr
          hlineto
          endchar
        </CharString>
        <CharString name="plusminus">
          -197 210 184 270 84 callsubr
          168 210 rmoveto
          767 hlineto
          60 13 134 50 -26 hvcurveto
          -308 270 283 hlineto
          12 callsubr
          -270 -274 hlineto
          -51 -18 -120 1 callgsubr
        </CharString>
        <CharString name="product">
          444 -165 118 1414 162 -118 118 hstemhm
          307 226 733 226 hintmask 00000000
          hintmask 11011000
          108 -37 rmoveto
          -11 -12 -5 -24 -15 vvcurveto
          -58 46 -19 69 vhcurveto
          426 -56 callsubr
          -82 16 vhcurveto
          -53 11 -36 19 80 vvcurveto
          1247 vlineto
          13 6 21 21 15 vhcurveto
          687 hlineto
          10 -13 9 -16 -26 vvcurveto
          -1220 vlineto
          -108 -57 -31 -59 -29 -29 81 callgsubr
          -11 -12 -5 -24 -15 vvcurveto
          -58 46 -19 69 vhcurveto
          427 hlineto
          33 42 0 -8 24 hvcurveto
          11 14 4 7 callsubr
          55 -43 8 -83 16 vhcurveto
          -51 11 -38 18 75 vvcurveto
          1179 vlineto
          hintmask 10111000
          132 53 35 63 29 29 -3 -7 26 vhcurveto
          hintmask 11011000
          10 -45 callgsubr
          59 -45 18 -69 vhcurveto
          -1386 -70 callsubr
          -4 -32 callgsubr
          47 -10 42 -16 -61 vvcurveto
          -1224 vlineto
          -108 -58 -31 -58 -29 -29 81 callgsubr
          endchar
        </CharString>
        <CharString name="q">
          0 -514 172 -151 -21 494 188 890 160 3 -20 hstemhm
          107 227 595 3 callsubr
          hintmask 01110110
          107 545 rmoveto
          -378 216 -187 258 148 117 72 80 83 vhcurveto
          -455 vlineto
          -132 63 -59 89 94 111 51 65 34 vhcurveto
          hintmask 10101110
          6 12 3 11 10 vvcurveto
          34 -27 6 -8 -4 vhcurveto
          -7 -18 -23 -6 -20 hhcurveto
          -71 -10 60 152 hvcurveto
          1172 vlineto
          140 -28 39 -59 -43 -33 -19 -24 -23 vhcurveto
          hintmask 01110110
          27 -76 -86 13 -76 hhcurveto
          -312 -309 -249 -424 hvcurveto
          551 -377 rmoveto
          -189 -135 127 313 293 158 157 199 104 79 -40 -50 55 hvcurveto
          -676 vlineto
          -57 -55 -100 -67 -116 hhcurveto
          endchar
        </CharString>
        <CharString name="question">
          -86 2 -21 1595 145 hstemhm
          113 52 callgsubr
          hintmask 11101100
          545 488 rmoveto
          16 -25 34 0 9 1 41 4 41 29 3 9 rrcurveto
          12 -1 13 11 vvcurveto
          100 14 71 58 53 vhcurveto
          87 82 350 107 326 vvcurveto
          341 -229 99 -294 -251 -310 -145 -237 -85 49 -81 84 50 21 13 13 27 vhcurveto
          -2 10 -1 16 16 vvcurveto
          10 0 11 1 7 vhcurveto
          144 10 34 163 266 hhcurveto
          184 128 -136 -166 hvcurveto
          -359 -486 45 -283 vvcurveto
          -74 33 -58 34 -57 vhcurveto
          hintmask 11010100
          -79 -341 rmoveto
          -95 71 -71 93 97 73 71 95 95 -73 72 -97 -93 -71 -72 -95 vhcurveto
          endchar
        </CharString>
        <CharString name="questiondown">
          -86 -92 145 1574 21 hstemhm
          62 52 callgsubr
          494 1141 rmoveto
          -34 -57 -33 -58 -74 -283 486 45 -359 vvcurveto
          -166 -128 -136 -184 -266 -34 163 144 -10 vhcurveto
          -1 7 0 11 10 vvcurveto
          16 1 16 2 10 vhcurveto
          13 -27 -21 13 -50 hhcurveto
          -84 -49 -81 -85 -237 310 -145 251 294 229 99 341 326 -350 107 -87 82 hvcurveto
          -58 53 -14 71 100 11 1 13 12 vvcurveto
          -3 9 -41 29 -41 4 rrcurveto
          hintmask 11101100
          -9 1 -34 0 -16 -25 rrcurveto
          -79 341 rmoveto
          -95 71 84 callgsubr
          hintmask 11010100
          -93 -71 -71 -95 hvcurveto
          endchar
        </CharString>
        <CharString name="quotedbl">
          -222 1056 673 hstemhm
          180 285 203 285 hintmask 11000000
          307 1056 rmoveto
          -40 callsubr
          hintmask 10100000
          488 hmoveto
          -40 callsubr
          endchar
        </CharString>
        <CharString name="quotedblbase">
          -134 -380 54 callgsubr
          353 -50 callsubr
        </CharString>
        <CharString name="quotedblleft">
          -134 995 733 hstemhm
          161 227 291 227 hintmask 11000000
          356 995 rmoveto
          -42 callgsubr
          hintmask 10100000
          518 hmoveto
          -42 callgsubr
          endchar
        </CharString>
        <CharString name="quotedblright">
          -134 996 54 callgsubr
          1729 -50 callsubr
        </CharString>
        <CharString name="quoteleft">
          -652 995 733 hstem
          161 227 vstem
          356 995 rmoveto
          -42 callgsubr
          endchar
        </CharString>
        <CharString name="quoteright">
          -652 995 91 callsubr
          1728 -9 callgsubr
          endchar
        </CharString>
        <CharString name="quotesinglbase">
          -652 -381 91 callsubr
          352 -9 callgsubr
          endchar
        </CharString>
        <CharString name="quotesingle">
          -710 1055 673 hstem
          180 285 vstem
          307 1055 rmoveto
          -40 callsubr
          endchar
        </CharString>
        <CharString name="r">
          56 callgsubr
          hstem
          255 223 360 178 vstem
          -94 callsubr
          endchar
        </CharString>
        <CharString name="racute">
          56 callgsubr
          30 callsubr
          255 223 -8 552 -184 178 hintmask 11010100
          -94 callsubr
          hintmask 00101000
          422 1277 -93 callsubr
        </CharString>
        <CharString name="radical">
          216 2 -21 26 -21 801 160 hstemhm
          144 1499 92 callsubr
          753 -14 rmoveto
          hintmask 10110000
          29 -6 27 -1 26 7 805 1887 rcurveline
          25 55 -109 27 -56 -5 -671 -1563 rcurveline
          -250 558 rlineto
          -3 2 -420 hlineto
          -52 -25 15 -108 48 hhcurveto
          183 -1 rlineto
          endchar
        </CharString>
        <CharString name="rcaron">
          56 callgsubr
          128 418 hstemhm
          249 679 -673 223 360 178 hintmask 11001100
          -94 callsubr
          hintmask 00110000
          361 1323 -91 callsubr
        </CharString>
        <CharString name="rcommaaccent">
          -302 -492 -21 513 118 898 203 hstemhm
          255 223 -158 215 303 178 hintmask 01110100
          -94 callsubr
          hintmask 10001000
          91 -252 -99 callgsubr
        </CharString>
        <CharString name="registered">
          667 81 132 404 133 -120 88 256 87 318 86 333 134 hstemhm
          91 150 472 175 305 192 396 148 1 callsubr
          hintmask 1011111101000000
          91 1005 rmoveto
          -512 408 -412 512 511 407 412 512 513 -407 414 -511 -512 -408 -414 -513 vhcurveto
          150 -1 rmoveto
          435 335 359 435 435 335 -359 -435 -435 -335 -356 -435 -435 -335 356 435 vhcurveto
          346 -309 rmoveto
          -55 35 -10 39 vhcurveto
          304 hlineto
          20 26 0 -5 13 hvcurveto
          7 9 3 15 21 vvcurveto
          36 -32 7 -49 10 vhcurveto
          -39 6 -26 10 43 vvcurveto
          192 108 vlineto
          hintmask 1101111111000000
          102 72 -357 198 hhcurveto
          89 72 77 23 41 -26 3 -5 -1 hvcurveto
          -4 -11 -10 -6 -28 hhcurveto
          -95 -88 200 61 -81 hvcurveto
          138 49 62 97 89 vvcurveto
          147 -108 84 -304 -6 vhcurveto
          -228 -6 rlineto
          -123 hlineto
          -11 -12 0 3 -15 hvcurveto
          -6 -9 -3 -19 -20 -58 138 37 -94 vvcurveto
          hintmask 1011111101000000
          -522 vlineto
          -52 -3 -29 -13 -42 hhcurveto
          -13 -18 1 5 -11 hvcurveto
          -7 -7 -3 -14 -8 vvcurveto
          hintmask 1011111111000000
          301 366 rmoveto
          300 vlineto
          15 18 35 3 61 hhcurveto
          131 -3 60 -68 -87 vvcurveto
          -112 -108 -59 -197 11 vhcurveto
          endchar
        </CharString>
        <CharString name="ring">
          302 1341 111 298 104 hstem
          355 48 callgsubr
          vstem
          656 1341 -51 callgsubr
        </CharString>
        <CharString name="ring.cap">
          302 1484 113 259 103 hstem
          355 48 callgsubr
          vstem
          656 1484 -50 callgsubr
        </CharString>
        <CharString name="s">
          -240 -19 136 967 135 hstemhm
          143 205 437 222 -213 160 hintmask 00000000
          hintmask 11110000
          117 203 rmoveto
          -162 221 -60 202 329 138 176 157 159 -127 115 -247 111 vhcurveto
          -223 100 -62 54 89 vvcurveto
          101 110 41 115 vhcurveto
          hintmask 11101000
          138 83 -89 -131 -16 26 -9 25 26 32 9 10 14 hvcurveto
          14 18 23 72 83 vvcurveto
          165 -224 23 -129 -258 -200 -120 -205 -168 114 -115 192 -89 vhcurveto
          hintmask 11110000
          192 -86 144 -50 -119 vvcurveto
          -93 -94 -57 -130 -174 -92 86 164 -14 vhcurveto
          19 -2 -26 10 -26 hhcurveto
          -19 -31 -10 -14 -13 hvcurveto
          -23 -24 -24 -54 -91 vvcurveto
          endchar
        </CharString>
        <CharString name="sacute">
          37 callgsubr
          30 callsubr
          135 205 124 552 -239 -96 callgsubr
          431 1144 -93 callsubr
        </CharString>
        <CharString name="scaron">
          37 callgsubr
          128 418 hstemhm
          135 205 -97 679 -145 -96 callgsubr
          370 1190 -91 callsubr
        </CharString>
        <CharString name="scedilla">
          -246 -500 97 -76 -21 482 135 967 135 hstemhm
          135 205 269 214 -46 222 -213 160 hintmask 00000000
          hintmask 01111010
          109 203 rmoveto
          -149 187 -63 187 -9 vhcurveto
          -36 -159 rlineto
          61 callsubr
          hintmask 10111100
          68 callsubr
          43 callsubr
          -28 callgsubr
          15 95 rlineto
          hintmask 01111010
          274 24 117 160 145 vvcurveto
          159 -127 115 -247 111 vhcurveto
          -223 100 -62 54 89 vvcurveto
          101 110 41 115 vhcurveto
          hintmask 01111001
          138 83 -89 -131 -16 26 -9 25 26 32 9 10 14 hvcurveto
          14 18 23 72 83 vvcurveto
          165 -224 23 -129 -258 -200 -120 -205 -168 114 -115 192 -89 vhcurveto
          hintmask 01111010
          192 -86 144 -50 -119 vvcurveto
          -93 -94 -57 -130 -174 -92 86 164 -14 vhcurveto
          19 -2 -26 10 -26 hhcurveto
          -19 -31 -10 -14 -13 hvcurveto
          -23 -24 -24 -54 -91 vvcurveto
          endchar
        </CharString>
        <CharString name="scircumflex">
          37 callgsubr
          132 418 hstemhm
          135 205 -92 679 -150 -96 callgsubr
          206 1148 -104 callgsubr
          endchar
        </CharString>
        <CharString name="scommaaccent">
          -246 -492 -21 494 136 967 135 hstemhm
          135 205 173 215 49 222 -213 160 hintmask 00000000
          hintmask 01110100
          109 203 rmoveto
          -162 221 -60 202 329 138 176 157 159 -127 115 -247 111 vhcurveto
          -223 100 -62 54 89 vvcurveto
          101 110 41 115 vhcurveto
          hintmask 01110010
          138 83 -89 -131 -16 26 -9 25 26 32 9 10 14 hvcurveto
          14 18 23 72 83 vvcurveto
          165 -224 23 -129 -258 -200 -120 -205 -168 114 -115 192 -89 vhcurveto
          hintmask 01110100
          192 -86 144 -50 -119 vvcurveto
          -93 -94 -57 -130 -174 -92 86 164 -14 vhcurveto
          19 -2 -26 10 -26 hhcurveto
          -19 -31 -10 -14 -13 hvcurveto
          -23 -24 -24 -54 -91 vvcurveto
          hintmask 10001000
          299 -385 -99 callgsubr
        </CharString>
        <CharString name="section">
          132 -445 131 2076 129 hstemhm
          230 229 573 236 -218 163 hintmask 00000000
          hintmask 11110000
          200 -151 rmoveto
          -233 288 -61 230 284 266 118 291 199 -152 115 -151 86 vhcurveto
          174 54 129 118 203 vvcurveto
          265 -282 114 -177 97 vhcurveto
          -159 93 -191 75 164 vvcurveto
          118 106 97 183 vhcurveto
          hintmask 11101000
          211 91 -114 -198 -32 82 -2 19 27 hvcurveto
          23 25 39 66 93 vvcurveto
          198 -198 66 -240 -311 -234 -132 -253 -204 155 -131 148 -87 vhcurveto
          -183 -53 -120 -119 -181 vvcurveto
          -249 243 -139 167 -80 vhcurveto
          hintmask 11110000
          193 -98 199 -82 -158 vvcurveto
          -165 -134 -74 -154 -190 -131 86 135 -28 vhcurveto
          -10 45 -4 28 -4 42 -9 41 -88 3 -24 -29 rrcurveto
          -34 -52 -22 -67 -69 vvcurveto
          259 923 rmoveto
          106 89 102 152 18 vhcurveto
          172 -83 160 -77 -138 vvcurveto
          -137 -97 -89 -121 -27 vhcurveto
          -5 3 rlineto
          -159 89 -191 74 159 vvcurveto
          endchar
        </CharString>
        <CharString name="semicolon">
          -690 -376 695 532 -21 hstemhm
          164 335 -213 215 hintmask 01100000
          164 996 44 callsubr
          hintmask 10010000
          1 -915 -6 callgsubr
        </CharString>
        <CharString name="seven">
          -73 15 -21 27 -21 1289 235 17 -20 hstemhm
          124 21 255 239 hintmask 00000000
          hintmask 10011100
          400 53 rmoveto
          -1 -22 31 -22 53 -8 50 -9 69 -1 37 9 23 444 243 615 275 349 18 51 -39 54 -44 26 -140 -20 -614 0 -216 22 rrcurveto
          hintmask 01101100
          -32 -43 1 -156 62 -27 rrcurveto
          -18 39 104 -8 80 hhcurveto
          184 214 26 31 152 hvcurveto
          hintmask 10011100
          -193 -227 -344 -609 -12 -457 rrcurveto
          endchar
        </CharString>
        <CharString name="six">
          129 -19 165 644 179 428 165 hstemhm
          159 236 634 205 -148 226 hintmask 00000000
          hintmask 11111000
          159 693 rmoveto
          -532 -10 330 -180 261 hhcurveto
          hintmask 11110100
          314 258 233 307 281 -198 167 -263 -205 -161 -96 -81 -87 hvcurveto
          429 31 204 176 168 hhcurveto
          hintmask 11111000
          158 70 -80 -140 hvcurveto
          -11 19 27 0 17 hhcurveto
          88 54 69 84 157 -158 86 -218 -253 -433 -198 -671 -13 hvcurveto
          236 -56 rmoveto
          64 81 97 89 193 hhcurveto
          hintmask 11110100
          186 134 -127 -189 -225 -142 -103 -172 hvcurveto
          hintmask 11111000
          -159 -203 103 388 -15 hvcurveto
          endchar
        </CharString>
        <CharString name="slash">
          75 callsubr
          1 -120 rmoveto
          -12 -52 130 -18 69 25 732 1932 rcurveline
          13 60 -145 13 -56 -26 rrcurveto
          endchar
        </CharString>
        <CharString name="space">
          -634 endchar
        </CharString>
        <CharString name="sterling">
          296 -19 201 -70 163 388 149 574 166 hstemhm
          429 225 -169 221 430 180 hintmask 00000000
          hintmask 10111010
          128 100 rmoveto
          -15 -49 28 -51 31 -19 rrcurveto
          hintmask 01111010
          86 174 24 45 153 203 155 -131 274 hhcurveto
          hintmask 10111010
          262 60 164 108 -21 hvcurveto
          -14 25 -52 13 -26 3 rrcurveto
          -103 -73 -93 -9 -63 -163 -188 93 -159 hhcurveto
          hintmask 01110110
          -22 -21 0 -1 -19 hvcurveto
          94 97 46 129 3 163 rrcurveto
          275 hlineto
          60 32 100 49 -26 hvcurveto
          hintmask 10111010
          -352 hlineto
          -15 100 -26 84 66 vvcurveto
          263 124 61 137 128 93 -67 -136 -9 0 -9 -1 -10 vhcurveto
          16 -16 19 -6 25 2 rrcurveto
          48 26 73 75 100 vvcurveto
          158 -187 58 -161 -231 -308 -174 -351 -73 14 -71 14 -71 vhcurveto
          -141 hlineto
          -51 -38 -85 -1 callsubr
          hintmask 10110110
          230 hlineto
          2 -19 1 -18 -18 vvcurveto
          -129 -37 -132 -81 -99 vhcurveto
          hintmask 10111010
          -134 -35 -52 -62 -53 -51 rrcurveto
          endchar
        </CharString>
</ttFont>
